# Blender 4.0.2
# www.blender.org
mtllib bike_fork.mtl
o Fork
v -0.000000 -0.000000 -0.058176
v -0.001288 0.004831 -0.053000
v -0.000377 0.001415 -0.054516
v -0.077300 0.290000 -0.058176
v -0.076013 0.285169 -0.053000
v -0.076923 0.288585 -0.054516
v -0.017791 -0.004742 -0.063110
v -0.021579 -0.000577 -0.058627
v -0.019936 -0.003798 -0.059940
v -0.095091 0.285258 -0.063110
v -0.096304 0.279760 -0.058627
v -0.096482 0.283371 -0.059940
v -0.030814 -0.008214 -0.076588
v -0.036434 -0.004537 -0.074000
v -0.034254 -0.007615 -0.074758
v -0.108115 0.281786 -0.076588
v -0.111159 0.275800 -0.074000
v -0.110801 0.279555 -0.074758
v -0.035581 -0.009484 -0.095000
v -0.041871 -0.005986 -0.095000
v -0.039495 -0.009012 -0.095000
v -0.112882 0.280516 -0.095000
v -0.116596 0.274351 -0.095000
v -0.116041 0.278158 -0.095000
v -0.030814 -0.008214 -0.113412
v -0.036434 -0.004537 -0.116000
v -0.034254 -0.007615 -0.115242
v -0.108115 0.281786 -0.113412
v -0.111159 0.275800 -0.116000
v -0.110801 0.279555 -0.115242
v -0.017791 -0.004742 -0.126890
v -0.021579 -0.000577 -0.131373
v -0.019936 -0.003798 -0.130060
v -0.095091 0.285258 -0.126890
v -0.096304 0.279760 -0.131373
v -0.096482 0.283371 -0.130060
v -0.000000 -0.000000 -0.131824
v -0.001288 0.004831 -0.137000
v -0.000377 0.001415 -0.135484
v -0.077300 0.290000 -0.131824
v -0.076013 0.285169 -0.137000
v -0.076923 0.288585 -0.135484
v 0.017791 0.004742 -0.126890
v 0.019004 0.010240 -0.131373
v 0.019182 0.006629 -0.130060
v -0.059510 0.294742 -0.126890
v -0.055721 0.290577 -0.131373
v -0.057364 0.293798 -0.130060
v 0.030814 0.008214 -0.113412
v 0.033858 0.014200 -0.116000
v 0.033500 0.010445 -0.115242
v -0.046486 0.298214 -0.113412
v -0.040867 0.294537 -0.116000
v -0.043046 0.297615 -0.115242
v 0.035581 0.009484 -0.095000
v 0.039295 0.015649 -0.095000
v 0.038741 0.011842 -0.095000
v -0.041719 0.299484 -0.095000
v -0.035430 0.295986 -0.095000
v -0.037805 0.299012 -0.095000
v 0.030814 0.008214 -0.076588
v 0.033858 0.014200 -0.074000
v 0.033500 0.010445 -0.074758
v -0.046486 0.298214 -0.076588
v -0.040867 0.294537 -0.074000
v -0.043046 0.297615 -0.074758
v 0.017791 0.004742 -0.063110
v 0.019004 0.010240 -0.058627
v 0.019182 0.006629 -0.059940
v -0.059510 0.294742 -0.063110
v -0.055721 0.290577 -0.058627
v -0.057364 0.293798 -0.059940
v -0.077300 0.270000 -0.070176
v -0.078379 0.274882 -0.065000
v -0.077616 0.271430 -0.066516
v -0.154601 0.620000 -0.070176
v -0.153523 0.615118 -0.065000
v -0.154285 0.618570 -0.066516
v -0.089420 0.267323 -0.073502
v -0.093026 0.271647 -0.069019
v -0.091523 0.268358 -0.070332
v -0.166721 0.617323 -0.073502
v -0.168170 0.611883 -0.069019
v -0.168192 0.615498 -0.070332
v -0.098292 0.265364 -0.082588
v -0.103748 0.269279 -0.080000
v -0.101704 0.266110 -0.080758
v -0.175593 0.615364 -0.082588
v -0.178892 0.609515 -0.080000
v -0.178372 0.613250 -0.080758
v -0.101540 0.264646 -0.095000
v -0.107673 0.268412 -0.095000
v -0.105430 0.265287 -0.095000
v -0.178840 0.614646 -0.095000
v -0.182817 0.608648 -0.095000
v -0.182099 0.612427 -0.095000
v -0.098292 0.265364 -0.107412
v -0.103748 0.269279 -0.110000
v -0.101704 0.266110 -0.109242
v -0.175593 0.615364 -0.107412
v -0.178892 0.609515 -0.110000
v -0.178372 0.613250 -0.109242
v -0.089420 0.267323 -0.116498
v -0.093026 0.271647 -0.120981
v -0.091523 0.268358 -0.119668
v -0.166721 0.617323 -0.116498
v -0.168170 0.611883 -0.120981
v -0.168192 0.615498 -0.119668
v -0.077300 0.270000 -0.119824
v -0.078379 0.274882 -0.125000
v -0.077616 0.271430 -0.123484
v -0.154601 0.620000 -0.119824
v -0.153523 0.615118 -0.125000
v -0.154285 0.618570 -0.123484
v -0.065181 0.272677 -0.116498
v -0.063732 0.278117 -0.120981
v -0.063709 0.274501 -0.119668
v -0.142481 0.622677 -0.116498
v -0.138876 0.618353 -0.120981
v -0.140378 0.621641 -0.119668
v -0.056308 0.274636 -0.107412
v -0.053009 0.280485 -0.110000
v -0.053529 0.276750 -0.109242
v -0.133609 0.624636 -0.107412
v -0.128153 0.620721 -0.110000
v -0.130198 0.623890 -0.109242
v -0.053061 0.275353 -0.095000
v -0.049085 0.281352 -0.095000
v -0.049803 0.277573 -0.095000
v -0.130361 0.625353 -0.095000
v -0.124229 0.621587 -0.095000
v -0.126472 0.624713 -0.095000
v -0.056308 0.274636 -0.082588
v -0.053009 0.280485 -0.080000
v -0.053529 0.276750 -0.080758
v -0.133609 0.624636 -0.082588
v -0.128153 0.620721 -0.080000
v -0.130198 0.623890 -0.080758
v -0.065181 0.272677 -0.073502
v -0.063732 0.278117 -0.069019
v -0.063709 0.274501 -0.070332
v -0.142481 0.622677 -0.073502
v -0.138876 0.618353 -0.069019
v -0.140378 0.621641 -0.070332
v 0.000000 -0.000000 0.131824
v -0.001288 0.004831 0.137000
v -0.000377 0.001415 0.135484
v -0.077300 0.290000 0.131824
v -0.076013 0.285169 0.137000
v -0.076923 0.288585 0.135484
v -0.017791 -0.004742 0.126890
v -0.021579 -0.000577 0.131373
v -0.019936 -0.003798 0.130060
v -0.095091 0.285258 0.126890
v -0.096304 0.279760 0.131373
v -0.096482 0.283371 0.130060
v -0.030814 -0.008214 0.113412
v -0.036434 -0.004537 0.116000
v -0.034254 -0.007615 0.115242
v -0.108115 0.281786 0.113412
v -0.111159 0.275800 0.116000
v -0.110800 0.279555 0.115242
v -0.035581 -0.009484 0.095000
v -0.041871 -0.005986 0.095000
v -0.039495 -0.009012 0.095000
v -0.112882 0.280516 0.095000
v -0.116596 0.274351 0.095000
v -0.116041 0.278158 0.095000
v -0.030814 -0.008214 0.076588
v -0.036434 -0.004537 0.074000
v -0.034254 -0.007615 0.074758
v -0.108115 0.281786 0.076588
v -0.111159 0.275800 0.074000
v -0.110800 0.279555 0.074758
v -0.017791 -0.004742 0.063110
v -0.021579 -0.000577 0.058627
v -0.019936 -0.003798 0.059940
v -0.095091 0.285258 0.063110
v -0.096304 0.279760 0.058627
v -0.096482 0.283371 0.059940
v 0.000000 -0.000000 0.058176
v -0.001288 0.004831 0.053000
v -0.000377 0.001415 0.054516
v -0.077300 0.290000 0.058176
v -0.076013 0.285169 0.053000
v -0.076923 0.288585 0.054516
v 0.017791 0.004742 0.063110
v 0.019004 0.010240 0.058627
v 0.019182 0.006629 0.059940
v -0.059510 0.294742 0.063110
v -0.055721 0.290577 0.058627
v -0.057364 0.293798 0.059940
v 0.030814 0.008214 0.076588
v 0.033858 0.014200 0.074000
v 0.033500 0.010445 0.074758
v -0.046486 0.298214 0.076588
v -0.040867 0.294537 0.074000
v -0.043046 0.297615 0.074758
v 0.035581 0.009484 0.095000
v 0.039295 0.015649 0.095000
v 0.038741 0.011842 0.095000
v -0.041719 0.299484 0.095000
v -0.035430 0.295986 0.095000
v -0.037805 0.299012 0.095000
v 0.030814 0.008214 0.113412
v 0.033858 0.014200 0.116000
v 0.033500 0.010445 0.115242
v -0.046486 0.298214 0.113412
v -0.040867 0.294537 0.116000
v -0.043046 0.297615 0.115242
v 0.017791 0.004742 0.126890
v 0.019004 0.010240 0.131373
v 0.019182 0.006629 0.130060
v -0.059510 0.294742 0.126890
v -0.055721 0.290577 0.131373
v -0.057364 0.293798 0.130060
v -0.077300 0.270000 0.119824
v -0.078379 0.274882 0.125000
v -0.077616 0.271430 0.123484
v -0.154601 0.620000 0.119824
v -0.153523 0.615118 0.125000
v -0.154285 0.618570 0.123484
v -0.089420 0.267323 0.116498
v -0.093026 0.271647 0.120981
v -0.091523 0.268358 0.119668
v -0.166721 0.617323 0.116498
v -0.168170 0.611883 0.120981
v -0.168192 0.615498 0.119668
v -0.098292 0.265364 0.107412
v -0.103748 0.269279 0.110000
v -0.101704 0.266110 0.109242
v -0.175593 0.615364 0.107412
v -0.178892 0.609515 0.110000
v -0.178372 0.613250 0.109242
v -0.101540 0.264646 0.095000
v -0.107673 0.268412 0.095000
v -0.105430 0.265287 0.095000
v -0.178840 0.614646 0.095000
v -0.182817 0.608648 0.095000
v -0.182099 0.612427 0.095000
v -0.098292 0.265364 0.082588
v -0.103748 0.269279 0.080000
v -0.101704 0.266110 0.080758
v -0.175593 0.615364 0.082588
v -0.178892 0.609515 0.080000
v -0.178372 0.613250 0.080758
v -0.089420 0.267323 0.073502
v -0.093026 0.271647 0.069019
v -0.091523 0.268358 0.070332
v -0.166721 0.617323 0.073502
v -0.168170 0.611883 0.069019
v -0.168192 0.615498 0.070332
v -0.077300 0.270000 0.070176
v -0.078379 0.274882 0.065000
v -0.077616 0.271430 0.066516
v -0.154601 0.620000 0.070176
v -0.153523 0.615118 0.065000
v -0.154285 0.618570 0.066516
v -0.065181 0.272677 0.073502
v -0.063732 0.278117 0.069019
v -0.063709 0.274501 0.070332
v -0.142481 0.622677 0.073502
v -0.138876 0.618353 0.069019
v -0.140378 0.621641 0.070332
v -0.056308 0.274636 0.082588
v -0.053009 0.280485 0.080000
v -0.053529 0.276750 0.080758
v -0.133609 0.624636 0.082588
v -0.128153 0.620721 0.080000
v -0.130198 0.623890 0.080758
v -0.053061 0.275353 0.095000
v -0.049085 0.281352 0.095000
v -0.049803 0.277573 0.095000
v -0.130361 0.625353 0.095000
v -0.124229 0.621587 0.095000
v -0.126472 0.624713 0.095000
v -0.056308 0.274636 0.107412
v -0.053009 0.280485 0.110000
v -0.053529 0.276750 0.109242
v -0.133609 0.624636 0.107412
v -0.128153 0.620721 0.110000
v -0.130198 0.623890 0.109242
v -0.065181 0.272677 0.116498
v -0.063732 0.278117 0.120981
v -0.063709 0.274501 0.119668
v -0.142481 0.622677 0.116498
v -0.138876 0.618353 0.120981
v -0.140378 0.621641 0.119668
v -0.130700 0.617921 0.055000
v -0.128430 0.622376 0.060000
v -0.132885 0.624646 0.055000
v -0.130035 0.619226 0.058536
v -0.132313 0.621114 0.057887
v -0.131580 0.623981 0.058536
v -0.133185 0.620831 0.055000
v -0.122755 0.633514 0.060000
v -0.120485 0.637969 0.055000
v -0.127210 0.635783 0.055000
v -0.121150 0.636664 0.058536
v -0.124017 0.637396 0.057887
v -0.124300 0.638269 0.055000
v -0.125905 0.635119 0.058536
v -0.130700 0.617921 -0.055000
v -0.132885 0.624646 -0.055000
v -0.128430 0.622376 -0.060000
v -0.133185 0.620831 -0.055000
v -0.132313 0.621114 -0.057887
v -0.131580 0.623981 -0.058536
v -0.130035 0.619226 -0.058536
v -0.120485 0.637969 -0.055000
v -0.122755 0.633514 -0.060000
v -0.127210 0.635783 -0.055000
v -0.121150 0.636664 -0.058536
v -0.124017 0.637396 -0.057887
v -0.125905 0.635119 -0.058536
v -0.124300 0.638269 -0.055000
v -0.099515 0.602031 0.055000
v -0.092790 0.604216 0.055000
v -0.097245 0.606486 0.060000
v -0.095700 0.601731 0.055000
v -0.095983 0.602604 0.057887
v -0.094095 0.604881 0.058536
v -0.098850 0.603336 0.058536
v -0.089300 0.622079 0.055000
v -0.091570 0.617624 0.060000
v -0.087115 0.615354 0.055000
v -0.089965 0.620774 0.058536
v -0.087687 0.618885 0.057887
v -0.088420 0.616019 0.058536
v -0.086815 0.619169 0.055000
v -0.099515 0.602031 -0.055000
v -0.097245 0.606486 -0.060000
v -0.092790 0.604216 -0.055000
v -0.098850 0.603336 -0.058536
v -0.095983 0.602604 -0.057887
v -0.094095 0.604881 -0.058536
v -0.095700 0.601731 -0.055000
v -0.089300 0.622079 -0.055000
v -0.087115 0.615354 -0.055000
v -0.091570 0.617624 -0.060000
v -0.086815 0.619169 -0.055000
v -0.087687 0.618885 -0.057887
v -0.088420 0.616019 -0.058536
v -0.089965 0.620774 -0.058536
v -0.139257 0.660000 -0.270000
v -0.134000 0.660000 -0.265000
v -0.135540 0.660000 -0.268536
v -0.139257 0.660000 0.270000
v -0.134000 0.660000 0.265000
v -0.135540 0.660000 0.268536
v -0.141309 0.653686 -0.270000
v -0.137056 0.650595 -0.265000
v -0.138301 0.651501 -0.268536
v -0.141309 0.653686 0.270000
v -0.137056 0.650595 0.265000
v -0.138302 0.651501 0.268536
v -0.146680 0.649783 -0.270000
v -0.145056 0.644783 -0.265000
v -0.145532 0.646248 -0.268536
v -0.146680 0.649783 0.270000
v -0.145056 0.644783 0.265000
v -0.145532 0.646248 0.268536
v -0.153320 0.649783 -0.270000
v -0.154944 0.644783 -0.265000
v -0.154468 0.646248 -0.268536
v -0.153320 0.649783 0.270000
v -0.154944 0.644783 0.265000
v -0.154468 0.646248 0.268536
v -0.158691 0.653686 -0.270000
v -0.162944 0.650595 -0.265000
v -0.161699 0.651501 -0.268536
v -0.158691 0.653686 0.270000
v -0.162944 0.650595 0.265000
v -0.161699 0.651501 0.268536
v -0.160743 0.660000 -0.270000
v -0.166000 0.660000 -0.265000
v -0.164460 0.660000 -0.268536
v -0.160743 0.660000 0.270000
v -0.166000 0.660000 0.265000
v -0.164460 0.660000 0.268536
v -0.158691 0.666314 -0.270000
v -0.162944 0.669405 -0.265000
v -0.161699 0.668499 -0.268536
v -0.158691 0.666314 0.270000
v -0.162944 0.669405 0.265000
v -0.161699 0.668499 0.268536
v -0.153320 0.670217 -0.270000
v -0.154944 0.675217 -0.265000
v -0.154468 0.673752 -0.268536
v -0.153320 0.670217 0.270000
v -0.154944 0.675217 0.265000
v -0.154468 0.673752 0.268536
v -0.146680 0.670217 -0.270000
v -0.145056 0.675217 -0.265000
v -0.145532 0.673752 -0.268536
v -0.146680 0.670217 0.270000
v -0.145056 0.675217 0.265000
v -0.145532 0.673752 0.268536
v -0.141309 0.666314 -0.270000
v -0.137056 0.669405 -0.265000
v -0.138301 0.668500 -0.268536
v -0.141309 0.666314 0.270000
v -0.137056 0.669405 0.265000
v -0.138301 0.668499 0.268536
v -0.164588 0.660000 -0.194400
v -0.168087 0.664619 -0.199400
v -0.168087 0.655381 -0.199400
v -0.166734 0.663266 -0.195864
v -0.168048 0.660000 -0.196513
v -0.169207 0.660000 -0.199400
v -0.166734 0.656734 -0.195864
v -0.164588 0.660000 -0.270000
v -0.168087 0.655381 -0.265000
v -0.168087 0.664619 -0.265000
v -0.167294 0.657294 -0.268536
v -0.168212 0.660000 -0.267887
v -0.168879 0.660000 -0.265000
v -0.167294 0.662706 -0.268536
v -0.160315 0.649685 -0.194400
v -0.166056 0.650477 -0.199400
v -0.159523 0.643944 -0.199400
v -0.164142 0.650477 -0.195864
v -0.162762 0.647238 -0.196513
v -0.163582 0.646418 -0.199400
v -0.159523 0.645858 -0.195864
v -0.160315 0.649685 -0.270000
v -0.159523 0.643944 -0.265000
v -0.166056 0.650477 -0.265000
v -0.159523 0.645858 -0.268536
v -0.162762 0.647238 -0.267887
v -0.163582 0.646418 -0.265000
v -0.164142 0.650477 -0.268536
v -0.150000 0.645412 -0.194400
v -0.154619 0.641913 -0.199400
v -0.145381 0.641913 -0.199400
v -0.153266 0.643266 -0.195864
v -0.150000 0.641952 -0.196513
v -0.150000 0.640793 -0.199400
v -0.146734 0.643266 -0.195864
v -0.150000 0.645412 -0.270000
v -0.145381 0.641913 -0.265000
v -0.154619 0.641913 -0.265000
v -0.146734 0.643266 -0.268536
v -0.150000 0.641952 -0.267887
v -0.150000 0.640793 -0.265000
v -0.153266 0.643266 -0.268536
v -0.139685 0.649685 -0.194400
v -0.140477 0.643944 -0.199400
v -0.133944 0.650477 -0.199400
v -0.139685 0.645858 -0.195864
v -0.137122 0.647122 -0.196513
v -0.136650 0.646650 -0.199400
v -0.135858 0.649685 -0.195864
v -0.139685 0.649685 -0.270000
v -0.133944 0.650477 -0.265000
v -0.140477 0.643944 -0.265000
v -0.135858 0.649685 -0.268535
v -0.137122 0.647122 -0.267887
v -0.136650 0.646650 -0.265000
v -0.139685 0.645858 -0.268536
v -0.135412 0.660000 -0.194400
v -0.131913 0.655381 -0.199400
v -0.131913 0.664619 -0.199400
v -0.133266 0.656734 -0.195864
v -0.131952 0.660000 -0.196513
v -0.130793 0.660000 -0.199400
v -0.133266 0.663266 -0.195864
v -0.135412 0.660000 -0.270000
v -0.131913 0.664619 -0.265000
v -0.131913 0.655381 -0.265000
v -0.133266 0.663266 -0.268536
v -0.131952 0.660000 -0.267887
v -0.130793 0.660000 -0.265000
v -0.133266 0.656734 -0.268536
v -0.139685 0.670315 -0.194400
v -0.133944 0.669523 -0.199400
v -0.140477 0.676056 -0.199400
v -0.135858 0.669523 -0.195864
v -0.137238 0.672762 -0.196513
v -0.136418 0.673582 -0.199400
v -0.140477 0.674142 -0.195864
v -0.139685 0.670315 -0.270000
v -0.140477 0.676056 -0.265000
v -0.133944 0.669523 -0.265000
v -0.140477 0.674142 -0.268536
v -0.137238 0.672762 -0.267887
v -0.136418 0.673582 -0.265000
v -0.135858 0.669523 -0.268536
v -0.150000 0.674588 -0.194400
v -0.145381 0.678087 -0.199400
v -0.154619 0.678087 -0.199400
v -0.146734 0.676734 -0.195864
v -0.150000 0.678048 -0.196513
v -0.150000 0.679207 -0.199400
v -0.153266 0.676734 -0.195864
v -0.150000 0.674588 -0.270000
v -0.154619 0.678087 -0.265000
v -0.145381 0.678087 -0.265000
v -0.153266 0.676734 -0.268536
v -0.150000 0.678048 -0.267887
v -0.150000 0.679207 -0.265000
v -0.146734 0.676734 -0.268536
v -0.160315 0.670315 -0.194400
v -0.159523 0.676056 -0.199400
v -0.166056 0.669523 -0.199400
v -0.160315 0.674142 -0.195864
v -0.162878 0.672878 -0.196513
v -0.163350 0.673350 -0.199400
v -0.164142 0.670315 -0.195864
v -0.160315 0.670315 -0.270000
v -0.166056 0.669523 -0.265000
v -0.159523 0.676056 -0.265000
v -0.164142 0.670315 -0.268535
v -0.162878 0.672878 -0.267887
v -0.163350 0.673350 -0.265000
v -0.160315 0.674142 -0.268536
v -0.135412 0.660000 0.194400
v -0.131913 0.664619 0.199400
v -0.131913 0.655381 0.199400
v -0.132706 0.662706 0.195864
v -0.131788 0.660000 0.196513
v -0.131121 0.660000 0.199400
v -0.132706 0.657294 0.195864
v -0.135412 0.660000 0.270000
v -0.131913 0.655381 0.265000
v -0.131913 0.664619 0.265000
v -0.132706 0.657294 0.268536
v -0.131788 0.660000 0.267887
v -0.131121 0.660000 0.265000
v -0.132706 0.662706 0.268536
v -0.139685 0.649685 0.194400
v -0.133944 0.650477 0.199400
v -0.140477 0.643944 0.199400
v -0.135858 0.649685 0.195864
v -0.137122 0.647122 0.196513
v -0.136650 0.646650 0.199400
v -0.139685 0.645858 0.195864
v -0.139685 0.649685 0.270000
v -0.140477 0.643944 0.265000
v -0.133944 0.650477 0.265000
v -0.139685 0.645858 0.268536
v -0.137122 0.647122 0.267887
v -0.136650 0.646650 0.265000
v -0.135858 0.649685 0.268536
v -0.150000 0.645412 0.194400
v -0.145381 0.641913 0.199400
v -0.154619 0.641913 0.199400
v -0.146734 0.643266 0.195864
v -0.150000 0.641952 0.196513
v -0.150000 0.640793 0.199400
v -0.153266 0.643266 0.195864
v -0.150000 0.645412 0.270000
v -0.154619 0.641913 0.265000
v -0.145381 0.641913 0.265000
v -0.153266 0.643266 0.268536
v -0.150000 0.641952 0.267887
v -0.150000 0.640793 0.265000
v -0.146734 0.643266 0.268536
v -0.160315 0.649685 0.194400
v -0.159523 0.643944 0.199400
v -0.166056 0.650477 0.199400
v -0.159523 0.645858 0.195864
v -0.162762 0.647238 0.196513
v -0.163582 0.646418 0.199400
v -0.164142 0.650477 0.195864
v -0.160315 0.649685 0.270000
v -0.166056 0.650477 0.265000
v -0.159523 0.643944 0.265000
v -0.164142 0.650477 0.268535
v -0.162762 0.647238 0.267887
v -0.163582 0.646418 0.265000
v -0.159523 0.645858 0.268535
v -0.164588 0.660000 0.194400
v -0.168087 0.655381 0.199400
v -0.168087 0.664619 0.199400
v -0.166734 0.656734 0.195864
v -0.168048 0.660000 0.196513
v -0.169207 0.660000 0.199400
v -0.166734 0.663266 0.195864
v -0.164588 0.660000 0.270000
v -0.168087 0.664619 0.265000
v -0.168087 0.655381 0.265000
v -0.167294 0.662706 0.268536
v -0.168212 0.660000 0.267887
v -0.168879 0.660000 0.265000
v -0.167294 0.657294 0.268535
v -0.160315 0.670315 0.194400
v -0.166056 0.669523 0.199400
v -0.159523 0.676056 0.199400
v -0.164142 0.670315 0.195864
v -0.162878 0.672878 0.196513
v -0.163350 0.673350 0.199400
v -0.160315 0.674142 0.195864
v -0.160315 0.670315 0.270000
v -0.159523 0.676056 0.265000
v -0.166056 0.669523 0.265000
v -0.160315 0.674142 0.268536
v -0.162878 0.672878 0.267887
v -0.163350 0.673350 0.265000
v -0.164142 0.670315 0.268536
v -0.150000 0.674588 0.194400
v -0.154619 0.678087 0.199400
v -0.145381 0.678087 0.199400
v -0.152706 0.677294 0.195864
v -0.150000 0.678212 0.196513
v -0.150000 0.678879 0.199400
v -0.147294 0.677294 0.195864
v -0.150000 0.674588 0.270000
v -0.145381 0.678087 0.265000
v -0.154619 0.678087 0.265000
v -0.146734 0.676734 0.268536
v -0.150000 0.678048 0.267887
v -0.150000 0.679207 0.265000
v -0.153266 0.676734 0.268536
v -0.139685 0.670315 0.194400
v -0.140477 0.676056 0.199400
v -0.133944 0.669523 0.199400
v -0.139685 0.674142 0.195864
v -0.137122 0.672878 0.196513
v -0.136650 0.673350 0.199400
v -0.135858 0.670315 0.195864
v -0.139685 0.670315 0.270000
v -0.133944 0.669523 0.265000
v -0.140477 0.676056 0.265000
v -0.135858 0.669523 0.268536
v -0.137238 0.672762 0.267887
v -0.136418 0.673582 0.265000
v -0.140477 0.674142 0.268536
v 0.394689 0.128242 0.100000
v 0.392881 0.132912 0.105000
v 0.388121 0.131357 0.100000
v 0.394160 0.129612 0.103536
v 0.391178 0.129322 0.102887
v 0.389516 0.131815 0.103536
v 0.390794 0.128512 0.100000
v 0.388121 0.131357 -0.100000
v 0.392881 0.132912 -0.105000
v 0.394688 0.128242 -0.100000
v 0.389516 0.131815 -0.103536
v 0.391178 0.129322 -0.102887
v 0.394160 0.129612 -0.103536
v 0.390794 0.128512 -0.100000
v 0.419495 0.141560 -0.105000
v 0.424261 0.143100 -0.100000
v 0.421318 0.136894 -0.100000
v 0.422863 0.142650 -0.103536
v 0.423295 0.139757 -0.102887
v 0.424152 0.139351 -0.100000
v 0.420782 0.138262 -0.103536
v 0.421318 0.136894 0.100000
v 0.424261 0.143100 0.100000
v 0.419495 0.141560 0.105000
v 0.424152 0.139351 0.100000
v 0.423295 0.139757 0.102887
v 0.422863 0.142650 0.103536
v 0.420782 0.138262 0.103536
v 0.377641 0.172101 0.105000
v 0.373084 0.170024 0.100000
v 0.374419 0.170632 0.103536
v 0.373084 0.170024 -0.100000
v 0.377641 0.172101 -0.105000
v 0.374419 0.170632 -0.103536
v 0.403106 0.183706 -0.105000
v 0.407663 0.185783 -0.100000
v 0.406328 0.185174 -0.103536
v 0.407663 0.185783 0.100000
v 0.403106 0.183706 0.105000
v 0.406328 0.185174 0.103536
v 0.355731 0.213745 0.105000
v 0.351439 0.211166 0.100000
v 0.352696 0.211921 0.103536
v 0.351439 0.211166 -0.100000
v 0.355731 0.213745 -0.105000
v 0.352696 0.211921 -0.103536
v 0.379718 0.228158 -0.105000
v 0.384011 0.230737 -0.100000
v 0.382754 0.229982 -0.103536
v 0.384011 0.230737 0.100000
v 0.379718 0.228158 0.105000
v 0.382754 0.229982 0.103536
v 0.329248 0.252641 0.105000
v 0.325275 0.249592 0.100000
v 0.326439 0.250485 0.103536
v 0.325275 0.249592 -0.100000
v 0.329248 0.252641 -0.105000
v 0.326439 0.250485 -0.103536
v 0.351449 0.269676 -0.105000
v 0.355422 0.272725 -0.100000
v 0.354259 0.271832 -0.103536
v 0.355422 0.272725 0.100000
v 0.351449 0.269676 0.105000
v 0.354259 0.271832 0.103536
v 0.294929 0.284810 0.100000
v 0.298532 0.288289 0.105000
v 0.295984 0.285829 0.103536
v 0.294929 0.284810 -0.100000
v 0.298532 0.288289 -0.105000
v 0.295984 0.285829 -0.103536
v 0.318662 0.307728 -0.105000
v 0.322264 0.311207 -0.100000
v 0.321209 0.310188 -0.103536
v 0.322264 0.311207 0.100000
v 0.318662 0.307728 0.105000
v 0.321209 0.310188 0.103536
v 0.263978 0.320230 0.105000
v 0.260792 0.316366 0.100000
v 0.261725 0.317498 0.103536
v 0.263978 0.320230 -0.105000
v 0.260792 0.316366 -0.100000
v 0.261725 0.317498 -0.103536
v 0.281778 0.341823 -0.105000
v 0.284963 0.345688 -0.100000
v 0.284030 0.344556 -0.103536
v 0.284963 0.345688 0.100000
v 0.281778 0.341823 0.105000
v 0.284030 0.344556 0.103536
v 0.226030 0.348055 0.105000
v 0.223302 0.343855 0.100000
v 0.224101 0.345085 0.103536
v 0.223302 0.343855 -0.100000
v 0.226030 0.348055 -0.105000
v 0.224101 0.345085 -0.103536
v 0.241271 0.371524 -0.105000
v 0.243998 0.375724 -0.100000
v 0.243199 0.374494 -0.103536
v 0.243998 0.375724 0.100000
v 0.241271 0.371524 0.105000
v 0.243199 0.374494 0.103536
v 0.185176 0.371405 0.105000
v 0.182941 0.366923 0.100000
v 0.183596 0.368236 0.103536
v 0.182941 0.366923 -0.100000
v 0.185176 0.371405 -0.105000
v 0.183596 0.368236 -0.103536
v 0.197662 0.396449 -0.105000
v 0.199897 0.400931 -0.100000
v 0.199242 0.399618 -0.103536
v 0.199897 0.400931 0.100000
v 0.197662 0.396449 0.105000
v 0.199242 0.399618 0.103536
v 0.141941 0.389980 0.105000
v 0.140228 0.385274 0.100000
v 0.140730 0.386652 0.103536
v 0.140228 0.385274 -0.100000
v 0.141941 0.389980 -0.105000
v 0.140730 0.386652 -0.103536
v 0.151512 0.416276 -0.105000
v 0.153225 0.420982 -0.100000
v 0.152723 0.419604 -0.103536
v 0.153225 0.420982 0.100000
v 0.151512 0.416276 0.105000
v 0.152723 0.419604 0.103536
v 0.095713 0.398672 0.100000
v 0.096882 0.403541 0.105000
v 0.096055 0.400098 0.103536
v 0.095713 0.398672 -0.100000
v 0.096882 0.403541 -0.105000
v 0.096055 0.400098 -0.103536
v 0.104584 0.435622 -0.100000
v 0.103414 0.430752 -0.105000
v 0.104241 0.434195 -0.103536
v 0.104584 0.435622 0.100000
v 0.103414 0.430752 0.105000
v 0.104241 0.434195 0.103536
v 0.050577 0.411915 0.105000
v 0.049966 0.406944 0.100000
v 0.050145 0.408400 0.103536
v 0.050577 0.411915 -0.105000
v 0.049966 0.406944 -0.100000
v 0.050145 0.408400 -0.103536
v 0.053987 0.439690 -0.105000
v 0.054597 0.444661 -0.100000
v 0.054419 0.443205 -0.103536
v 0.054597 0.444661 0.100000
v 0.053987 0.439690 0.105000
v 0.054419 0.443205 0.103536
v 0.003622 0.414992 0.105000
v 0.003578 0.409984 0.100000
v 0.003591 0.411451 0.103536
v 0.003622 0.414992 -0.105000
v 0.003578 0.409984 -0.100000
v 0.003591 0.411451 -0.103536
v 0.003866 0.442975 -0.105000
v 0.003909 0.447983 -0.100000
v 0.003897 0.446516 -0.103536
v 0.003909 0.447983 0.100000
v 0.003866 0.442975 0.105000
v 0.003897 0.446516 0.103536
v -0.038378 0.412975 0.105000
v -0.043379 0.412727 0.100000
v -0.037862 0.407994 0.100000
v -0.041913 0.412801 0.103536
v -0.040965 0.409959 0.102887
v -0.041548 0.409279 0.100000
v -0.038012 0.409454 0.103536
v -0.043379 0.412727 -0.100000
v -0.038378 0.412975 -0.105000
v -0.037862 0.407994 -0.100000
v -0.041913 0.412801 -0.103536
v -0.040965 0.409959 -0.102887
v -0.038012 0.409454 -0.103536
v -0.041548 0.409279 -0.100000
v -0.041834 0.445786 -0.100000
v -0.041303 0.440805 -0.105000
v -0.046306 0.440573 -0.100000
v -0.041677 0.444325 -0.103536
v -0.044495 0.443544 -0.102887
v -0.044839 0.440640 -0.103536
v -0.045215 0.444161 -0.100000
v -0.041834 0.445786 0.100000
v -0.046306 0.440573 0.100000
v -0.041303 0.440805 0.105000
v -0.045215 0.444161 0.100000
v -0.044495 0.443544 0.102887
v -0.044839 0.440640 0.103536
v -0.041677 0.444325 0.103536
vn 0.4237 0.3147 0.8494
vn 0.0502 -0.1884 0.9808
vn 0.5241 -0.0620 0.8494
vn -0.7705 -0.4071 0.4904
vn -0.9979 -0.0643 -0.0000
vn -0.8975 -0.4410 -0.0000
vn -0.7705 -0.4071 -0.4904
vn -0.8710 -0.0304 -0.4904
vn -0.4237 -0.3147 -0.8494
vn -0.0502 0.1884 -0.9808
vn 0.0502 -0.1884 -0.9808
vn 0.5241 -0.0620 -0.8494
vn 0.7706 0.4071 -0.4904
vn 0.8710 0.0304 -0.4904
vn 0.9979 0.0643 -0.0000
vn 0.8975 0.4410 -0.0000
vn 0.8710 0.0304 0.4904
vn -0.4237 -0.3147 0.8494
vn -0.8710 -0.0304 0.4904
vn -0.0036 -1.0000 -0.0000
vn 0.3174 -0.9291 -0.1898
vn 0.3174 -0.9291 0.1898
vn -0.0679 0.9917 0.1096
vn -0.2513 0.9428 -0.2192
vn -0.4347 0.8939 0.1096
vn -0.0502 0.1884 0.9808
vn 0.4368 0.2961 0.8494
vn 0.0420 -0.1903 0.9808
vn 0.5209 -0.0846 0.8494
vn -0.8715 0.0072 0.4904
vn -0.9157 -0.4019 -0.0000
vn -0.7874 -0.3735 0.4904
vn -0.9998 -0.0212 -0.0000
vn -0.7874 -0.3735 -0.4904
vn -0.8715 0.0072 -0.4904
vn -0.4368 -0.2961 -0.8494
vn -0.5209 0.0846 -0.8494
vn 0.0420 -0.1903 -0.9808
vn -0.0420 0.1903 -0.9808
vn 0.5209 -0.0846 -0.8494
vn 0.4368 0.2961 -0.8494
vn 0.8715 -0.0072 -0.4904
vn 0.9157 0.4019 -0.0000
vn 0.9998 0.0212 -0.0000
vn 0.8715 -0.0072 0.4904
vn -0.5209 0.0846 0.8494
vn -0.4368 -0.2961 0.8494
vn 0.0395 -0.9992 -0.0000
vn 0.3572 -0.9145 -0.1898
vn 0.3572 -0.9146 0.1898
vn -0.0251 0.9937 0.1096
vn -0.2104 0.9527 -0.2192
vn -0.3958 0.9118 0.1096
vn -0.0420 0.1903 0.9808
vn 0.4237 0.3147 -0.8494
vn -0.5241 0.0620 0.8494
vn 0.7874 0.3735 -0.4904
vn 0.7874 0.3735 0.4904
vn -0.4540 -0.8910 -0.0000
vn -0.3957 0.9118 0.1096
vn -0.0000 -0.0000 1.0000
vn 0.8910 -0.4540 -0.0000
vn -0.0686 -0.2111 -0.9750
vn -0.0686 0.2111 -0.9751
vn 0.1796 0.1305 -0.9750
vn 0.4540 0.8910 -0.0000
vn -0.8910 0.4540 -0.0000
vn -0.0000 -0.0000 -1.0000
vn 0.7933 0.5763 0.1964
vn 0.9805 -0.0000 -0.1964
vn 0.7933 0.5763 -0.1964
vn 0.3030 -0.9325 0.1963
vn -0.3030 -0.9325 -0.1964
vn 0.3030 -0.9325 -0.1963
vn -0.3030 -0.9325 0.1963
vn -0.7933 -0.5763 -0.1963
vn -0.7933 -0.5763 0.1964
vn -0.9805 -0.0000 -0.1964
vn -0.9805 -0.0000 0.1964
vn -0.7933 0.5763 -0.1964
vn -0.7933 0.5763 0.1964
vn -0.3030 0.9325 -0.1964
vn -0.3030 0.9325 0.1964
vn 0.3030 0.9325 -0.1964
vn 0.3030 0.9325 0.1964
vn 0.7933 -0.5763 0.1964
vn 0.7933 -0.5763 -0.1964
vn 0.1854 -0.1854 0.9650
vn 0.2021 0.2021 0.9583
vn -0.1854 0.1854 0.9650
vn 0.0686 0.2111 0.9750
vn -0.1796 -0.1305 0.9750
vn 0.0686 -0.2111 0.9751
vn 0.9805 -0.0000 0.1964
vn -0.8679 0.4639 -0.1776
vn -0.9252 0.3121 0.2159
vn -0.8700 0.4561 0.1873
vn 0.3128 -0.9247 -0.2171
vn 0.4560 -0.8700 0.1873
vn 0.3128 -0.9247 0.2171
vn 0.8700 -0.4561 -0.1873
vn 0.9247 -0.3128 0.2171
vn 0.8700 -0.4561 0.1873
vn 0.9247 0.3128 -0.2171
vn 0.8750 0.4326 0.2171
vn 0.9247 0.3128 0.2171
vn 0.4326 0.8750 -0.2171
vn 0.3128 0.9247 0.2171
vn 0.4326 0.8750 0.2171
vn -0.3128 0.9247 -0.2171
vn -0.4561 0.8700 0.1873
vn -0.3128 0.9247 0.2171
vn -0.4326 -0.8750 -0.2171
vn -0.3128 -0.9247 0.2171
vn -0.4326 -0.8750 0.2171
vn -0.2021 -0.2021 -0.9583
vn -0.1868 0.1834 -0.9651
vn 0.1849 0.1849 -0.9652
vn -0.0000 0.2858 -0.9583
vn 0.2858 -0.0000 -0.9583
vn -0.0000 -0.2858 -0.9583
vn -0.9377 -0.2927 -0.1873
vn -0.8750 -0.4326 0.2171
vn -0.9252 -0.3121 0.2159
vn 0.8749 0.4335 0.2159
vn 0.9417 0.2857 -0.1776
vn 0.8679 0.4639 -0.1776
vn -0.3128 -0.9247 -0.2171
vn -0.9252 -0.3121 -0.2159
vn -0.8750 -0.4326 -0.2171
vn -0.9417 0.2857 0.1776
vn -0.8700 0.4561 -0.1873
vn -0.9252 0.3121 -0.2159
vn -0.2857 0.9417 -0.1776
vn -0.4639 0.8679 -0.1776
vn 0.3121 0.9252 0.2159
vn 0.4639 0.8679 -0.1776
vn 0.2857 0.9417 -0.1776
vn 0.4561 -0.8700 0.1873
vn 0.4561 -0.8700 -0.1873
vn 0.3090 -0.9511 -0.0000
vn -0.0000 0.2858 0.9583
vn -0.2618 -0.0024 0.9651
vn -0.0000 -0.2858 0.9583
vn 0.9417 -0.2857 -0.1776
vn 0.8679 -0.4639 0.1776
vn 0.8679 -0.4639 -0.1776
vn -0.8850 -0.4656 -0.0000
vn 0.9320 0.3624 -0.0000
vn -0.8266 -0.5628 -0.0000
vn 0.8850 0.4656 -0.0000
vn -0.7576 -0.6528 -0.0000
vn 0.8266 0.5628 -0.0000
vn -0.6788 -0.7343 -0.0000
vn 0.7576 0.6528 -0.0000
vn -0.5913 -0.8064 -0.0000
vn 0.6788 0.7343 -0.0000
vn -0.4962 -0.8682 -0.0000
vn 0.5913 0.8064 -0.0000
vn -0.3947 -0.9188 -0.0000
vn 0.4962 0.8682 -0.0000
vn -0.2882 -0.9576 -0.0000
vn 0.3947 0.9188 -0.0000
vn -0.1779 -0.9840 -0.0000
vn 0.2882 0.9576 -0.0000
vn -0.0654 -0.9979 -0.0000
vn 0.1779 0.9840 -0.0000
vn 0.0480 -0.9988 -0.0000
vn 0.0654 0.9979 -0.0000
vn -0.9945 -0.1045 -0.0000
vn -0.0480 0.9988 -0.0000
vn -0.9320 -0.3624 -0.0000
vn -0.7296 -0.6231 0.2818
vn -0.4177 -0.1992 0.8865
vn -0.9177 0.1514 0.3672
vn -0.1993 0.4177 0.8865
vn 0.1514 0.9178 0.3672
vn -0.6231 0.7296 0.2818
vn -0.6535 -0.6619 -0.3672
vn -0.9565 0.0753 -0.2817
vn -0.4551 -0.0843 -0.8864
vn 0.0753 0.9565 -0.2817
vn -0.0844 0.4551 -0.8865
vn -0.6619 0.6535 -0.3672
vn -0.1514 -0.9178 0.3672
vn 0.6232 -0.7296 0.2817
vn 0.1993 -0.4177 0.8865
vn 0.7296 0.6231 0.2818
vn 0.4177 0.1992 0.8865
vn 0.9177 -0.1514 0.3672
vn -0.0753 -0.9565 -0.2817
vn 0.0844 -0.4551 -0.8865
vn 0.6619 -0.6535 -0.3672
vn 0.6535 0.6619 -0.3672
vn 0.9565 -0.0753 -0.2817
vn 0.4551 0.0843 -0.8865
vn -0.2858 -0.0000 0.9583
vn -0.7967 -0.0000 0.6044
vn -0.6667 -0.2173 0.7129
vn -0.6679 0.2128 0.7132
vn -0.9832 -0.0000 0.1823
vn -0.2618 -0.0024 -0.9651
vn -0.8548 -0.0000 -0.5190
vn -0.7127 0.1815 -0.6776
vn -0.9909 -0.0000 -0.1347
vn -0.7080 -0.1935 -0.6792
vn -0.9417 0.2857 -0.1776
vn -0.2021 -0.2021 0.9583
vn -0.5633 -0.5634 0.6044
vn -0.3177 -0.6251 0.7129
vn -0.6251 -0.3178 0.7130
vn -0.6949 -0.6949 0.1847
vn -0.5633 -0.5634 -0.6044
vn -0.6228 -0.3218 -0.7132
vn -0.3177 -0.6251 -0.7130
vn -0.6949 -0.6949 -0.1847
vn -0.0000 -0.7967 0.6044
vn 0.2128 -0.6679 0.7132
vn -0.2173 -0.6667 0.7130
vn -0.0000 -0.9828 0.1848
vn -0.0000 -0.7967 -0.6044
vn -0.2173 -0.6667 -0.7129
vn 0.2128 -0.6679 -0.7132
vn -0.0000 -0.9828 -0.1848
vn 0.6044 -0.6044 0.5190
vn 0.6374 -0.3638 0.6792
vn 0.7007 -0.7007 0.1346
vn 0.3638 -0.6374 0.6792
vn 0.1854 -0.1854 -0.9650
vn 0.6044 -0.6044 -0.5190
vn 0.3638 -0.6374 -0.6792
vn 0.7007 -0.7007 -0.1346
vn 0.6374 -0.3638 -0.6792
vn 0.2858 -0.0000 0.9583
vn 0.7967 -0.0000 0.6044
vn 0.6667 0.2173 0.7129
vn 0.6679 -0.2128 0.7132
vn 0.9828 -0.0000 0.1848
vn 0.7967 -0.0000 -0.6044
vn 0.6679 -0.2128 -0.7132
vn 0.6667 0.2173 -0.7130
vn 0.9247 -0.3128 -0.2171
vn 0.9828 -0.0000 -0.1848
vn 0.5634 0.5633 0.6044
vn 0.3177 0.6251 0.7129
vn 0.6251 0.3178 0.7129
vn 0.6949 0.6949 0.1847
vn 0.2021 0.2021 -0.9583
vn 0.5634 0.5633 -0.6044
vn 0.6251 0.3177 -0.7130
vn 0.3177 0.6251 -0.7129
vn 0.8750 0.4326 -0.2171
vn 0.6949 0.6949 -0.1847
vn -0.0000 0.7967 0.6044
vn -0.2128 0.6679 0.7132
vn 0.2173 0.6667 0.7129
vn -0.0000 0.9828 0.1847
vn -0.0000 0.7967 -0.6044
vn 0.2173 0.6667 -0.7130
vn -0.2128 0.6679 -0.7132
vn 0.3128 0.9247 -0.2171
vn -0.0000 0.9828 -0.1847
vn -0.6044 0.6044 0.5190
vn -0.6374 0.3638 0.6792
vn -0.7007 0.7007 0.1346
vn -0.3638 0.6374 0.6792
vn -0.1834 0.1868 -0.9651
vn -0.6044 0.6044 -0.5190
vn -0.3638 0.6374 -0.6792
vn -0.7007 0.7007 -0.1346
vn -0.6323 0.3756 -0.6776
vn -0.4561 0.8700 -0.1873
vn 0.2614 -0.0000 -0.9652
vn 0.8548 -0.0000 -0.5190
vn 0.7127 -0.1815 -0.6776
vn 0.9909 -0.0000 -0.1346
vn 0.7127 0.1815 -0.6776
vn 0.2618 0.0024 0.9651
vn 0.8548 -0.0000 0.5190
vn 0.7080 0.1935 0.6792
vn 0.9909 -0.0000 0.1346
vn 0.7127 -0.1815 0.6776
vn 0.9417 -0.2857 0.1776
vn 0.9377 0.2927 0.1873
vn 0.1834 -0.1868 -0.9651
vn 0.6323 -0.3756 -0.6776
vn 0.1834 -0.1868 0.9651
vn 0.6323 -0.3756 0.6776
vn -0.2173 -0.6667 0.7129
vn -0.6251 -0.3178 -0.7130
vn -0.3178 -0.6251 0.7129
vn -0.6228 -0.3218 0.7132
vn -0.2858 -0.0000 -0.9583
vn -0.7967 -0.0000 -0.6044
vn -0.6679 0.2128 -0.7132
vn -0.6667 -0.2173 -0.7130
vn -0.9832 -0.0000 -0.1823
vn -0.8548 -0.0000 0.5190
vn -0.7080 -0.1935 0.6792
vn -0.9909 -0.0000 0.1347
vn -0.7127 0.1815 0.6776
vn -0.9377 -0.2927 0.1873
vn -0.3756 0.6323 -0.6776
vn -0.6374 0.3638 -0.6792
vn -0.1834 0.1868 0.9651
vn -0.6323 0.3756 0.6776
vn -0.8679 0.4639 0.1776
vn -0.0000 0.2614 -0.9652
vn -0.0000 0.8548 -0.5189
vn 0.1815 0.7127 -0.6776
vn -0.0000 0.9909 -0.1347
vn -0.1815 0.7127 -0.6776
vn -0.3122 0.9252 0.2159
vn -0.0000 0.9832 0.1823
vn 0.6044 0.6044 -0.5189
vn 0.6323 0.3756 -0.6776
vn 0.7007 0.7007 -0.1347
vn 0.3756 0.6323 -0.6776
vn 0.5633 0.5634 0.6044
vn 0.3178 0.6251 0.7129
vn 0.6228 0.3218 0.7132
vn 0.4335 0.8749 0.2159
vn 0.6953 0.6953 0.1823
vn -0.0665 -0.9584 0.2775
vn -0.1481 -0.4485 0.8814
vn -0.7290 -0.5805 0.3628
vn -0.7001 -0.6579 -0.2775
vn -0.2536 -0.3985 -0.8814
vn 0.0118 -0.9318 -0.3628
vn 0.3781 -0.2485 -0.8918
vn 0.9261 0.0547 -0.3732
vn 0.6272 -0.7236 -0.2880
vn 0.5436 -0.7518 0.3732
vn 0.9572 -0.0279 0.2879
vn 0.4317 -0.1355 0.8918
vn -0.2609 -0.3938 0.8814
vn -0.8560 -0.3682 0.3628
vn -0.3163 -0.9072 0.2775
vn -0.8485 -0.4506 -0.2775
vn -0.3495 -0.3177 -0.8814
vn -0.2338 -0.9021 -0.3628
vn -0.4148 0.8631 -0.2880
vn -0.2994 0.3392 -0.8918
vn -0.9079 0.1908 -0.3732
vn -0.3267 0.8683 0.3732
vn -0.9162 0.2787 0.2880
vn -0.3808 0.2443 0.8918
vn 0.1765 -0.6623 0.7282
vn -0.1753 -0.7560 0.6306
vn 0.2513 -0.9428 0.2192
vn -0.5283 0.5685 0.6306
vn -0.2513 0.9428 0.2192
vn -0.3572 0.9146 0.1898
vn 0.0679 -0.9917 0.1096
vn 0.1454 -0.9710 0.1898
vn -0.7859 0.4998 0.3641
vn -0.5271 -0.8498 -0.0000
vn -0.4328 -0.8247 0.3641
vn -0.8802 0.4747 -0.0000
vn -0.4631 0.8863 -0.0000
vn -0.4328 -0.8247 -0.3641
vn -0.7859 0.4998 -0.3641
vn -0.4347 0.8939 -0.1096
vn -0.1753 -0.7560 -0.6306
vn 0.0679 -0.9917 -0.1096
vn -0.5283 0.5685 -0.6306
vn -0.5241 0.0620 -0.8494
vn -0.3572 0.9145 -0.1898
vn 0.1765 -0.6623 -0.7282
vn 0.2513 -0.9428 -0.2192
vn 0.1454 -0.9710 -0.1898
vn -0.1765 0.6623 -0.7282
vn 0.5283 -0.5685 -0.6306
vn 0.1753 0.7560 -0.6306
vn -0.1454 0.9710 -0.1898
vn 0.7859 -0.4998 -0.3641
vn 0.3572 -0.9146 -0.1898
vn 0.4328 0.8247 -0.3641
vn -0.0679 0.9917 -0.1096
vn 0.4631 -0.8863 -0.0000
vn 0.4347 -0.8939 -0.1096
vn 0.5271 0.8498 -0.0000
vn -0.0395 0.9992 -0.0000
vn 0.7859 -0.4998 0.3641
vn 0.8802 -0.4747 -0.0000
vn 0.4328 0.8247 0.3641
vn 0.7705 0.4071 0.4904
vn 0.5283 -0.5685 0.6306
vn 0.4347 -0.8939 0.1096
vn 0.1753 0.7560 0.6306
vn -0.1454 0.9710 0.1898
vn -0.1765 0.6623 0.7282
vn 0.1478 -0.6692 0.7282
vn -0.2077 -0.7478 0.6306
vn 0.2104 -0.9527 0.2191
vn -0.1478 0.6692 0.7282
vn -0.5033 0.5907 0.6306
vn -0.3174 0.9291 0.1898
vn 0.0251 -0.9937 0.1096
vn 0.1034 -0.9764 0.1898
vn -0.7636 0.5332 0.3641
vn -0.4680 -0.8052 0.3641
vn -0.5632 -0.8263 -0.0000
vn -0.8589 0.5122 -0.0000
vn -0.4244 0.9055 -0.0000
vn -0.4680 -0.8052 -0.3641
vn 0.0251 -0.9937 -0.1096
vn -0.7636 0.5332 -0.3641
vn -0.3958 0.9118 -0.1096
vn -0.2077 -0.7478 -0.6306
vn -0.5033 0.5907 -0.6306
vn -0.3174 0.9291 -0.1898
vn 0.2104 -0.9527 -0.2191
vn 0.1034 -0.9764 -0.1898
vn -0.1478 0.6692 -0.7282
vn 0.1478 -0.6692 -0.7282
vn 0.2077 0.7478 -0.6306
vn -0.1034 0.9764 -0.1898
vn 0.5033 -0.5907 -0.6306
vn 0.7636 -0.5332 -0.3641
vn 0.4680 0.8053 -0.3641
vn -0.0251 0.9937 -0.1096
vn 0.8589 -0.5122 -0.0000
vn 0.3957 -0.9118 -0.1096
vn 0.5632 0.8263 -0.0000
vn 0.0036 1.0000 -0.0000
vn 0.3957 -0.9118 0.1096
vn 0.4244 -0.9055 -0.0000
vn 0.4680 0.8052 0.3641
vn 0.7636 -0.5332 0.3641
vn 0.2077 0.7478 0.6306
vn -0.1034 0.9764 0.1898
vn 0.5033 -0.5907 0.6306
vn -0.2104 0.9527 0.2192
vn 0.1765 -0.6622 0.7282
vn -0.1765 0.6622 0.7282
vn -0.3572 0.9146 -0.1898
vn 0.1765 -0.6622 -0.7282
vn 0.7705 0.4071 -0.4904
vn 0.8801 -0.4747 -0.0000
vn -0.3957 0.9118 -0.1096
vn -0.7604 -0.6495 -0.0000
vn -0.9969 0.0785 -0.0000
vn -0.3410 0.1737 0.9239
vn -0.8232 0.4194 0.3827
vn 0.0784 0.9969 -0.0000
vn -0.6495 0.7604 -0.0000
vn -0.3410 0.1737 -0.9239
vn -0.8232 0.4194 -0.3827
vn -0.4194 -0.8232 -0.3827
vn -0.1737 -0.3410 -0.9239
vn 0.4194 0.8232 -0.3827
vn 0.1737 0.3410 -0.9239
vn 0.8232 -0.4194 -0.3827
vn 0.3410 -0.1737 -0.9239
vn -0.0784 -0.9969 -0.0000
vn 0.6495 -0.7604 -0.0000
vn 0.7604 0.6495 -0.0000
vn 0.9969 -0.0784 -0.0000
vn 0.3410 -0.1737 0.9239
vn 0.8232 -0.4194 0.3827
vn -0.4194 -0.8232 0.3827
vn -0.1737 -0.3410 0.9239
vn 0.4194 0.8232 0.3827
vn 0.1737 0.3410 0.9239
vn 0.5905 -0.4290 -0.6835
vn 0.7299 -0.0000 -0.6835
vn 0.2220 -0.0000 -0.9751
vn 0.5905 -0.4290 0.6835
vn 0.7299 -0.0000 0.6835
vn 0.1796 -0.1305 0.9750
vn 0.0686 -0.2111 -0.9751
vn 0.1796 -0.1305 -0.9751
vn 0.2256 -0.6942 0.6835
vn 0.2256 -0.6942 -0.6835
vn -0.2256 -0.6942 0.6835
vn -0.0686 -0.2111 0.9751
vn -0.5905 -0.4290 -0.6835
vn -0.2256 -0.6942 -0.6835
vn -0.1796 -0.1305 -0.9750
vn -0.5905 -0.4290 0.6835
vn -0.7299 -0.0000 -0.6835
vn -0.2220 -0.0000 -0.9751
vn -0.7299 -0.0000 0.6835
vn -0.2220 -0.0000 0.9750
vn -0.5905 0.4290 -0.6835
vn -0.5905 0.4290 0.6835
vn -0.1796 0.1305 0.9750
vn -0.2256 0.6942 -0.6835
vn -0.1796 0.1305 -0.9750
vn -0.2256 0.6942 0.6835
vn -0.0686 0.2111 0.9750
vn 0.0686 0.2111 -0.9750
vn 0.2256 0.6942 0.6835
vn 0.5905 0.4290 -0.6835
vn 0.2256 0.6942 -0.6835
vn 0.5905 0.4290 0.6835
vn 0.1796 0.1305 0.9750
vn 0.2220 -0.0000 0.9751
vn -0.7287 -0.6848 -0.0000
vn -0.0693 -0.9976 -0.0000
vn 0.1183 -0.3641 -0.9238
vn 0.2854 -0.8785 -0.3831
vn 0.9996 -0.0291 -0.0000
vn 0.6550 -0.7556 -0.0000
vn -0.3568 -0.1388 0.9238
vn -0.8609 -0.3348 0.3831
vn 0.3568 0.1387 -0.9238
vn 0.8609 0.3348 -0.3831
vn 0.8609 0.3348 0.3831
vn 0.3568 0.1387 0.9238
vn -0.3387 -0.1782 0.9239
vn -0.8176 -0.4302 0.3827
vn 0.3387 0.1782 -0.9239
vn 0.8176 0.4302 -0.3827
vn 0.8176 0.4302 0.3827
vn 0.3387 0.1782 0.9239
vn -0.3163 -0.2154 0.9239
vn -0.7637 -0.5200 0.3827
vn 0.3163 0.2154 -0.9239
vn 0.7637 0.5200 -0.3827
vn 0.7637 0.5200 0.3827
vn 0.3163 0.2154 0.9239
vn 0.2854 -0.8785 0.3831
vn 0.1183 -0.3641 0.9238
vn 0.2899 0.2498 -0.9239
vn 0.6999 0.6031 -0.3827
vn 0.6999 0.6031 0.3827
vn 0.2899 0.2498 0.9239
vn -0.2598 -0.2810 0.9239
vn -0.6271 -0.6784 0.3827
vn 0.2598 0.2810 -0.9239
vn 0.6271 0.6784 -0.3827
vn 0.6271 0.6784 0.3827
vn 0.2598 0.2810 0.9239
vn -0.2263 -0.3086 0.9239
vn -0.5463 -0.7451 0.3827
vn 0.2263 0.3086 -0.9239
vn 0.5463 0.7451 -0.3827
vn 0.5463 0.7451 0.3827
vn 0.2263 0.3086 0.9239
vn -0.1899 -0.3322 0.9239
vn -0.4584 -0.8021 0.3827
vn 0.1899 0.3322 -0.9239
vn 0.4584 0.8021 -0.3827
vn 0.4584 0.8021 0.3827
vn 0.1899 0.3322 0.9239
vn -0.1511 -0.3516 0.9239
vn -0.3647 -0.8489 0.3827
vn -0.8609 -0.3348 -0.3831
vn -0.3568 -0.1388 -0.9238
vn 0.3647 0.8489 0.3827
vn 0.1511 0.3516 0.9239
vn -0.5463 -0.7451 -0.3827
vn -0.2263 -0.3086 -0.9239
vn 0.2663 0.8847 0.3827
vn 0.1103 0.3664 0.9239
vn -0.0681 -0.3766 0.9239
vn -0.1644 -0.9091 0.3827
vn 0.0681 0.3766 -0.9239
vn 0.1644 0.9091 -0.3827
vn 0.1644 0.9091 0.3827
vn 0.0681 0.3766 0.9239
vn -0.0250 -0.3819 0.9239
vn -0.0604 -0.9219 0.3827
vn 0.0250 0.3819 -0.9239
vn 0.0604 0.9219 -0.3827
vn 0.0604 0.9219 0.3827
vn 0.0250 0.3819 0.9239
vn 0.0184 -0.3822 0.9239
vn 0.0443 -0.9228 0.3827
vn -0.8832 -0.4690 -0.0000
vn -0.3292 -0.9443 -0.0000
vn -0.0184 0.3822 -0.9239
vn -0.0444 0.9228 -0.3827
vn -0.0444 0.9228 0.3827
vn -0.0184 0.3822 0.9239
vn -0.8176 -0.4302 -0.3827
vn -0.3387 -0.1782 -0.9239
vn -0.4584 -0.8021 -0.3827
vn -0.1899 -0.3322 -0.9239
vn 0.0443 -0.9228 -0.3827
vn 0.0184 -0.3822 -0.9239
vn -0.3807 -0.0400 0.9238
vn -0.9187 -0.0966 0.3831
vn -0.9187 -0.0966 -0.3831
vn -0.3807 -0.0400 -0.9238
vn -0.7637 -0.5200 -0.3827
vn -0.3163 -0.2154 -0.9239
vn -0.3647 -0.8488 -0.3827
vn -0.1511 -0.3516 -0.9239
vn -0.9567 0.2910 -0.0000
vn -0.4332 0.9013 -0.0000
vn 0.1511 0.3516 -0.9239
vn 0.3647 0.8489 -0.3827
vn -0.2899 -0.2498 0.9239
vn -0.6999 -0.6031 0.3827
vn -0.1103 -0.3664 0.9239
vn -0.2663 -0.8847 0.3827
vn -0.6999 -0.6031 -0.3827
vn -0.2899 -0.2498 -0.9239
vn -0.2663 -0.8847 -0.3827
vn -0.1103 -0.3665 -0.9239
vn 0.1103 0.3664 -0.9239
vn 0.2663 0.8847 -0.3827
vn -0.0604 -0.9219 -0.3827
vn -0.0250 -0.3819 -0.9239
vn -0.6271 -0.6784 -0.3827
vn -0.2598 -0.2810 -0.9239
vn -0.1644 -0.9091 -0.3827
vn -0.0681 -0.3766 -0.9239
vn -0.6535 -0.6619 0.3672
vn -0.4551 -0.0843 0.8865
vn -0.9565 0.0753 0.2817
vn -0.0844 0.4551 0.8865
vn 0.0753 0.9565 0.2818
vn -0.6619 0.6535 0.3672
vn -0.7296 -0.6231 -0.2818
vn -0.9177 0.1514 -0.3672
vn -0.4177 -0.1992 -0.8865
vn 0.1514 0.9178 -0.3672
vn -0.1993 0.4177 -0.8864
vn -0.6231 0.7296 -0.2818
vn -0.0753 -0.9565 0.2817
vn 0.6619 -0.6535 0.3672
vn 0.0844 -0.4551 0.8865
vn 0.6535 0.6619 0.3672
vn 0.4551 0.0843 0.8864
vn 0.9565 -0.0753 0.2817
vn -0.1514 -0.9178 -0.3672
vn 0.1992 -0.4177 -0.8865
vn 0.6231 -0.7296 -0.2817
vn 0.7296 0.6231 -0.2818
vn 0.9177 -0.1514 -0.3672
vn 0.4177 0.1992 -0.8865
vn 0.0118 -0.9318 0.3628
vn -0.2536 -0.3985 0.8814
vn -0.7001 -0.6579 0.2775
vn -0.7290 -0.5805 -0.3628
vn -0.1481 -0.4485 -0.8814
vn -0.0665 -0.9584 -0.2775
vn 0.4317 -0.1355 -0.8918
vn 0.9572 -0.0279 -0.2880
vn 0.5436 -0.7518 -0.3732
vn 0.6272 -0.7236 0.2880
vn 0.9261 0.0547 0.3732
vn 0.3781 -0.2485 0.8918
vn -0.3495 -0.3177 0.8814
vn -0.8485 -0.4506 0.2775
vn -0.2337 -0.9021 0.3628
vn -0.8560 -0.3682 -0.3628
vn -0.2609 -0.3938 -0.8814
vn -0.3163 -0.9072 -0.2775
vn -0.3267 0.8683 -0.3732
vn -0.3808 0.2443 -0.8918
vn -0.9162 0.2787 -0.2880
vn -0.4148 0.8631 0.2880
vn -0.9079 0.1908 0.3732
vn -0.2994 0.3392 0.8918
vn 0.0785 0.9969 -0.0000
vn -0.0785 -0.9969 -0.0000
vn 0.9969 -0.0785 -0.0000
vn -0.0692 -0.9976 -0.0000
vn -0.3567 -0.1387 0.9239
vn -0.8610 -0.3349 0.3827
vn 0.3567 0.1387 -0.9239
vn 0.8611 0.3348 -0.3827
vn 0.8611 0.3348 0.3827
vn 0.3567 0.1387 0.9239
vn -0.8610 -0.3349 -0.3827
vn -0.3567 -0.1387 -0.9239
vn 0.0184 -0.3824 0.9238
vn 0.0443 -0.9227 0.3830
vn -0.0184 0.3824 -0.9238
vn -0.0443 0.9227 -0.3831
vn -0.0443 0.9227 0.3830
vn -0.0184 0.3824 0.9238
vn 0.0443 -0.9227 -0.3830
vn 0.0184 -0.3824 -0.9238
vn -0.3647 -0.8489 -0.3827
vn 0.3647 0.8488 -0.3827
vn -0.1103 -0.3664 -0.9239
vn 0.1103 0.3665 -0.9239
s 1
usemtl DarkPlastic
f 71//1 2//2 68//3
f 14//4 23//5 20//6
f 23//5 26//7 20//6
f 29//8 32//9 26//7
f 32//9 41//10 38//11
f 41//10 44//12 38//11
f 44//12 53//13 50//14
f 53//13 56//15 50//14
f 59//16 62//17 56//15
f 62//17 71//1 68//3
f 8//18 17//19 14//4
f 64//23 40//24 16//25
f 5//26 8//18 2//2
f 163//48 187//49 211//50
f 212//3 149//26 146//2
f 158//4 167//5 164//6
f 167//5 170//7 164//6
f 173//8 176//9 170//7
f 176//9 185//10 182//11
f 185//10 188//12 182//11
f 191//55 194//14 188//12
f 194//14 203//16 200//15
f 203//16 206//17 200//15
f 206//17 215//1 212//3
f 155//56 158//4 152//18
f 208//23 184//24 160//25
f 146//2 155//56 152//18
f 363//63 387//64 399//65
f 403//69 346//70 400//71
f 361//72 364//73 358//74
f 367//75 370//76 364//73
f 373//77 376//78 370//76
f 379//79 382//80 376//78
f 385//81 388//82 382//80
f 391//83 394//84 388//82
f 397//85 400//71 394//84
f 355//86 358//74 352//87
f 396//91 372//92 360//93
f 349//94 352//87 346//70
f 8//18 3//348 2//2
f 9//349 1//350 3//348
f 5//26 12//351 11//56
f 12//351 4//352 10//353
f 14//4 9//349 8//18
f 9//349 13//354 7//355
f 17//19 12//351 18//356
f 12//351 16//25 18//356
f 14//4 21//357 15//358
f 15//358 19//48 13//354
f 23//5 18//356 24//359
f 18//356 22//360 24//359
f 26//7 21//357 20//6
f 27//361 19//48 21//357
f 23//5 30//362 29//8
f 30//362 22//360 28//363
f 26//7 33//364 27//361
f 33//364 25//365 27//361
f 29//8 36//366 35//367
f 36//366 28//363 34//368
f 32//9 39//369 33//364
f 33//364 37//370 31//371
f 41//10 36//366 42//372
f 36//366 40//24 42//372
f 38//11 45//373 39//369
f 45//373 37//370 39//369
f 47//55 42//372 48//374
f 42//372 46//375 48//374
f 50//14 45//373 44//12
f 51//376 43//377 45//373
f 53//13 48//374 54//378
f 48//374 52//379 54//378
f 56//15 51//376 50//14
f 51//376 55//380 49//381
f 53//13 60//382 59//16
f 54//378 58//383 60//382
f 56//15 63//384 57//385
f 63//384 55//380 57//385
f 59//16 66//386 65//387
f 60//382 64//23 66//386
f 62//17 69//388 63//384
f 69//388 61//389 63//384
f 65//387 72//390 71//1
f 72//390 64//23 70//391
f 2//2 69//388 68//3
f 3//348 67//50 69//388
f 71//1 6//392 5//26
f 72//390 4//352 6//392
f 146//2 153//349 147//435
f 153//349 145//350 147//435
f 155//56 150//436 156//351
f 150//436 154//353 156//351
f 152//18 159//358 153//349
f 153//349 157//354 151//355
f 161//19 156//351 162//356
f 156//351 160//25 162//356
f 164//6 159//358 158//4
f 159//358 163//48 157//354
f 167//5 162//356 168//359
f 168//359 160//25 166//360
f 170//7 165//357 164//6
f 171//361 163//48 165//357
f 167//5 174//362 173//8
f 168//359 172//363 174//362
f 176//9 171//361 170//7
f 171//361 175//371 169//365
f 173//8 180//366 179//367
f 180//366 172//363 178//437
f 176//9 183//438 177//364
f 183//438 175//371 177//364
f 179//367 186//372 185//10
f 186//372 178//437 184//24
f 182//11 189//373 183//438
f 189//373 181//370 183//438
f 185//10 192//374 191//55
f 192//374 184//24 190//375
f 188//12 195//376 189//373
f 195//376 187//49 189//373
f 197//439 192//374 198//378
f 192//374 196//379 198//378
f 200//15 195//376 194//14
f 201//440 193//381 195//376
f 197//439 204//382 203//16
f 198//378 202//383 204//382
f 206//17 201//440 200//15
f 201//440 205//389 199//380
f 203//16 210//386 209//387
f 204//382 208//23 210//386
f 212//3 207//384 206//17
f 213//388 205//389 207//384
f 209//387 216//390 215//1
f 216//390 208//23 214//391
f 212//3 147//435 213//388
f 213//388 145//350 211//50
f 149//26 216//390 150//436
f 216//390 148//352 150//436
f 346//70 353//466 347//467
f 353//466 345//468 347//467
f 349//94 356//469 355//86
f 350//470 354//471 356//469
f 358//74 353//466 352//87
f 353//466 357//472 351//473
f 355//86 362//474 361//72
f 356//469 360//93 362//474
f 364//73 359//475 358//74
f 359//475 363//63 357//472
f 361//72 368//476 367//75
f 362//474 366//477 368//476
f 364//73 371//478 365//479
f 365//479 369//480 363//63
f 373//77 368//476 374//481
f 368//476 372//92 374//481
f 370//76 377//482 371//478
f 371//478 375//483 369//480
f 373//77 380//484 379//79
f 374//481 378//485 380//484
f 376//78 383//486 377//482
f 383//486 375//483 377//482
f 379//79 386//487 385//81
f 380//484 384//488 386//487
f 382//80 389//489 383//486
f 389//489 381//490 383//486
f 385//81 392//491 391//83
f 392//491 384//488 390//492
f 394//84 389//489 388//82
f 389//489 393//493 387//64
f 397//85 392//491 398//494
f 398//494 390//492 396//91
f 394//84 401//495 395//496
f 401//495 393//493 395//496
f 403//69 398//494 404//497
f 398//494 402//498 404//497
f 400//71 347//467 401//495
f 347//467 399//65 401//495
f 403//69 350//470 349//94
f 404//497 348//499 350//470
f 19//48 43//377 67//50
f 71//1 5//26 2//2
f 14//4 17//19 23//5
f 23//5 29//8 26//7
f 29//8 35//367 32//9
f 32//9 35//367 41//10
f 41//10 47//55 44//12
f 44//12 47//55 53//13
f 53//13 59//16 56//15
f 59//16 65//387 62//17
f 62//17 65//387 71//1
f 8//18 11//56 17//19
f 16//25 10//353 4//352
f 4//352 70//391 64//23
f 64//23 58//383 52//379
f 52//379 46//375 40//24
f 40//24 34//368 28//363
f 28//363 22//360 16//25
f 16//25 4//352 64//23
f 64//23 52//379 40//24
f 40//24 28//363 16//25
f 5//26 11//56 8//18
f 211//50 145//350 151//355
f 151//355 157//354 163//48
f 163//48 169//365 175//371
f 175//371 181//370 187//49
f 187//49 193//381 199//380
f 199//380 205//389 211//50
f 211//50 151//355 163//48
f 163//48 175//371 187//49
f 187//49 199//380 211//50
f 212//3 215//1 149//26
f 158//4 161//19 167//5
f 167//5 173//8 170//7
f 173//8 179//367 176//9
f 176//9 179//367 185//10
f 185//10 191//55 188//12
f 191//55 197//439 194//14
f 194//14 197//439 203//16
f 203//16 209//387 206//17
f 206//17 209//387 215//1
f 155//56 161//19 158//4
f 160//25 154//353 148//352
f 148//352 214//391 208//23
f 208//23 202//383 196//379
f 196//379 190//375 184//24
f 184//24 178//437 172//363
f 172//363 166//360 160//25
f 160//25 148//352 208//23
f 208//23 196//379 184//24
f 184//24 172//363 160//25
f 146//2 149//26 155//56
f 399//65 345//468 351//473
f 351//473 357//472 363//63
f 363//63 369//480 375//483
f 375//483 381//490 387//64
f 387//64 393//493 399//65
f 399//65 351//473 363//63
f 363//63 375//483 387//64
f 403//69 349//94 346//70
f 361//72 367//75 364//73
f 367//75 373//77 370//76
f 373//77 379//79 376//78
f 379//79 385//81 382//80
f 385//81 391//83 388//82
f 391//83 397//85 394//84
f 397//85 403//69 400//71
f 355//86 361//72 358//74
f 360//93 354//471 348//499
f 348//499 402//498 396//91
f 396//91 390//492 384//488
f 384//488 378//485 372//92
f 372//92 366//477 360//93
f 360//93 348//499 396//91
f 396//91 384//488 372//92
f 349//94 355//86 352//87
f 8//18 9//349 3//348
f 9//349 7//355 1//350
f 5//26 6//392 12//351
f 12//351 6//392 4//352
f 14//4 15//358 9//349
f 9//349 15//358 13//354
f 17//19 11//56 12//351
f 12//351 10//353 16//25
f 14//4 20//6 21//357
f 15//358 21//357 19//48
f 23//5 17//19 18//356
f 18//356 16//25 22//360
f 26//7 27//361 21//357
f 27//361 25//365 19//48
f 23//5 24//359 30//362
f 30//362 24//359 22//360
f 26//7 32//9 33//364
f 33//364 31//371 25//365
f 29//8 30//362 36//366
f 36//366 30//362 28//363
f 32//9 38//11 39//369
f 33//364 39//369 37//370
f 41//10 35//367 36//366
f 36//366 34//368 40//24
f 38//11 44//12 45//373
f 45//373 43//377 37//370
f 47//55 41//10 42//372
f 42//372 40//24 46//375
f 50//14 51//376 45//373
f 51//376 49//381 43//377
f 53//13 47//55 48//374
f 48//374 46//375 52//379
f 56//15 57//385 51//376
f 51//376 57//385 55//380
f 53//13 54//378 60//382
f 54//378 52//379 58//383
f 56//15 62//17 63//384
f 63//384 61//389 55//380
f 59//16 60//382 66//386
f 60//382 58//383 64//23
f 62//17 68//3 69//388
f 69//388 67//50 61//389
f 65//387 66//386 72//390
f 72//390 66//386 64//23
f 2//2 3//348 69//388
f 3//348 1//350 67//50
f 71//1 72//390 6//392
f 72//390 70//391 4//352
f 146//2 152//18 153//349
f 153//349 151//355 145//350
f 155//56 149//26 150//436
f 150//436 148//352 154//353
f 152//18 158//4 159//358
f 153//349 159//358 157//354
f 161//19 155//56 156//351
f 156//351 154//353 160//25
f 164//6 165//357 159//358
f 159//358 165//357 163//48
f 167//5 161//19 162//356
f 168//359 162//356 160//25
f 170//7 171//361 165//357
f 171//361 169//365 163//48
f 167//5 168//359 174//362
f 168//359 166//360 172//363
f 176//9 177//364 171//361
f 171//361 177//364 175//371
f 173//8 174//362 180//366
f 180//366 174//362 172//363
f 176//9 182//11 183//438
f 183//438 181//370 175//371
f 179//367 180//366 186//372
f 186//372 180//366 178//437
f 182//11 188//12 189//373
f 189//373 187//49 181//370
f 185//10 186//372 192//374
f 192//374 186//372 184//24
f 188//12 194//14 195//376
f 195//376 193//381 187//49
f 197//439 191//55 192//374
f 192//374 190//375 196//379
f 200//15 201//440 195//376
f 201//440 199//380 193//381
f 197//439 198//378 204//382
f 198//378 196//379 202//383
f 206//17 207//384 201//440
f 201//440 207//384 205//389
f 203//16 204//382 210//386
f 204//382 202//383 208//23
f 212//3 213//388 207//384
f 213//388 211//50 205//389
f 209//387 210//386 216//390
f 216//390 210//386 208//23
f 212//3 146//2 147//435
f 213//388 147//435 145//350
f 149//26 215//1 216//390
f 216//390 214//391 148//352
f 346//70 352//87 353//466
f 353//466 351//473 345//468
f 349//94 350//470 356//469
f 350//470 348//499 354//471
f 358//74 359//475 353//466
f 353//466 359//475 357//472
f 355//86 356//469 362//474
f 356//469 354//471 360//93
f 364//73 365//479 359//475
f 359//475 365//479 363//63
f 361//72 362//474 368//476
f 362//474 360//93 366//477
f 364//73 370//76 371//478
f 365//479 371//478 369//480
f 373//77 367//75 368//476
f 368//476 366//477 372//92
f 370//76 376//78 377//482
f 371//478 377//482 375//483
f 373//77 374//481 380//484
f 374//481 372//92 378//485
f 376//78 382//80 383//486
f 383//486 381//490 375//483
f 379//79 380//484 386//487
f 380//484 378//485 384//488
f 382//80 388//82 389//489
f 389//489 387//64 381//490
f 385//81 386//487 392//491
f 392//491 386//487 384//488
f 394//84 395//496 389//489
f 389//489 395//496 393//493
f 397//85 391//83 392//491
f 398//494 392//491 390//492
f 394//84 400//71 401//495
f 401//495 399//65 393//493
f 403//69 397//85 398//494
f 398//494 396//91 402//498
f 400//71 346//70 347//467
f 347//467 345//468 399//65
f 403//69 404//497 350//470
f 404//497 402//498 348//499
f 67//50 1//350 7//355
f 7//355 13//354 19//48
f 19//48 25//365 31//371
f 31//371 37//370 43//377
f 43//377 49//381 55//380
f 55//380 61//389 67//50
f 67//50 7//355 19//48
f 19//48 31//371 43//377
f 43//377 55//380 67//50
usemtl Chrome
f 91//20 115//21 139//22
f 143//27 74//28 140//29
f 89//30 92//31 86//32
f 95//33 98//34 92//31
f 101//35 104//36 98//34
f 107//37 110//38 104//36
f 113//39 116//40 110//38
f 119//41 122//42 116//40
f 122//42 131//43 128//44
f 131//43 134//45 128//44
f 134//45 143//27 140//29
f 83//46 86//32 80//47
f 136//51 112//52 88//53
f 77//54 80//47 74//28
f 235//20 259//21 283//22
f 287//27 218//28 284//29
f 230//32 239//33 236//31
f 236//31 245//35 242//34
f 245//35 248//36 242//34
f 251//37 254//38 248//36
f 257//39 260//40 254//38
f 263//41 266//42 260//40
f 269//57 272//44 266//42
f 275//43 278//45 272//44
f 281//58 284//29 278//45
f 224//47 233//30 230//32
f 280//51 256//52 232//60
f 221//54 224//47 218//28
f 80//47 75//393 74//28
f 81//394 73//395 75//393
f 83//46 78//396 84//397
f 78//396 82//398 84//397
f 86//32 81//394 80//47
f 81//394 85//399 79//400
f 83//46 90//401 89//30
f 90//401 82//398 88//53
f 92//31 87//402 86//32
f 93//403 85//399 87//402
f 95//33 90//401 96//404
f 90//401 94//405 96//404
f 92//31 99//406 93//403
f 93//403 97//407 91//20
f 101//35 96//404 102//408
f 102//408 94//405 100//409
f 98//34 105//410 99//406
f 105//410 97//407 99//406
f 107//37 102//408 108//411
f 102//408 106//412 108//411
f 110//38 105//410 104//36
f 105//410 109//413 103//414
f 107//37 114//415 113//39
f 114//415 106//412 112//52
f 116//40 111//416 110//38
f 111//416 115//21 109//413
f 113//39 120//417 119//41
f 120//417 112//52 118//418
f 122//42 117//419 116//40
f 123//420 115//21 117//419
f 125//57 120//417 126//421
f 120//417 124//422 126//421
f 122//42 129//423 123//420
f 129//423 121//424 123//420
f 131//43 126//421 132//425
f 126//421 130//426 132//425
f 134//45 129//423 128//44
f 129//423 133//427 127//428
f 131//43 138//429 137//58
f 132//425 136//51 138//429
f 140//29 135//430 134//45
f 135//430 139//22 133//427
f 143//27 138//429 144//431
f 144//431 136//51 142//432
f 74//28 141//433 140//29
f 75//393 139//22 141//433
f 77//54 144//431 78//396
f 144//431 76//434 78//396
f 224//47 219//393 218//28
f 225//394 217//395 219//393
f 227//46 222//396 228//397
f 228//397 220//434 226//398
f 230//32 225//394 224//47
f 231//402 223//400 225//394
f 233//30 228//397 234//401
f 234//401 226//398 232//60
f 236//31 231//402 230//32
f 237//403 229//399 231//402
f 239//33 234//401 240//404
f 240//404 232//60 238//405
f 236//31 243//406 237//403
f 237//403 241//407 235//20
f 239//33 246//408 245//35
f 240//404 244//441 246//408
f 242//34 249//410 243//406
f 243//406 247//414 241//407
f 245//35 252//411 251//37
f 246//408 250//412 252//411
f 254//38 249//410 248//36
f 249//410 253//413 247//414
f 251//37 258//415 257//39
f 252//411 256//52 258//415
f 254//38 261//419 255//416
f 261//419 253//413 255//416
f 263//41 258//415 264//417
f 258//415 262//418 264//417
f 266//42 261//419 260//40
f 267//420 259//21 261//419
f 269//57 264//417 270//421
f 264//417 268//422 270//421
f 266//42 273//423 267//420
f 273//423 265//424 267//420
f 275//43 270//421 276//425
f 276//425 268//422 274//426
f 272//44 279//430 273//423
f 279//430 271//428 273//423
f 275//43 282//429 281//58
f 276//425 280//51 282//429
f 278//45 285//433 279//430
f 285//433 277//427 279//430
f 287//27 282//429 288//431
f 282//429 286//432 288//431
f 218//28 285//433 284//29
f 285//433 217//395 283//22
f 287//27 222//396 221//54
f 288//431 220//434 222//396
f 139//22 73//395 79//400
f 79//400 85//399 91//20
f 91//20 97//407 103//414
f 103//414 109//413 115//21
f 115//21 121//424 127//428
f 127//428 133//427 139//22
f 139//22 79//400 91//20
f 91//20 103//414 115//21
f 115//21 127//428 139//22
f 143//27 77//54 74//28
f 89//30 95//33 92//31
f 95//33 101//35 98//34
f 101//35 107//37 104//36
f 107//37 113//39 110//38
f 113//39 119//41 116//40
f 119//41 125//57 122//42
f 122//42 125//57 131//43
f 131//43 137//58 134//45
f 134//45 137//58 143//27
f 83//46 89//30 86//32
f 88//53 82//398 76//434
f 76//434 142//432 136//51
f 136//51 130//426 124//422
f 124//422 118//418 112//52
f 112//52 106//412 100//409
f 100//409 94//405 88//53
f 88//53 76//434 136//51
f 136//51 124//422 112//52
f 112//52 100//409 88//53
f 77//54 83//46 80//47
f 283//22 217//395 223//400
f 223//400 229//399 235//20
f 235//20 241//407 247//414
f 247//414 253//413 259//21
f 259//21 265//424 271//428
f 271//428 277//427 283//22
f 283//22 223//400 235//20
f 235//20 247//414 259//21
f 259//21 271//428 283//22
f 287//27 221//54 218//28
f 230//32 233//30 239//33
f 236//31 239//33 245//35
f 245//35 251//37 248//36
f 251//37 257//39 254//38
f 257//39 263//41 260//40
f 263//41 269//57 266//42
f 269//57 275//43 272//44
f 275//43 281//58 278//45
f 281//58 287//27 284//29
f 224//47 227//46 233//30
f 232//60 226//398 220//434
f 220//434 286//432 280//51
f 280//51 274//426 268//422
f 268//422 262//418 256//52
f 256//52 250//412 244//441
f 244//441 238//405 232//60
f 232//60 220//434 280//51
f 280//51 268//422 256//52
f 256//52 244//441 232//60
f 221//54 227//46 224//47
f 80//47 81//394 75//393
f 81//394 79//400 73//395
f 83//46 77//54 78//396
f 78//396 76//434 82//398
f 86//32 87//402 81//394
f 81//394 87//402 85//399
f 83//46 84//397 90//401
f 90//401 84//397 82//398
f 92//31 93//403 87//402
f 93//403 91//20 85//399
f 95//33 89//30 90//401
f 90//401 88//53 94//405
f 92//31 98//34 99//406
f 93//403 99//406 97//407
f 101//35 95//33 96//404
f 102//408 96//404 94//405
f 98//34 104//36 105//410
f 105//410 103//414 97//407
f 107//37 101//35 102//408
f 102//408 100//409 106//412
f 110//38 111//416 105//410
f 105//410 111//416 109//413
f 107//37 108//411 114//415
f 114//415 108//411 106//412
f 116//40 117//419 111//416
f 111//416 117//419 115//21
f 113//39 114//415 120//417
f 120//417 114//415 112//52
f 122//42 123//420 117//419
f 123//420 121//424 115//21
f 125//57 119//41 120//417
f 120//417 118//418 124//422
f 122//42 128//44 129//423
f 129//423 127//428 121//424
f 131//43 125//57 126//421
f 126//421 124//422 130//426
f 134//45 135//430 129//423
f 129//423 135//430 133//427
f 131//43 132//425 138//429
f 132//425 130//426 136//51
f 140//29 141//433 135//430
f 135//430 141//433 139//22
f 143//27 137//58 138//429
f 144//431 138//429 136//51
f 74//28 75//393 141//433
f 75//393 73//395 139//22
f 77//54 143//27 144//431
f 144//431 142//432 76//434
f 224//47 225//394 219//393
f 225//394 223//400 217//395
f 227//46 221//54 222//396
f 228//397 222//396 220//434
f 230//32 231//402 225//394
f 231//402 229//399 223//400
f 233//30 227//46 228//397
f 234//401 228//397 226//398
f 236//31 237//403 231//402
f 237//403 235//20 229//399
f 239//33 233//30 234//401
f 240//404 234//401 232//60
f 236//31 242//34 243//406
f 237//403 243//406 241//407
f 239//33 240//404 246//408
f 240//404 238//405 244//441
f 242//34 248//36 249//410
f 243//406 249//410 247//414
f 245//35 246//408 252//411
f 246//408 244//441 250//412
f 254//38 255//416 249//410
f 249//410 255//416 253//413
f 251//37 252//411 258//415
f 252//411 250//412 256//52
f 254//38 260//40 261//419
f 261//419 259//21 253//413
f 263//41 257//39 258//415
f 258//415 256//52 262//418
f 266//42 267//420 261//419
f 267//420 265//424 259//21
f 269//57 263//41 264//417
f 264//417 262//418 268//422
f 266//42 272//44 273//423
f 273//423 271//428 265//424
f 275//43 269//57 270//421
f 276//425 270//421 268//422
f 272//44 278//45 279//430
f 279//430 277//427 271//428
f 275//43 276//425 282//429
f 276//425 274//426 280//51
f 278//45 284//29 285//433
f 285//433 283//22 277//427
f 287//27 281//58 282//429
f 282//429 280//51 286//432
f 218//28 219//393 285//433
f 285//433 219//393 217//395
f 287//27 288//431 222//396
f 288//431 286//432 220//434
s 0
usemtl Alloy
f 331//59 289//59 303//59
f 319//61 296//61 290//61
f 339//62 318//62 333//62
f 310//66 324//66 338//66
f 298//67 304//67 291//67
f 305//68 340//68 332//68
f 289//173 293//173 295//173
f 290//174 293//174 292//174
f 291//175 293//175 294//175
f 296//176 300//176 302//176
f 297//177 300//177 299//177
f 298//178 300//178 301//178
f 303//179 307//179 309//179
f 304//180 307//180 306//180
f 305//181 307//181 308//181
f 310//182 314//182 316//182
f 311//183 314//183 313//183
f 312//184 314//184 315//184
f 317//185 321//185 323//185
f 318//186 321//186 320//186
f 319//187 321//187 322//187
f 324//188 328//188 330//188
f 325//189 328//189 327//189
f 326//190 328//190 329//190
f 331//191 335//191 337//191
f 332//192 335//192 334//192
f 333//193 335//193 336//193
f 338//194 342//194 344//194
f 339//195 342//195 341//195
f 340//196 342//196 343//196
f 289//442 306//442 303//442
f 306//443 291//443 304//443
f 296//444 294//444 290//444
f 294//445 298//445 291//445
f 297//446 316//446 301//446
f 316//447 298//447 301//447
f 311//448 308//448 315//448
f 308//449 312//449 315//449
f 331//450 309//450 334//450
f 309//451 332//451 334//451
f 338//452 313//452 310//452
f 313//453 340//453 311//453
f 339//454 336//454 343//454
f 336//455 340//455 343//455
f 317//456 337//456 320//456
f 337//457 318//457 320//457
f 324//458 341//458 338//458
f 341//459 326//459 339//459
f 325//460 322//460 329//460
f 329//461 318//461 326//461
f 317//462 292//462 289//462
f 323//463 290//463 292//463
f 324//464 299//464 327//464
f 327//465 296//465 325//465
f 331//59 317//59 289//59
f 319//61 325//61 296//61
f 339//62 326//62 318//62
f 310//66 297//66 324//66
f 298//67 312//67 304//67
f 305//68 311//68 340//68
f 289//612 292//612 293//612
f 290//613 294//613 293//613
f 291//614 295//614 293//614
f 296//615 299//615 300//615
f 297//616 301//616 300//616
f 298//617 302//617 300//617
f 303//618 306//618 307//618
f 304//619 308//619 307//619
f 305//620 309//620 307//620
f 310//621 313//621 314//621
f 311//622 315//622 314//622
f 312//623 316//623 314//623
f 317//624 320//624 321//624
f 318//625 322//625 321//625
f 319//626 323//626 321//626
f 324//627 327//627 328//627
f 325//628 329//628 328//628
f 326//629 330//629 328//629
f 331//630 334//630 335//630
f 332//631 336//631 335//631
f 333//632 337//632 335//632
f 338//633 341//633 342//633
f 339//634 343//634 342//634
f 340//635 344//635 342//635
f 289//442 295//442 306//442
f 306//443 295//443 291//443
f 296//444 302//444 294//444
f 294//445 302//445 298//445
f 297//660 310//660 316//660
f 316//447 312//447 298//447
f 311//448 305//448 308//448
f 308//449 304//449 312//449
f 331//450 303//450 309//450
f 309//451 305//451 332//451
f 338//452 344//452 313//452
f 313//453 344//453 340//453
f 339//454 333//454 336//454
f 336//455 332//455 340//455
f 317//661 331//661 337//661
f 337//457 333//457 318//457
f 324//458 330//458 341//458
f 341//662 330//662 326//662
f 325//460 319//460 322//460
f 329//461 322//461 318//461
f 317//462 323//462 292//462
f 323//463 319//463 290//463
f 324//464 297//464 299//464
f 327//465 299//465 296//465
s 1
usemtl Seat
f 447//88 475//89 503//90
f 511//95 406//96 505//97
f 441//98 448//99 435//100
f 455//101 462//102 449//103
f 469//104 476//105 463//106
f 483//107 490//108 477//109
f 497//110 504//111 491//112
f 427//113 434//114 421//115
f 559//116 587//117 615//118
f 496//119 468//120 440//121
f 413//122 420//123 407//124
f 623//125 518//126 617//127
f 547//128 568//115 560//113
f 567//123 574//129 561//130
f 581//131 588//132 575//133
f 595//111 602//134 589//135
f 609//136 616//137 603//138
f 539//139 546//98 533//140
f 608//142 580//143 552//144
f 519//145 540//146 532//147
f 405//197 409//198 411//199
f 406//96 409//198 408//200
f 407//124 409//198 410//201
f 412//202 416//203 418//204
f 417//205 415//206 413//122
f 418//204 417//205 414//207
f 419//208 423//209 425//210
f 420//123 423//209 422//211
f 421//115 423//209 424//212
f 426//116 430//213 432//214
f 427//113 430//213 429//215
f 428//130 430//213 431//216
f 433//144 437//217 439//218
f 434//114 437//217 436//219
f 435//100 437//217 438//220
f 440//121 444//221 446//222
f 441//98 444//221 443//223
f 442//128 444//221 445//224
f 447//88 451//225 453//226
f 452//227 450//228 448//99
f 453//226 452//227 449//103
f 454//229 458//230 460//231
f 459//232 457//233 455//101
f 460//231 459//232 456//140
f 461//234 465//235 467//236
f 462//102 465//235 464//237
f 463//106 465//235 466//238
f 468//120 472//239 474//240
f 469//104 472//239 471//241
f 470//242 472//239 473//243
f 475//89 479//244 481//245
f 476//105 479//244 478//246
f 477//109 479//244 480//247
f 482//248 486//249 488//250
f 483//107 486//249 485//251
f 484//252 486//249 487//253
f 489//142 493//254 495//255
f 490//108 493//254 492//256
f 491//112 493//254 494//257
f 496//119 500//258 502//259
f 497//110 500//258 499//260
f 498//261 500//258 501//262
f 503//90 507//263 509//264
f 508//265 506//266 504//111
f 509//264 508//265 505//97
f 510//267 514//268 516//269
f 515//270 513//271 511//95
f 516//269 515//270 512//272
f 517//273 521//274 523//275
f 522//276 520//277 518//126
f 523//275 522//276 519//145
f 524//278 528//279 530//280
f 529//281 527//282 525//283
f 530//280 529//281 526//284
f 531//285 535//230 537//231
f 536//232 534//286 532//147
f 537//231 536//232 533//140
f 538//287 542//225 544//288
f 543//227 541//228 539//139
f 544//288 543//227 540//146
f 545//121 549//221 551//222
f 546//98 549//221 548//223
f 547//128 549//221 550//224
f 552//144 556//217 558//218
f 553//114 556//217 555//289
f 554//100 556//217 557//220
f 559//116 563//213 565//290
f 560//113 563//213 562//215
f 561//130 563//213 564//216
f 566//208 570//209 572//291
f 567//123 570//209 569//292
f 568//115 570//209 571//212
f 573//293 577//294 579//295
f 574//129 577//294 576//296
f 575//133 577//294 578//297
f 580//143 584//298 586//299
f 585//300 583//301 581//131
f 586//299 585//300 582//302
f 587//117 591//268 593//303
f 592//270 590//304 588//132
f 593//303 592//270 589//135
f 594//305 598//263 600//306
f 599//265 597//266 595//111
f 600//306 599//265 596//307
f 601//308 605//309 607//310
f 606//311 604//312 602//134
f 607//310 606//311 603//138
f 608//142 612//254 614//255
f 609//136 612//254 611//256
f 610//313 612//254 613//314
f 615//118 619//315 621//316
f 620//317 618//318 616//137
f 621//316 620//317 617//127
f 622//89 626//319 628//320
f 623//125 626//319 625//321
f 624//322 626//319 627//323
f 407//124 422//211 411//199
f 411//199 419//208 405//197
f 413//122 432//214 428//130
f 432//214 412//202 426//116
f 406//96 417//205 410//201
f 417//205 407//124 410//201
f 421//115 431//216 427//113
f 431//216 420//123 428//130
f 434//114 425//210 421//115
f 436//219 419//208 425//210
f 427//113 446//222 442//128
f 446//222 426//116 440//121
f 435//100 445//224 441//98
f 445//224 434//114 442//128
f 448//99 439//218 435//100
f 439//218 447//88 433//144
f 456//140 443//223 460//231
f 443//223 454//229 460//231
f 449//103 459//232 455//101
f 452//227 456//140 459//232
f 449//103 464//237 453//226
f 464//237 447//88 453//226
f 455//101 474//240 470//242
f 474//240 454//229 468//120
f 463//106 473//243 469//104
f 473//243 462//102 470//242
f 476//105 467//236 463//106
f 478//246 461//234 467//236
f 484//252 471//241 488//250
f 488//250 468//120 482//248
f 477//109 487//253 483//107
f 487//253 476//105 484//252
f 490//108 481//245 477//109
f 492//256 475//89 481//245
f 498//261 485//251 502//259
f 485//251 496//119 502//259
f 491//112 501//262 497//110
f 501//262 490//108 498//261
f 504//111 495//255 491//112
f 495//255 503//90 489//142
f 512//272 499//260 516//269
f 499//260 510//267 516//269
f 505//97 515//270 511//95
f 508//265 512//272 515//270
f 505//97 408//200 509//264
f 408//200 503//90 509//264
f 414//207 513//271 418//204
f 513//271 412//202 418//204
f 532//147 523//275 519//145
f 534//286 517//273 523//275
f 525//283 544//288 540//146
f 544//288 524//278 538//287
f 526//284 522//276 518//126
f 529//281 519//145 522//276
f 533//140 543//227 539//139
f 536//232 540//146 543//227
f 533//140 548//223 537//231
f 548//223 531//285 537//231
f 539//139 558//218 554//100
f 558//218 538//287 552//144
f 547//128 557//220 553//114
f 550//224 554//100 557//220
f 547//128 562//215 551//222
f 551//222 559//116 545//121
f 553//114 572//291 568//115
f 555//289 566//208 572//291
f 561//130 571//212 567//123
f 571//212 560//113 568//115
f 561//130 576//296 565//290
f 576//296 559//116 565//290
f 582//302 569//292 586//299
f 569//292 580//143 586//299
f 575//133 585//300 581//131
f 585//300 574//129 582//302
f 588//132 579//295 575//133
f 579//295 587//117 573//293
f 596//307 583//301 600//306
f 600//306 580//143 594//305
f 589//135 599//265 595//111
f 592//270 596//307 599//265
f 602//134 593//303 589//135
f 593//303 601//308 587//117
f 595//111 614//255 610//313
f 614//255 594//305 608//142
f 609//136 606//311 613//314
f 606//311 610//313 613//314
f 616//137 607//310 603//138
f 607//310 615//118 601//308
f 609//136 628//320 624//322
f 611//256 622//89 628//320
f 623//125 620//317 627//323
f 620//317 624//322 627//323
f 518//126 621//316 617//127
f 621//316 517//273 615//118
f 526//284 625//321 530//280
f 625//321 524//278 530//280
f 503//90 405//197 419//208
f 419//208 433//144 447//88
f 447//88 461//234 475//89
f 475//89 489//142 503//90
f 503//90 419//208 447//88
f 511//95 414//207 406//96
f 441//98 456//140 448//99
f 455//101 470//242 462//102
f 469//104 484//252 476//105
f 483//107 498//261 490//108
f 497//110 512//272 504//111
f 427//113 442//128 434//114
f 615//118 517//273 531//285
f 531//285 545//121 559//116
f 559//116 573//293 587//117
f 587//117 601//308 615//118
f 615//118 531//285 559//116
f 440//121 426//116 412//202
f 412//202 510//267 496//119
f 496//119 482//248 468//120
f 468//120 454//229 440//121
f 440//121 412//202 496//119
f 413//122 428//130 420//123
f 623//125 526//284 518//126
f 547//128 553//114 568//115
f 567//123 582//302 574//129
f 581//131 596//307 588//132
f 595//111 610//313 602//134
f 609//136 624//322 616//137
f 539//139 554//100 546//98
f 552//144 538//287 524//278
f 524//278 622//89 608//142
f 608//142 594//305 580//143
f 580//143 566//208 552//144
f 552//144 524//278 608//142
f 519//145 525//283 540//146
f 405//197 408//200 409//198
f 406//96 410//201 409//198
f 407//124 411//199 409//198
f 412//202 415//206 416//203
f 417//205 416//203 415//206
f 418//204 416//203 417//205
f 419//208 422//211 423//209
f 420//123 424//212 423//209
f 421//115 425//210 423//209
f 426//116 429//215 430//213
f 427//113 431//216 430//213
f 428//130 432//214 430//213
f 433//144 436//219 437//217
f 434//114 438//220 437//217
f 435//100 439//218 437//217
f 440//121 443//223 444//221
f 441//98 445//224 444//221
f 442//128 446//222 444//221
f 447//88 450//228 451//225
f 452//227 451//225 450//228
f 453//226 451//225 452//227
f 454//229 457//233 458//230
f 459//232 458//230 457//233
f 460//231 458//230 459//232
f 461//234 464//237 465//235
f 462//102 466//238 465//235
f 463//106 467//236 465//235
f 468//120 471//241 472//239
f 469//104 473//243 472//239
f 470//242 474//240 472//239
f 475//89 478//246 479//244
f 476//105 480//247 479//244
f 477//109 481//245 479//244
f 482//248 485//251 486//249
f 483//107 487//253 486//249
f 484//252 488//250 486//249
f 489//142 492//256 493//254
f 490//108 494//257 493//254
f 491//112 495//255 493//254
f 496//119 499//260 500//258
f 497//110 501//262 500//258
f 498//261 502//259 500//258
f 503//90 506//266 507//263
f 508//265 507//263 506//266
f 509//264 507//263 508//265
f 510//267 513//271 514//268
f 515//270 514//268 513//271
f 516//269 514//268 515//270
f 517//273 520//277 521//274
f 522//276 521//274 520//277
f 523//275 521//274 522//276
f 524//278 527//282 528//279
f 529//281 528//279 527//282
f 530//280 528//279 529//281
f 531//285 534//286 535//230
f 536//232 535//230 534//286
f 537//231 535//230 536//232
f 538//287 541//228 542//225
f 543//227 542//225 541//228
f 544//288 542//225 543//227
f 545//121 548//223 549//221
f 546//98 550//224 549//221
f 547//128 551//222 549//221
f 552//144 555//289 556//217
f 553//114 557//220 556//217
f 554//100 558//218 556//217
f 559//116 562//215 563//213
f 560//113 564//216 563//213
f 561//130 565//290 563//213
f 566//208 569//292 570//209
f 567//123 571//212 570//209
f 568//115 572//291 570//209
f 573//293 576//296 577//294
f 574//129 578//297 577//294
f 575//133 579//295 577//294
f 580//143 583//301 584//298
f 585//300 584//298 583//301
f 586//299 584//298 585//300
f 587//117 590//304 591//268
f 592//270 591//268 590//304
f 593//303 591//268 592//270
f 594//305 597//266 598//263
f 599//265 598//263 597//266
f 600//306 598//263 599//265
f 601//308 604//312 605//309
f 606//311 605//309 604//312
f 607//310 605//309 606//311
f 608//142 611//256 612//254
f 609//136 613//314 612//254
f 610//313 614//255 612//254
f 615//118 618//318 619//315
f 620//317 619//315 618//318
f 621//316 619//315 620//317
f 622//89 625//321 626//319
f 623//125 627//323 626//319
f 624//322 628//320 626//319
f 407//124 420//123 422//211
f 411//199 422//211 419//208
f 413//122 415//206 432//214
f 432//214 415//206 412//202
f 406//96 414//207 417//205
f 417//205 413//122 407//124
f 421//115 424//212 431//216
f 431//216 424//212 420//123
f 434//114 436//219 425//210
f 436//219 433//144 419//208
f 427//113 429//215 446//222
f 446//222 429//215 426//116
f 435//100 438//220 445//224
f 445//224 438//220 434//114
f 448//99 450//228 439//218
f 439//218 450//228 447//88
f 456//140 441//98 443//223
f 443//223 440//121 454//229
f 449//103 452//227 459//232
f 452//227 448//99 456//140
f 449//103 462//102 464//237
f 464//237 461//234 447//88
f 455//101 457//233 474//240
f 474//240 457//233 454//229
f 463//106 466//238 473//243
f 473//243 466//238 462//102
f 476//105 478//246 467//236
f 478//246 475//89 461//234
f 484//252 469//104 471//241
f 488//250 471//241 468//120
f 477//109 480//247 487//253
f 487//253 480//247 476//105
f 490//108 492//256 481//245
f 492//256 489//142 475//89
f 498//261 483//107 485//251
f 485//251 482//248 496//119
f 491//112 494//257 501//262
f 501//262 494//257 490//108
f 504//111 506//266 495//255
f 495//255 506//266 503//90
f 512//272 497//110 499//260
f 499//260 496//119 510//267
f 505//97 508//265 515//270
f 508//265 504//111 512//272
f 505//97 406//96 408//200
f 408//200 405//197 503//90
f 414//207 511//95 513//271
f 513//271 510//267 412//202
f 532//147 534//286 523//275
f 534//286 531//285 517//273
f 525//283 527//282 544//288
f 544//288 527//282 524//278
f 526//284 529//281 522//276
f 529//281 525//283 519//145
f 533//140 536//232 543//227
f 536//232 532//147 540//146
f 533//140 546//98 548//223
f 548//223 545//121 531//285
f 539//139 541//228 558//218
f 558//218 541//228 538//287
f 547//128 550//224 557//220
f 550//224 546//98 554//100
f 547//128 560//113 562//215
f 551//222 562//215 559//116
f 553//114 555//289 572//291
f 555//289 552//144 566//208
f 561//130 564//216 571//212
f 571//212 564//216 560//113
f 561//130 574//129 576//296
f 576//296 573//293 559//116
f 582//302 567//123 569//292
f 569//292 566//208 580//143
f 575//133 578//297 585//300
f 585//300 578//297 574//129
f 588//132 590//304 579//295
f 579//295 590//304 587//117
f 596//307 581//131 583//301
f 600//306 583//301 580//143
f 589//135 592//270 599//265
f 592//270 588//132 596//307
f 602//134 604//312 593//303
f 593//303 604//312 601//308
f 595//111 597//266 614//255
f 614//255 597//266 594//305
f 609//136 603//138 606//311
f 606//311 602//134 610//313
f 616//137 618//318 607//310
f 607//310 618//318 615//118
f 609//136 611//256 628//320
f 611//256 608//142 622//89
f 623//125 617//127 620//317
f 620//317 616//137 624//322
f 518//126 520//277 621//316
f 621//316 520//277 517//273
f 526//284 623//125 625//321
f 625//321 622//89 524//278
s 0
usemtl Plastic
f 638//141 650//141 629//141
f 652//61 657//61 630//61
f 670//148 660//148 658//148
f 644//149 666//149 651//149
f 661//68 643//68 637//68
f 657//61 679//61 669//61
f 682//150 672//150 670//150
f 664//151 678//151 666//151
f 661//68 675//68 663//68
f 669//61 691//61 681//61
f 693//152 684//152 682//152
f 676//153 690//153 678//153
f 673//68 687//68 675//68
f 681//61 703//61 694//61
f 706//154 696//154 693//154
f 688//155 702//155 690//155
f 697//68 687//68 685//68
f 703//61 705//61 694//61
f 718//156 709//156 706//156
f 700//157 714//157 702//157
f 708//68 699//68 697//68
f 715//61 717//61 705//61
f 730//158 720//158 718//158
f 712//159 726//159 714//159
f 721//68 711//68 708//68
f 727//61 729//61 717//61
f 730//160 744//160 732//160
f 724//161 738//161 726//161
f 733//68 723//68 721//68
f 739//61 741//61 729//61
f 753//162 744//162 742//162
f 736//163 750//163 738//163
f 745//68 735//68 733//68
f 751//61 754//61 741//61
f 766//164 756//164 753//164
f 748//165 762//165 750//165
f 757//68 747//68 745//68
f 763//61 765//61 754//61
f 778//166 769//166 766//166
f 759//167 774//167 762//167
f 768//68 760//68 757//68
f 775//61 777//61 765//61
f 791//168 781//168 778//168
f 772//169 786//169 774//169
f 780//68 771//68 768//68
f 787//61 789//61 777//61
f 805//170 790//170 811//170
f 786//171 803//171 810//171
f 797//68 783//68 780//68
f 658//172 636//172 631//172
f 629//324 633//324 635//324
f 630//325 633//325 632//325
f 631//326 633//326 634//326
f 636//327 640//327 642//327
f 637//328 640//328 639//328
f 638//329 640//329 641//329
f 643//330 647//330 649//330
f 644//331 647//331 646//331
f 645//332 647//332 648//332
f 650//333 654//333 656//333
f 651//334 654//334 653//334
f 652//335 654//335 655//335
f 789//336 793//336 795//336
f 790//337 793//337 792//337
f 791//338 793//338 794//338
f 796//339 800//339 802//339
f 797//340 800//340 799//340
f 798//341 800//341 801//341
f 803//342 807//342 809//342
f 804//343 807//343 806//343
f 805//344 807//344 808//344
f 810//345 814//345 816//345
f 811//346 814//346 813//346
f 812//347 814//347 815//347
f 636//500 635//500 631//500
f 635//501 638//501 629//501
f 643//502 641//502 637//502
f 649//503 638//503 641//503
f 651//504 648//504 644//504
f 653//505 645//505 648//505
f 630//506 659//506 634//506
f 634//507 658//507 631//507
f 643//508 665//508 646//508
f 646//509 664//509 644//509
f 666//510 655//510 651//510
f 668//511 652//511 655//511
f 657//512 671//512 659//512
f 659//513 670//513 658//513
f 663//514 677//514 665//514
f 677//515 664//515 665//515
f 666//516 680//516 668//516
f 680//517 667//517 668//517
f 669//518 683//518 671//518
f 683//519 670//519 671//519
f 675//520 689//520 677//520
f 689//521 676//521 677//521
f 678//522 692//522 680//522
f 680//523 691//523 679//523
f 629//524 656//524 632//524
f 632//525 652//525 630//525
f 687//526 701//526 689//526
f 701//527 688//527 689//527
f 690//528 704//528 692//528
f 704//529 691//529 692//529
f 705//530 695//530 694//530
f 695//531 706//531 693//531
f 699//532 713//532 701//532
f 713//533 700//533 701//533
f 702//534 716//534 704//534
f 716//535 703//535 704//535
f 717//536 707//536 705//536
f 707//537 718//537 706//537
f 711//538 725//538 713//538
f 713//539 724//539 712//539
f 726//540 716//540 714//540
f 716//541 727//541 715//541
f 729//542 719//542 717//542
f 719//543 730//543 718//543
f 735//544 725//544 723//544
f 725//545 736//545 724//545
f 738//546 728//546 726//546
f 728//547 739//547 727//547
f 741//548 731//548 729//548
f 731//549 742//549 730//549
f 660//550 639//550 636//550
f 662//551 637//551 639//551
f 750//552 740//552 738//552
f 752//553 739//553 740//553
f 720//554 710//554 709//554
f 722//555 708//555 710//555
f 762//556 752//556 750//556
f 764//557 751//557 752//557
f 754//558 767//558 755//558
f 767//559 753//559 755//559
f 760//560 773//560 761//560
f 773//561 759//561 761//561
f 762//562 776//562 764//562
f 776//563 763//563 764//563
f 765//564 779//564 767//564
f 779//565 766//565 767//565
f 771//566 785//566 773//566
f 773//567 784//567 772//567
f 774//568 788//568 776//568
f 788//569 775//569 776//569
f 789//570 779//570 777//570
f 795//571 778//571 779//571
f 796//572 794//572 790//572
f 802//573 791//573 794//573
f 804//574 785//574 783//574
f 806//575 784//575 785//575
f 786//576 816//576 788//576
f 788//577 812//577 787//577
f 672//578 662//578 660//578
f 674//579 661//579 662//579
f 732//580 722//580 720//580
f 734//581 721//581 722//581
f 781//582 801//582 782//582
f 782//583 797//583 780//583
f 812//584 792//584 789//584
f 815//585 790//585 792//585
f 796//586 808//586 799//586
f 799//587 804//587 797//587
f 672//588 686//588 674//588
f 674//589 685//589 673//589
f 732//590 746//590 734//590
f 746//591 733//591 734//591
f 811//592 809//592 805//592
f 813//593 803//593 809//593
f 747//594 737//594 735//594
f 737//595 748//595 736//595
f 694//596 683//596 681//596
f 695//597 682//597 683//597
f 741//598 755//598 743//598
f 755//599 742//599 743//599
f 696//600 686//600 684//600
f 686//601 697//601 685//601
f 744//602 758//602 746//602
f 746//603 757//603 745//603
f 747//604 761//604 749//604
f 749//605 759//605 748//605
f 769//606 782//606 770//606
f 782//607 768//607 770//607
f 709//608 698//608 696//608
f 698//609 708//609 697//609
f 769//610 758//610 756//610
f 758//611 768//611 757//611
f 638//141 645//141 650//141
f 652//61 667//61 657//61
f 670//148 672//148 660//148
f 644//149 664//149 666//149
f 661//68 663//68 643//68
f 657//61 667//61 679//61
f 682//150 684//150 672//150
f 664//151 676//151 678//151
f 661//68 673//68 675//68
f 669//61 679//61 691//61
f 693//152 696//152 684//152
f 676//153 688//153 690//153
f 673//68 685//68 687//68
f 681//61 691//61 703//61
f 706//154 709//154 696//154
f 688//155 700//155 702//155
f 697//68 699//68 687//68
f 703//61 715//61 705//61
f 718//156 720//156 709//156
f 700//157 712//157 714//157
f 708//68 711//68 699//68
f 715//61 727//61 717//61
f 730//158 732//158 720//158
f 712//159 724//159 726//159
f 721//68 723//68 711//68
f 727//61 739//61 729//61
f 730//160 742//160 744//160
f 724//161 736//161 738//161
f 733//68 735//68 723//68
f 739//61 751//61 741//61
f 753//162 756//162 744//162
f 736//163 748//163 750//163
f 745//68 747//68 735//68
f 751//61 763//61 754//61
f 766//164 769//164 756//164
f 748//165 759//165 762//165
f 757//68 760//68 747//68
f 763//61 775//61 765//61
f 778//166 781//166 769//166
f 759//167 772//167 774//167
f 768//68 771//68 760//68
f 775//61 787//61 777//61
f 791//168 798//168 781//168
f 772//169 784//169 786//169
f 780//68 783//68 771//68
f 787//61 812//61 789//61
f 805//170 796//170 790//170
f 786//171 784//171 803//171
f 797//68 804//68 783//68
f 658//172 660//172 636//172
f 629//636 632//636 633//636
f 630//637 634//637 633//637
f 631//638 635//638 633//638
f 636//639 639//639 640//639
f 637//640 641//640 640//640
f 638//641 642//641 640//641
f 643//642 646//642 647//642
f 644//643 648//643 647//643
f 645//644 649//644 647//644
f 650//645 653//645 654//645
f 651//646 655//646 654//646
f 652//647 656//647 654//647
f 789//648 792//648 793//648
f 790//649 794//649 793//649
f 791//650 795//650 793//650
f 796//651 799//651 800//651
f 797//652 801//652 800//652
f 798//653 802//653 800//653
f 803//654 806//654 807//654
f 804//655 808//655 807//655
f 805//656 809//656 807//656
f 810//657 813//657 814//657
f 811//658 815//658 814//658
f 812//659 816//659 814//659
f 636//500 642//500 635//500
f 635//663 642//663 638//663
f 643//502 649//502 641//502
f 649//503 645//503 638//503
f 651//504 653//504 648//504
f 653//505 650//505 645//505
f 630//664 657//664 659//664
f 634//665 659//665 658//665
f 643//666 663//666 665//666
f 646//667 665//667 664//667
f 666//668 668//668 655//668
f 668//669 667//669 652//669
f 657//512 669//512 671//512
f 659//513 671//513 670//513
f 663//514 675//514 677//514
f 677//515 676//515 664//515
f 666//516 678//516 680//516
f 680//517 679//517 667//517
f 669//518 681//518 683//518
f 683//519 682//519 670//519
f 675//520 687//520 689//520
f 689//521 688//521 676//521
f 678//522 690//522 692//522
f 680//523 692//523 691//523
f 629//524 650//524 656//524
f 632//525 656//525 652//525
f 687//526 699//526 701//526
f 701//527 700//527 688//527
f 690//528 702//528 704//528
f 704//529 703//529 691//529
f 705//530 707//530 695//530
f 695//531 707//531 706//531
f 699//532 711//532 713//532
f 713//533 712//533 700//533
f 702//534 714//534 716//534
f 716//535 715//535 703//535
f 717//536 719//536 707//536
f 707//537 719//537 718//537
f 711//538 723//538 725//538
f 713//539 725//539 724//539
f 726//540 728//540 716//540
f 716//541 728//541 727//541
f 729//542 731//542 719//542
f 719//543 731//543 730//543
f 735//544 737//544 725//544
f 725//545 737//545 736//545
f 738//546 740//546 728//546
f 728//547 740//547 739//547
f 741//548 743//548 731//548
f 731//549 743//549 742//549
f 660//670 662//670 639//670
f 662//671 661//671 637//671
f 750//552 752//552 740//552
f 752//553 751//553 739//553
f 720//554 722//554 710//554
f 722//555 721//555 708//555
f 762//556 764//556 752//556
f 764//557 763//557 751//557
f 754//558 765//558 767//558
f 767//559 766//559 753//559
f 760//560 771//560 773//560
f 773//561 772//561 759//561
f 762//562 774//562 776//562
f 776//563 775//563 763//563
f 765//564 777//564 779//564
f 779//565 778//565 766//565
f 771//566 783//566 785//566
f 773//567 785//567 784//567
f 774//568 786//568 788//568
f 788//569 787//569 775//569
f 789//672 795//672 779//672
f 795//673 791//673 778//673
f 796//572 802//572 794//572
f 802//573 798//573 791//573
f 804//674 806//674 785//674
f 806//675 803//675 784//675
f 786//676 810//676 816//676
f 788//677 816//677 812//677
f 672//578 674//578 662//578
f 674//579 673//579 661//579
f 732//580 734//580 722//580
f 734//581 733//581 721//581
f 781//678 798//678 801//678
f 782//679 801//679 797//679
f 812//584 815//584 792//584
f 815//585 811//585 790//585
f 796//586 805//586 808//586
f 799//587 808//587 804//587
f 672//588 684//588 686//588
f 674//589 686//589 685//589
f 732//680 744//680 746//680
f 746//591 745//591 733//591
f 811//592 813//592 809//592
f 813//593 810//593 803//593
f 747//594 749//594 737//594
f 737//681 749//681 748//681
f 694//596 695//596 683//596
f 695//597 693//597 682//597
f 741//598 754//598 755//598
f 755//599 753//599 742//599
f 696//600 698//600 686//600
f 686//601 698//601 697//601
f 744//602 756//602 758//602
f 746//682 758//682 757//682
f 747//683 760//683 761//683
f 749//605 761//605 759//605
f 769//606 781//606 782//606
f 782//607 780//607 768//607
f 709//608 710//608 698//608
f 698//609 710//609 708//609
f 769//610 770//610 758//610
f 758//611 770//611 768//611
