# Blender 4.0.2
# www.blender.org
mtllib bike_swingarm.mtl
o Swingarm
v 0.000760 -0.000000 -0.056690
v -0.002540 -0.000834 -0.052968
v -0.000166 -0.000244 -0.054076
v -0.569455 -0.140000 -0.049387
v -0.565957 -0.139166 -0.045752
v -0.568389 -0.139756 -0.046799
v 0.004583 -0.016166 -0.062203
v 0.001773 -0.019074 -0.059188
v 0.004006 -0.017888 -0.060093
v -0.566712 -0.151599 -0.053343
v -0.562711 -0.152893 -0.050434
v -0.565294 -0.152848 -0.051264
v 0.006655 -0.026157 -0.076424
v 0.004111 -0.030346 -0.075233
v 0.006268 -0.028792 -0.075614
v -0.565225 -0.158768 -0.063547
v -0.560952 -0.161377 -0.062509
v -0.563615 -0.160940 -0.062781
v 0.006185 -0.026157 -0.093920
v 0.003581 -0.030346 -0.094973
v 0.005755 -0.028792 -0.094709
v -0.565562 -0.158768 -0.076101
v -0.561350 -0.161377 -0.077366
v -0.563996 -0.160940 -0.076951
v 0.003353 -0.016166 -0.108009
v 0.000385 -0.019074 -0.110870
v 0.002664 -0.017888 -0.110086
v -0.567594 -0.151599 -0.086210
v -0.563755 -0.152893 -0.089330
v -0.566289 -0.152848 -0.088362
v -0.000760 -0.000000 -0.113310
v -0.004255 -0.000834 -0.116850
v -0.001824 -0.000244 -0.115870
v -0.570545 -0.140000 -0.090013
v -0.567248 -0.139166 -0.093830
v -0.569620 -0.139756 -0.092655
v -0.004582 0.016166 -0.107796
v -0.008568 0.017405 -0.110629
v -0.005996 0.017399 -0.109853
v -0.573288 -0.128401 -0.086057
v -0.570494 -0.125438 -0.089149
v -0.572716 -0.126663 -0.088189
v -0.006655 0.026157 -0.093576
v -0.010906 0.028677 -0.094585
v -0.008258 0.028303 -0.094333
v -0.574775 -0.121232 -0.075853
v -0.572253 -0.116954 -0.077073
v -0.574394 -0.118571 -0.076672
v -0.006185 0.026157 -0.076079
v -0.010376 0.028677 -0.074844
v -0.007745 0.028303 -0.075237
v -0.574438 -0.121232 -0.063299
v -0.571854 -0.116954 -0.062216
v -0.574014 -0.118571 -0.062502
v -0.003353 0.016166 -0.061990
v -0.007181 0.017405 -0.058948
v -0.004654 0.017399 -0.059861
v -0.572406 -0.128401 -0.053190
v -0.569450 -0.125438 -0.050253
v -0.571720 -0.126663 -0.051091
v -0.000760 0.000000 0.113310
v -0.004255 -0.000834 0.116850
v -0.001824 -0.000244 0.115870
v -0.570545 -0.140000 0.090013
v -0.567248 -0.139166 0.093830
v -0.569620 -0.139756 0.092655
v 0.003353 -0.016166 0.108010
v 0.000386 -0.019074 0.110870
v 0.002664 -0.017888 0.110086
v -0.567594 -0.151599 0.086210
v -0.563755 -0.152893 0.089330
v -0.566289 -0.152848 0.088362
v 0.006185 -0.026157 0.093920
v 0.003581 -0.030346 0.094973
v 0.005755 -0.028792 0.094709
v -0.565562 -0.158768 0.076101
v -0.561350 -0.161377 0.077366
v -0.563996 -0.160940 0.076951
v 0.006655 -0.026157 0.076424
v 0.004111 -0.030346 0.075233
v 0.006268 -0.028792 0.075614
v -0.565225 -0.158768 0.063547
v -0.560952 -0.161377 0.062509
v -0.563615 -0.160940 0.062781
v 0.004583 -0.016166 0.062203
v 0.001773 -0.019074 0.059188
v 0.004006 -0.017888 0.060093
v -0.566712 -0.151599 0.053343
v -0.562711 -0.152893 0.050434
v -0.565294 -0.152848 0.051264
v 0.000760 0.000000 0.056690
v -0.002540 -0.000834 0.052968
v -0.000166 -0.000244 0.054076
v -0.569455 -0.140000 0.049387
v -0.565957 -0.139166 0.045752
v -0.568389 -0.139756 0.046799
v -0.003353 0.016166 0.061990
v -0.007181 0.017405 0.058948
v -0.004654 0.017399 0.059861
v -0.572406 -0.128401 0.053190
v -0.569450 -0.125438 0.050253
v -0.571720 -0.126663 0.051091
v -0.006185 0.026157 0.076079
v -0.010376 0.028677 0.074844
v -0.007745 0.028303 0.075237
v -0.574438 -0.121232 0.063299
v -0.571854 -0.116954 0.062216
v -0.574014 -0.118571 0.062502
v -0.006655 0.026157 0.093576
v -0.010906 0.028677 0.094585
v -0.008258 0.028303 0.094333
v -0.574775 -0.121232 0.075853
v -0.572253 -0.116954 0.077073
v -0.574394 -0.118571 0.076672
v -0.004582 0.016166 0.107796
v -0.008568 0.017405 0.110629
v -0.005996 0.017399 0.109853
v -0.573288 -0.128401 0.086057
v -0.570494 -0.125438 0.089149
v -0.572716 -0.126663 0.088190
v -0.266500 -0.052500 0.036500
v -0.266500 -0.049000 0.040000
v -0.270000 -0.049000 0.036500
v -0.266500 -0.051475 0.038975
v -0.268521 -0.051021 0.038521
v -0.268975 -0.049000 0.038975
v -0.268975 -0.051475 0.036500
v -0.266500 -0.031000 0.040000
v -0.266500 -0.027500 0.036500
v -0.270000 -0.031000 0.036500
v -0.266500 -0.028525 0.038975
v -0.268521 -0.028979 0.038521
v -0.268975 -0.028525 0.036500
v -0.268975 -0.031000 0.038975
v -0.266500 -0.052500 -0.036500
v -0.270000 -0.049000 -0.036500
v -0.266500 -0.049000 -0.040000
v -0.268975 -0.051475 -0.036500
v -0.268521 -0.051021 -0.038521
v -0.268975 -0.049000 -0.038975
v -0.266500 -0.051475 -0.038975
v -0.266500 -0.027500 -0.036500
v -0.266500 -0.031000 -0.040000
v -0.270000 -0.031000 -0.036500
v -0.266500 -0.028525 -0.038975
v -0.268521 -0.028979 -0.038521
v -0.268975 -0.031000 -0.038975
v -0.268975 -0.028525 -0.036500
v -0.213500 -0.052500 0.036500
v -0.210000 -0.049000 0.036500
v -0.213500 -0.049000 0.040000
v -0.211025 -0.051475 0.036500
v -0.211479 -0.051021 0.038521
v -0.211025 -0.049000 0.038975
v -0.213500 -0.051475 0.038975
v -0.213500 -0.027500 0.036500
v -0.213500 -0.031000 0.040000
v -0.210000 -0.031000 0.036500
v -0.213500 -0.028525 0.038975
v -0.211479 -0.028979 0.038521
v -0.211025 -0.031000 0.038975
v -0.211025 -0.028525 0.036500
v -0.213500 -0.052500 -0.036500
v -0.213500 -0.049000 -0.040000
v -0.210000 -0.049000 -0.036500
v -0.213500 -0.051475 -0.038975
v -0.211479 -0.051021 -0.038521
v -0.211025 -0.049000 -0.038975
v -0.211025 -0.051475 -0.036500
v -0.213500 -0.027500 -0.036500
v -0.210000 -0.031000 -0.036500
v -0.213500 -0.031000 -0.040000
v -0.211025 -0.028525 -0.036500
v -0.211479 -0.028979 -0.038521
v -0.211025 -0.031000 -0.038975
v -0.213500 -0.028525 -0.038975
v 0.020000 0.060000 0.030320
v 0.018121 0.062953 0.034000
v 0.019450 0.060865 0.032922
v -0.120000 0.280000 0.030320
v -0.118121 0.277047 0.034000
v -0.119450 0.279135 0.032922
v 0.004965 0.050432 0.024529
v 0.001261 0.052224 0.027507
v 0.003124 0.050476 0.026635
v -0.135035 0.270432 0.024529
v -0.134981 0.266318 0.027507
v -0.135775 0.268746 0.026635
v -0.004328 0.044519 0.009369
v -0.009160 0.045592 0.010507
v -0.006966 0.044055 0.010174
v -0.144328 0.264519 0.009369
v -0.145402 0.259687 0.010507
v -0.145865 0.262325 0.010173
v -0.004328 0.044519 -0.009369
v -0.009160 0.045592 -0.010507
v -0.006966 0.044055 -0.010173
v -0.144328 0.264519 -0.009369
v -0.145402 0.259687 -0.010507
v -0.145865 0.262325 -0.010173
v 0.004965 0.050432 -0.024529
v 0.001261 0.052224 -0.027507
v 0.003124 0.050476 -0.026635
v -0.135035 0.270432 -0.024529
v -0.134981 0.266318 -0.027507
v -0.135775 0.268746 -0.026635
v 0.020000 0.060000 -0.030320
v 0.018121 0.062953 -0.034000
v 0.019450 0.060865 -0.032922
v -0.120000 0.280000 -0.030320
v -0.118121 0.277047 -0.034000
v -0.119450 0.279135 -0.032922
v 0.035035 0.069568 -0.024529
v 0.034981 0.073682 -0.027507
v 0.035775 0.071254 -0.026635
v -0.104965 0.289568 -0.024529
v -0.101261 0.287777 -0.027507
v -0.103124 0.289524 -0.026635
v 0.044328 0.075481 -0.009369
v 0.045402 0.080313 -0.010507
v 0.045865 0.077675 -0.010173
v -0.095672 0.295481 -0.009369
v -0.090840 0.294408 -0.010507
v -0.093034 0.295945 -0.010173
v 0.044328 0.075481 0.009369
v 0.045401 0.080313 0.010507
v 0.045865 0.077675 0.010174
v -0.095672 0.295481 0.009369
v -0.090840 0.294408 0.010507
v -0.093034 0.295945 0.010174
v 0.035035 0.069568 0.024529
v 0.034981 0.073682 0.027507
v 0.035775 0.071254 0.026635
v -0.104965 0.289568 0.024529
v -0.101261 0.287776 0.027507
v -0.103124 0.289524 0.026635
v -0.200000 0.020000 -0.010212
v -0.196500 0.023234 -0.012661
v -0.196500 0.016766 -0.012661
v -0.198975 0.022286 -0.011714
v -0.198521 0.020000 -0.012633
v -0.196500 0.020000 -0.013445
v -0.198975 0.017714 -0.011714
v 0.020000 0.020000 -0.010212
v 0.016500 0.016766 -0.012661
v 0.016500 0.023234 -0.012661
v 0.018975 0.017714 -0.011714
v 0.018521 0.020000 -0.012633
v 0.016500 0.020000 -0.013445
v 0.018975 0.022286 -0.011714
v -0.200000 0.012779 -0.007221
v -0.196500 0.013334 -0.011239
v -0.196500 0.008761 -0.006666
v -0.198975 0.013334 -0.009899
v -0.198521 0.011067 -0.008933
v -0.196500 0.010493 -0.009507
v -0.198975 0.010101 -0.006666
v 0.020000 0.012779 -0.007221
v 0.016500 0.008761 -0.006666
v 0.016500 0.013334 -0.011239
v 0.018975 0.010101 -0.006666
v 0.018521 0.011067 -0.008933
v 0.016500 0.010493 -0.009507
v 0.018975 0.013334 -0.009900
v -0.200000 0.009788 0.000000
v -0.196500 0.007339 -0.003234
v -0.196500 0.007339 0.003234
v -0.198975 0.007894 -0.001894
v -0.198521 0.007251 0.000000
v -0.196500 0.006785 0.000000
v -0.198975 0.007894 0.001894
v 0.020000 0.009788 0.000000
v 0.016500 0.007339 0.003234
v 0.016500 0.007339 -0.003234
v 0.018975 0.007894 0.001894
v 0.018521 0.007251 0.000000
v 0.016500 0.006785 0.000000
v 0.018975 0.007894 -0.001894
v -0.200000 0.012779 0.007221
v -0.196500 0.008761 0.006666
v -0.196500 0.013334 0.011239
v -0.198975 0.010101 0.006666
v -0.198521 0.011067 0.008933
v -0.196500 0.010493 0.009507
v -0.198975 0.013334 0.009899
v 0.020000 0.012779 0.007221
v 0.016500 0.013334 0.011239
v 0.016500 0.008761 0.006666
v 0.018975 0.013334 0.009900
v 0.018521 0.011067 0.008933
v 0.016500 0.010493 0.009507
v 0.018975 0.010101 0.006666
v -0.200000 0.020000 0.010212
v -0.196500 0.016766 0.012661
v -0.196500 0.023234 0.012661
v -0.198975 0.017714 0.011714
v -0.198521 0.020000 0.012633
v -0.196500 0.020000 0.013445
v -0.198975 0.022287 0.011714
v 0.020000 0.020000 0.010212
v 0.016500 0.023234 0.012661
v 0.016500 0.016766 0.012661
v 0.018975 0.021894 0.012106
v 0.018521 0.020000 0.012749
v 0.016500 0.020000 0.013215
v 0.018975 0.018106 0.012106
v -0.200000 0.027221 0.007221
v -0.196500 0.026666 0.011239
v -0.196500 0.031239 0.006666
v -0.198975 0.027221 0.009899
v -0.198521 0.029015 0.009015
v -0.196500 0.029345 0.009345
v -0.198975 0.029900 0.007221
v 0.020000 0.027221 0.007221
v 0.016500 0.031239 0.006666
v 0.016500 0.026666 0.011239
v 0.018975 0.029900 0.007221
v 0.018521 0.029015 0.009015
v 0.016500 0.029345 0.009345
v 0.018975 0.027221 0.009899
v -0.200000 0.030212 0.000000
v -0.196500 0.032661 0.003234
v -0.196500 0.032661 -0.003234
v -0.198975 0.032106 0.001894
v -0.198521 0.032749 0.000000
v -0.196500 0.033215 0.000000
v -0.198975 0.032106 -0.001894
v 0.020000 0.030212 0.000000
v 0.016500 0.032661 -0.003234
v 0.016500 0.032661 0.003234
v 0.018975 0.032106 -0.001894
v 0.018521 0.032749 0.000000
v 0.016500 0.033215 0.000000
v 0.018975 0.032106 0.001894
v -0.200000 0.027221 -0.007221
v -0.196500 0.031239 -0.006666
v -0.196500 0.026666 -0.011239
v -0.198975 0.029899 -0.007221
v -0.198521 0.029015 -0.009015
v -0.196500 0.029345 -0.009345
v -0.198975 0.027221 -0.009899
v 0.020000 0.027221 -0.007221
v 0.016500 0.026666 -0.011239
v 0.016500 0.031239 -0.006666
v 0.018975 0.027221 -0.009900
v 0.018521 0.029015 -0.009015
v 0.016500 0.029345 -0.009345
v 0.018975 0.029900 -0.007221
v -0.570000 -0.058530 -0.081000
v -0.570000 -0.055000 -0.077500
v -0.570000 -0.056034 -0.079975
v -0.570000 -0.058530 -0.069000
v -0.570000 -0.055000 -0.072500
v -0.570000 -0.056034 -0.070025
v -0.548914 -0.061306 -0.081000
v -0.548000 -0.057896 -0.077500
v -0.548268 -0.058895 -0.079975
v -0.548914 -0.061306 -0.069000
v -0.548000 -0.057896 -0.072500
v -0.548268 -0.058895 -0.070025
v -0.529265 -0.069445 -0.081000
v -0.527500 -0.066388 -0.077500
v -0.528017 -0.067283 -0.079975
v -0.529265 -0.069445 -0.069000
v -0.527500 -0.066388 -0.072500
v -0.528017 -0.067283 -0.070025
v -0.512392 -0.082392 -0.081000
v -0.509896 -0.079896 -0.077500
v -0.510627 -0.080627 -0.079975
v -0.512392 -0.082392 -0.069000
v -0.509896 -0.079896 -0.072500
v -0.510627 -0.080627 -0.070025
v -0.499445 -0.099265 -0.081000
v -0.496388 -0.097500 -0.077500
v -0.497283 -0.098017 -0.079975
v -0.499445 -0.099265 -0.069000
v -0.496388 -0.097500 -0.072500
v -0.497283 -0.098017 -0.070025
v -0.491306 -0.118914 -0.081000
v -0.487896 -0.118000 -0.077500
v -0.488895 -0.118268 -0.079975
v -0.491306 -0.118914 -0.069000
v -0.487896 -0.118000 -0.072500
v -0.488895 -0.118268 -0.070025
v -0.488530 -0.140000 -0.081000
v -0.485000 -0.140000 -0.077500
v -0.486034 -0.140000 -0.079975
v -0.488530 -0.140000 -0.069000
v -0.485000 -0.140000 -0.072500
v -0.486034 -0.140000 -0.070025
v -0.491306 -0.161086 -0.081000
v -0.487896 -0.162000 -0.077500
v -0.488895 -0.161732 -0.079975
v -0.491306 -0.161086 -0.069000
v -0.487896 -0.162000 -0.072500
v -0.488895 -0.161732 -0.070025
v -0.499445 -0.180735 -0.081000
v -0.496388 -0.182500 -0.077500
v -0.497283 -0.181983 -0.079975
v -0.499445 -0.180735 -0.069000
v -0.496388 -0.182500 -0.072500
v -0.497283 -0.181983 -0.070025
v -0.512392 -0.197608 -0.081000
v -0.509896 -0.200104 -0.077500
v -0.510627 -0.199373 -0.079975
v -0.512392 -0.197608 -0.069000
v -0.509896 -0.200104 -0.072500
v -0.510627 -0.199373 -0.070025
v -0.529265 -0.210555 -0.081000
v -0.527500 -0.213612 -0.077500
v -0.528017 -0.212717 -0.079975
v -0.529265 -0.210555 -0.069000
v -0.527500 -0.213612 -0.072500
v -0.528017 -0.212717 -0.070025
v -0.548914 -0.218694 -0.081000
v -0.548000 -0.222104 -0.077500
v -0.548268 -0.221105 -0.079975
v -0.548914 -0.218694 -0.069000
v -0.548000 -0.222104 -0.072500
v -0.548268 -0.221105 -0.070025
v -0.570000 -0.221470 -0.081000
v -0.570000 -0.225000 -0.077500
v -0.570000 -0.223966 -0.079975
v -0.570000 -0.221470 -0.069000
v -0.570000 -0.225000 -0.072500
v -0.570000 -0.223966 -0.070025
v -0.591086 -0.218694 -0.081000
v -0.592000 -0.222104 -0.077500
v -0.591732 -0.221105 -0.079975
v -0.591086 -0.218694 -0.069000
v -0.592000 -0.222104 -0.072500
v -0.591732 -0.221105 -0.070025
v -0.610735 -0.210555 -0.081000
v -0.612500 -0.213612 -0.077500
v -0.611983 -0.212717 -0.079975
v -0.610735 -0.210555 -0.069000
v -0.612500 -0.213612 -0.072500
v -0.611983 -0.212717 -0.070025
v -0.627608 -0.197608 -0.081000
v -0.630104 -0.200104 -0.077500
v -0.629373 -0.199373 -0.079975
v -0.627608 -0.197608 -0.069000
v -0.630104 -0.200104 -0.072500
v -0.629373 -0.199373 -0.070025
v -0.640555 -0.180735 -0.081000
v -0.643612 -0.182500 -0.077500
v -0.642717 -0.181983 -0.079975
v -0.640555 -0.180735 -0.069000
v -0.643612 -0.182500 -0.072500
v -0.642717 -0.181983 -0.070025
v -0.648694 -0.161086 -0.081000
v -0.652104 -0.162000 -0.077500
v -0.651105 -0.161732 -0.079975
v -0.648694 -0.161086 -0.069000
v -0.652104 -0.162000 -0.072500
v -0.651105 -0.161732 -0.070025
v -0.651470 -0.140000 -0.081000
v -0.655000 -0.140000 -0.077500
v -0.653966 -0.140000 -0.079975
v -0.651470 -0.140000 -0.069000
v -0.655000 -0.140000 -0.072500
v -0.653966 -0.140000 -0.070025
v -0.648694 -0.118914 -0.081000
v -0.652104 -0.118000 -0.077500
v -0.651105 -0.118268 -0.079975
v -0.648694 -0.118914 -0.069000
v -0.652104 -0.118000 -0.072500
v -0.651105 -0.118268 -0.070025
v -0.640555 -0.099265 -0.081000
v -0.643612 -0.097500 -0.077500
v -0.642717 -0.098017 -0.079975
v -0.640555 -0.099265 -0.069000
v -0.643612 -0.097500 -0.072500
v -0.642717 -0.098017 -0.070025
v -0.627608 -0.082392 -0.081000
v -0.630104 -0.079896 -0.077500
v -0.629373 -0.080627 -0.079975
v -0.627608 -0.082392 -0.069000
v -0.630104 -0.079896 -0.072500
v -0.629373 -0.080627 -0.070025
v -0.610735 -0.069445 -0.081000
v -0.612500 -0.066388 -0.077500
v -0.611983 -0.067283 -0.079975
v -0.610735 -0.069445 -0.069000
v -0.612500 -0.066388 -0.072500
v -0.611983 -0.067283 -0.070025
v -0.591086 -0.061306 -0.081000
v -0.592000 -0.057896 -0.077500
v -0.591732 -0.058895 -0.079975
v -0.591086 -0.061306 -0.069000
v -0.592000 -0.057896 -0.072500
v -0.591732 -0.058895 -0.070025
v -0.421455 0.024991 -0.073500
v -0.421245 0.028485 -0.070000
v -0.424739 0.028695 -0.073500
v -0.421394 0.026014 -0.071025
v -0.423384 0.026589 -0.071479
v -0.423716 0.028633 -0.071025
v -0.423864 0.026163 -0.073500
v -0.421245 0.028485 -0.070000
v -0.421036 0.031979 -0.073500
v -0.424739 0.028695 -0.073500
v -0.421097 0.030955 -0.071025
v -0.423141 0.030623 -0.071479
v -0.423567 0.031104 -0.073500
v -0.423716 0.028633 -0.071025
v -0.421455 0.024991 -0.076500
v -0.424739 0.028695 -0.076500
v -0.421245 0.028485 -0.080000
v -0.423864 0.026163 -0.076500
v -0.423384 0.026589 -0.078521
v -0.423716 0.028633 -0.078975
v -0.421394 0.026015 -0.078975
v -0.421036 0.031979 -0.076500
v -0.421245 0.028485 -0.080000
v -0.424739 0.028695 -0.076500
v -0.421097 0.030955 -0.078975
v -0.423141 0.030623 -0.078521
v -0.423716 0.028633 -0.078975
v -0.423567 0.031104 -0.076500
v -0.138964 0.008021 -0.073500
v -0.135261 0.011305 -0.073500
v -0.138755 0.011515 -0.070000
v -0.136433 0.008896 -0.073500
v -0.136859 0.009377 -0.071479
v -0.136284 0.011367 -0.071025
v -0.138903 0.009045 -0.071025
v -0.138545 0.015009 -0.073500
v -0.138755 0.011515 -0.070000
v -0.135261 0.011305 -0.073500
v -0.138606 0.013986 -0.071025
v -0.136616 0.013411 -0.071479
v -0.136284 0.011367 -0.071025
v -0.136136 0.013837 -0.073500
v -0.138964 0.008021 -0.076500
v -0.138755 0.011515 -0.080000
v -0.135261 0.011305 -0.076500
v -0.138903 0.009045 -0.078975
v -0.136859 0.009377 -0.078521
v -0.136284 0.011367 -0.078975
v -0.136433 0.008896 -0.076500
v -0.138545 0.015009 -0.076500
v -0.135261 0.011305 -0.076500
v -0.138755 0.011515 -0.080000
v -0.136136 0.013837 -0.076500
v -0.136616 0.013411 -0.078521
v -0.136284 0.011367 -0.078975
v -0.138606 0.013986 -0.078975
v -0.421247 -0.089156 -0.073500
v -0.421387 -0.085658 -0.070000
v -0.424884 -0.085798 -0.073500
v -0.421288 -0.088131 -0.071025
v -0.423325 -0.087758 -0.071479
v -0.423860 -0.085757 -0.071025
v -0.423761 -0.088230 -0.073500
v -0.421387 -0.085658 -0.070000
v -0.421527 -0.082161 -0.073500
v -0.424884 -0.085798 -0.073500
v -0.421486 -0.083186 -0.071025
v -0.423487 -0.083720 -0.071479
v -0.423959 -0.083285 -0.073500
v -0.423860 -0.085757 -0.071025
v -0.421247 -0.089156 -0.076500
v -0.424884 -0.085798 -0.076500
v -0.421387 -0.085658 -0.080000
v -0.423761 -0.088230 -0.076500
v -0.423325 -0.087758 -0.078521
v -0.423860 -0.085757 -0.078975
v -0.421288 -0.088131 -0.078975
v -0.421527 -0.082161 -0.076500
v -0.421387 -0.085658 -0.080000
v -0.424884 -0.085798 -0.076500
v -0.421486 -0.083186 -0.078975
v -0.423487 -0.083720 -0.078521
v -0.423860 -0.085757 -0.078975
v -0.423959 -0.083285 -0.076500
v -0.138473 -0.077839 -0.073500
v -0.135116 -0.074202 -0.073500
v -0.138613 -0.074342 -0.070000
v -0.136041 -0.076715 -0.073500
v -0.136513 -0.076280 -0.071479
v -0.136140 -0.074243 -0.071025
v -0.138514 -0.076814 -0.071025
v -0.138753 -0.070844 -0.073500
v -0.138613 -0.074342 -0.070000
v -0.135116 -0.074202 -0.073500
v -0.138712 -0.071869 -0.071025
v -0.136675 -0.072242 -0.071479
v -0.136140 -0.074243 -0.071025
v -0.136239 -0.071770 -0.073500
v -0.138473 -0.077839 -0.076500
v -0.138613 -0.074342 -0.080000
v -0.135116 -0.074202 -0.076500
v -0.138514 -0.076814 -0.078975
v -0.136513 -0.076280 -0.078521
v -0.136140 -0.074243 -0.078975
v -0.136041 -0.076715 -0.076500
v -0.138753 -0.070844 -0.076500
v -0.135116 -0.074202 -0.076500
v -0.138613 -0.074341 -0.080000
v -0.136239 -0.071770 -0.076500
v -0.136675 -0.072242 -0.078521
v -0.136140 -0.074243 -0.078975
v -0.138712 -0.071869 -0.078975
vn -0.3179 0.5087 0.8001
vn 0.2054 0.0440 0.9777
vn 0.0627 0.6050 0.7937
vn 0.0277 -0.9530 0.3016
vn 0.3937 -0.8638 -0.3144
vn 0.4100 -0.8638 0.2928
vn -0.0863 -0.6080 -0.7893
vn 0.2954 -0.5171 -0.8034
vn 0.1527 0.0440 -0.9873
vn -0.3604 0.5087 -0.7819
vn 0.0200 0.6050 -0.7960
vn -0.0519 0.9518 -0.3024
vn -0.4157 0.8537 0.3135
vn -0.0356 0.9518 0.3048
vn 0.3381 -0.5171 0.7863
vn 0.9988 0.0265 -0.0421
vn 0.8976 0.4384 -0.0448
vn 0.9103 0.3598 0.2049
vn -0.9951 -0.0285 0.0950
vn -0.9207 -0.3587 -0.1541
vn -0.8949 -0.4366 0.0923
vn -0.0439 -0.6080 0.7928
vn -0.3604 0.5087 0.7819
vn 0.1527 0.0440 0.9873
vn 0.0200 0.6050 0.7960
vn 0.0115 -0.9530 0.3027
vn 0.4100 -0.8638 -0.2928
vn 0.3937 -0.8638 0.3144
vn 0.0277 -0.9530 -0.3016
vn 0.3381 -0.5171 -0.7863
vn -0.1759 -0.0496 -0.9832
vn 0.2054 0.0440 -0.9777
vn 0.0627 0.6050 -0.7937
vn -0.3179 0.5087 -0.8001
vn -0.0356 0.9518 -0.3048
vn -0.4157 0.8537 -0.3135
vn -0.0519 0.9518 0.3024
vn -0.4320 0.8537 0.2908
vn 0.2954 -0.5171 0.8034
vn -0.0000 -1.0000 -0.0000
vn -0.9987 -0.0285 0.0415
vn -0.9111 -0.3587 -0.2033
vn -0.8986 -0.4366 0.0442
vn -0.2284 -0.0496 0.9723
vn -0.0000 -0.0000 1.0000
vn 1.0000 -0.0000 -0.0000
vn 0.3454 -0.9360 -0.0686
vn 0.7016 -0.7093 -0.0686
vn 0.6336 -0.7526 0.1796
vn -0.0000 1.0000 -0.0000
vn -1.0000 -0.0000 -0.0000
vn -0.0000 -0.0000 -1.0000
vn 0.3808 0.4751 0.7933
vn 0.1054 -0.1657 0.9805
vn 0.5917 0.1438 0.7933
vn -0.8922 -0.3350 0.3030
vn -0.6813 -0.6663 -0.3030
vn -0.6813 -0.6663 0.3030
vn -0.8922 -0.3350 -0.3030
vn -0.3808 -0.4751 -0.7933
vn -0.1054 0.1657 -0.9805
vn 0.1054 -0.1657 -0.9805
vn 0.5917 0.1438 -0.7933
vn 0.3808 0.4751 -0.7933
vn 0.8922 0.3350 -0.3030
vn 0.6813 0.6663 -0.3030
vn 0.8922 0.3350 0.3030
vn -0.3808 -0.4751 0.7933
vn -0.9583 -0.2021 0.2021
vn -0.9651 0.1834 0.1868
vn -0.9651 0.1834 -0.1868
vn -0.3454 0.9360 0.0686
vn -0.6336 0.7526 -0.1796
vn -0.7016 0.7093 0.0686
vn -0.1054 0.1657 0.9805
vn -0.1873 0.4561 -0.8700
vn 0.2171 0.3128 -0.9247
vn -0.2171 0.3128 -0.9247
vn -0.1873 -0.9377 0.2927
vn 0.2171 -0.8750 0.4326
vn -0.2171 -0.8750 0.4326
vn -0.2171 -0.4326 0.8750
vn 0.1873 -0.2927 0.9377
vn -0.2168 -0.3127 0.9248
vn 0.1776 0.2857 0.9417
vn -0.1873 0.4561 0.8700
vn -0.2168 0.3127 0.9248
vn -0.1776 0.8679 0.4639
vn 0.1776 0.9417 0.2857
vn -0.1776 0.9417 0.2857
vn 0.1776 0.9417 -0.2857
vn -0.1776 0.8679 -0.4639
vn -0.1776 0.9417 -0.2857
vn -0.2171 -0.8750 -0.4326
vn 0.1873 -0.9377 -0.2927
vn -0.1873 -0.9377 -0.2927
vn 0.2019 -0.0541 -0.9779
vn -0.1478 -0.1478 -0.9779
vn -0.0541 0.2019 -0.9779
vn 0.9652 0.2614 -0.0000
vn 0.9651 -0.0024 0.2618
vn 0.9650 -0.2622 -0.0000
vn 0.2171 -0.3128 -0.9247
vn -0.2171 -0.4326 -0.8750
vn -0.2171 -0.3128 -0.9247
vn -0.2539 0.9477 0.1935
vn -0.0000 0.9811 -0.1935
vn -0.2539 0.9477 -0.1935
vn 0.4905 0.8497 -0.1935
vn 0.6937 0.6937 0.1935
vn 0.6937 0.6937 -0.1935
vn 0.8497 0.4905 -0.1935
vn 0.8497 0.4905 0.1935
vn 0.9477 0.2539 -0.1935
vn 0.9477 0.2539 0.1935
vn 0.9811 -0.0000 -0.1935
vn 0.9811 -0.0000 0.1935
vn 0.9477 -0.2539 -0.1935
vn 0.8497 -0.4905 0.1935
vn 0.8497 -0.4905 -0.1935
vn 0.6937 -0.6937 0.1935
vn 0.6937 -0.6937 -0.1935
vn 0.4905 -0.8497 -0.1935
vn 0.4905 -0.8497 0.1935
vn 0.2539 -0.9477 -0.1935
vn 0.2539 -0.9477 0.1935
vn -0.0000 -0.9811 -0.1935
vn -0.0000 -0.9811 0.1935
vn -0.2539 -0.9477 -0.1935
vn -0.2539 -0.9477 0.1935
vn -0.4905 -0.8497 -0.1935
vn -0.4906 -0.8497 0.1935
vn -0.6937 -0.6937 -0.1935
vn -0.6937 -0.6937 0.1935
vn -0.8497 -0.4906 -0.1935
vn -0.9477 -0.2539 0.1935
vn -0.9477 -0.2539 -0.1935
vn -0.9811 -0.0000 0.1935
vn -0.9811 -0.0000 -0.1935
vn -0.9477 0.2539 0.1935
vn -0.9477 0.2539 -0.1935
vn -0.8497 0.4905 0.1935
vn -0.8497 0.4905 -0.1935
vn -0.6937 0.6937 0.1935
vn -0.6937 0.6937 -0.1935
vn -0.4906 0.8497 0.1935
vn -0.4905 0.8497 -0.1935
vn 0.2539 0.9477 -0.1935
vn 0.4905 0.8497 0.1935
vn -0.0600 -0.9982 -0.0000
vn -0.2090 -0.0000 0.9779
vn 0.1045 -0.1810 0.9779
vn 0.1045 0.1810 0.9779
vn 0.2539 0.9477 0.1935
vn 0.6987 0.7154 -0.0000
vn 0.0400 -0.9992 -0.0000
vn 0.0600 0.9982 -0.0000
vn -0.0400 0.9992 -0.0000
vn -0.5456 -0.8380 -0.0000
vn -0.3672 -0.8864 0.2818
vn -0.2818 -0.3672 0.8865
vn -0.8865 -0.2818 0.3672
vn -0.3672 0.2817 0.8865
vn -0.2818 0.8865 0.3672
vn -0.8864 0.3672 0.2818
vn -0.2818 -0.8865 -0.3672
vn -0.8864 -0.3672 -0.2818
vn -0.3672 -0.2817 -0.8865
vn -0.3672 0.8864 -0.2818
vn -0.2818 0.3672 -0.8865
vn -0.8865 0.2818 -0.3672
vn 0.2817 -0.8865 0.3672
vn 0.8865 -0.3672 0.2817
vn 0.3672 -0.2817 0.8865
vn 0.3672 0.8864 0.2818
vn 0.2817 0.3672 0.8865
vn 0.8865 0.2818 0.3672
vn 0.3672 -0.8865 -0.2817
vn 0.2817 -0.3672 -0.8865
vn 0.8865 -0.2817 -0.3672
vn 0.2818 0.8865 -0.3672
vn 0.8865 0.3672 -0.2817
vn 0.3672 0.2818 -0.8865
vn -0.9583 -0.0000 -0.2858
vn -0.6044 -0.0000 -0.7967
vn -0.7130 -0.2173 -0.6667
vn -0.7132 0.2128 -0.6679
vn -0.1848 -0.0000 -0.9828
vn 0.9583 -0.0000 -0.2858
vn 0.6044 -0.0000 -0.7967
vn 0.7132 0.2128 -0.6679
vn 0.7129 -0.2173 -0.6667
vn 0.1848 -0.0000 -0.9828
vn -0.9583 -0.2021 -0.2021
vn -0.6044 -0.5634 -0.5634
vn -0.7132 -0.6228 -0.3218
vn -0.7129 -0.3178 -0.6251
vn -0.1847 -0.6949 -0.6949
vn 0.9583 -0.2021 -0.2021
vn 0.6044 -0.5633 -0.5633
vn 0.7130 -0.3178 -0.6251
vn 0.2171 -0.8750 -0.4326
vn 0.7132 -0.6228 -0.3218
vn 0.2171 -0.4326 -0.8750
vn 0.1847 -0.6949 -0.6949
vn -0.9650 -0.2622 -0.0000
vn -0.5190 -0.8548 -0.0000
vn -0.6792 -0.7080 0.1935
vn -0.1346 -0.9909 -0.0000
vn -0.6792 -0.7080 -0.1935
vn 0.5190 -0.8548 -0.0000
vn 0.6792 -0.7080 -0.1935
vn 0.1346 -0.9909 -0.0000
vn 0.6792 -0.7080 0.1935
vn 0.1873 -0.9377 0.2927
vn -0.6044 -0.5633 0.5633
vn -0.7129 -0.3178 0.6251
vn -0.7132 -0.6228 0.3218
vn -0.1847 -0.6949 0.6949
vn 0.9583 -0.2021 0.2021
vn 0.6044 -0.5633 0.5633
vn 0.7132 -0.6228 0.3218
vn 0.2171 -0.4326 0.8750
vn 0.7132 -0.3218 0.6228
vn 0.1848 -0.6949 0.6949
vn -0.9583 -0.0000 0.2858
vn -0.6044 -0.0000 0.7967
vn -0.7132 0.2128 0.6679
vn -0.7129 -0.2173 0.6667
vn -0.1842 -0.0000 0.9829
vn 0.5190 -0.0000 0.8548
vn 0.6792 -0.1935 0.7080
vn 0.1346 -0.0000 0.9909
vn 0.6776 0.1815 0.7127
vn -0.5190 0.6044 0.6044
vn -0.6776 0.6323 0.3756
vn -0.1346 0.7007 0.7007
vn -0.6792 0.3638 0.6374
vn 0.9652 0.1849 0.1849
vn 0.5190 0.6044 0.6044
vn 0.6776 0.3756 0.6323
vn 0.1346 0.7007 0.7007
vn 0.6776 0.6323 0.3756
vn 0.1776 0.8679 0.4639
vn 0.1776 0.4639 0.8679
vn -0.9652 0.2614 -0.0000
vn -0.5189 0.8548 -0.0000
vn -0.6776 0.7127 -0.1815
vn -0.1346 0.9909 -0.0000
vn -0.6776 0.7127 0.1815
vn 0.5189 0.8548 -0.0000
vn 0.6776 0.7127 0.1815
vn 0.1346 0.9909 -0.0000
vn 0.6776 0.7127 -0.1815
vn -0.5190 0.6044 -0.6044
vn -0.6792 0.3638 -0.6374
vn -0.1346 0.7007 -0.7007
vn -0.6776 0.6323 -0.3756
vn 0.9651 0.1834 -0.1868
vn 0.5190 0.6044 -0.6044
vn 0.6776 0.6323 -0.3756
vn 0.1346 0.7007 -0.7007
vn 0.6792 0.3638 -0.6374
vn 0.1873 0.4561 -0.8700
vn 0.1776 0.8679 -0.4639
vn -0.4197 -0.8628 0.2817
vn -0.3033 -0.3496 0.8865
vn -0.9018 -0.2281 0.3672
vn -0.3496 0.3033 0.8864
vn -0.2281 0.9018 0.3672
vn -0.8628 0.4197 0.2818
vn -0.3344 -0.8680 -0.3672
vn -0.9069 -0.3134 -0.2817
vn -0.3834 -0.2592 -0.8865
vn -0.3134 0.9069 -0.2818
vn -0.2592 0.3834 -0.8865
vn -0.8680 0.3344 -0.3672
vn 0.2281 -0.9018 0.3672
vn 0.8628 -0.4197 0.2817
vn 0.3496 -0.3033 0.8864
vn 0.4197 0.8628 0.2818
vn 0.3033 0.3496 0.8865
vn 0.9017 0.2281 0.3672
vn 0.3134 -0.9069 -0.2817
vn 0.2592 -0.3834 -0.8865
vn 0.8680 -0.3344 -0.3672
vn 0.3344 0.8680 -0.3672
vn 0.9069 0.3134 -0.2817
vn 0.3834 0.2592 -0.8865
vn -0.3314 -0.9004 0.2817
vn -0.2668 -0.3782 0.8864
vn -0.8745 -0.3170 0.3671
vn -0.3782 0.2668 0.8865
vn -0.3170 0.8745 0.3672
vn -0.9004 0.3314 0.2818
vn -0.2461 -0.8970 -0.3672
vn -0.8711 -0.4023 -0.2818
vn -0.3556 -0.2962 -0.8864
vn -0.4023 0.8711 -0.2818
vn -0.2962 0.3556 -0.8865
vn -0.8970 0.2461 -0.3672
vn 0.3170 -0.8745 0.3672
vn 0.9004 -0.3314 0.2817
vn 0.3782 -0.2668 0.8864
vn 0.3314 0.9004 0.2817
vn 0.2668 0.3781 0.8865
vn 0.8745 0.3170 0.3672
vn 0.4023 -0.8711 -0.2817
vn 0.2962 -0.3556 -0.8865
vn 0.8970 -0.2461 -0.3672
vn 0.2461 0.8970 -0.3672
vn 0.8711 0.4023 -0.2817
vn 0.3556 0.2962 -0.8865
vn 0.6784 0.1618 0.7166
vn 0.7776 -0.2575 0.5736
vn 0.9523 0.2324 0.1975
vn -0.1759 -0.0496 0.9832
vn -0.5510 -0.5782 0.6017
vn -0.9409 -0.2326 0.2463
vn -0.9111 -0.3587 0.2033
vn 0.9988 0.0264 0.0421
vn 0.9824 0.1051 0.1541
vn -0.4980 -0.8340 0.2376
vn 0.8313 -0.5167 0.2048
vn 0.8192 -0.5167 -0.2491
vn -0.5100 -0.8340 -0.2105
vn 0.0115 -0.9530 -0.3027
vn -0.8986 -0.4366 -0.0442
vn 0.7457 -0.2575 -0.6145
vn 0.9951 0.0264 -0.0957
vn -0.5825 -0.5782 -0.5713
vn 0.6390 0.1618 -0.7520
vn 0.9404 0.2324 -0.2483
vn 0.9728 0.1051 -0.2066
vn -0.2284 -0.0496 -0.9723
vn -0.6879 -0.1642 -0.7070
vn -0.9527 -0.2326 -0.1954
vn 0.5399 0.5811 -0.6090
vn -0.7858 0.2498 -0.5659
vn -0.9826 -0.1064 -0.1524
vn 0.4861 0.8403 -0.2401
vn 0.9103 0.3597 -0.2049
vn -0.8388 0.5057 -0.2017
vn -0.4320 0.8537 -0.2908
vn -0.9987 -0.0285 -0.0415
vn 0.8976 0.4384 0.0448
vn 0.8939 0.4384 -0.0929
vn -0.8268 0.5057 0.2464
vn 0.4983 0.8403 0.2137
vn 0.9200 0.3597 0.1558
vn -0.7543 0.2498 0.6072
vn -0.9730 -0.1064 0.2049
vn 0.5718 0.5811 0.5791
vn -0.6489 -0.1642 0.7429
vn 0.6390 0.1618 0.7520
vn 0.7457 -0.2575 0.6145
vn 0.9404 0.2324 0.2484
vn -0.0863 -0.6080 0.7893
vn -0.6879 -0.1642 0.7070
vn -0.5825 -0.5782 0.5713
vn -0.9527 -0.2325 0.1954
vn -0.9207 -0.3587 0.1541
vn 0.8192 -0.5167 0.2491
vn 0.9728 0.1051 0.2066
vn -0.5100 -0.8340 0.2105
vn 0.9951 0.0264 0.0957
vn -0.4980 -0.8340 -0.2376
vn -0.8949 -0.4366 -0.0923
vn 0.7776 -0.2575 -0.5736
vn 0.8313 -0.5167 -0.2048
vn -0.5511 -0.5782 -0.6017
vn -0.0439 -0.6080 -0.7928
vn 0.9523 0.2324 -0.1976
vn 0.9824 0.1051 -0.1541
vn -0.6489 -0.1642 -0.7429
vn -0.9409 -0.2326 -0.2463
vn 0.6784 0.1618 -0.7166
vn 0.9199 0.3597 -0.1558
vn -0.7543 0.2498 -0.6072
vn -0.9730 -0.1064 -0.2049
vn 0.4983 0.8403 -0.2137
vn 0.5718 0.5811 -0.5791
vn -0.8268 0.5057 -0.2464
vn -0.9951 -0.0285 -0.0950
vn 0.4861 0.8403 0.2401
vn -0.8388 0.5057 0.2017
vn 0.5399 0.5811 0.6090
vn 0.8939 0.4384 0.0929
vn -0.7858 0.2498 0.5658
vn -0.9826 -0.1064 0.1524
vn -0.3827 -0.9239 -0.0000
vn -0.9239 -0.3827 -0.0000
vn -0.3827 -0.0000 0.9239
vn -0.9239 -0.0000 0.3827
vn -0.3827 0.9239 -0.0000
vn -0.9239 0.3827 -0.0000
vn -0.3827 -0.0000 -0.9239
vn -0.9239 -0.0000 -0.3827
vn -0.0000 -0.9239 -0.3827
vn -0.0000 -0.3827 -0.9239
vn -0.0000 0.9239 -0.3827
vn -0.0000 0.3827 -0.9239
vn 0.9239 -0.0000 -0.3827
vn 0.3827 -0.0000 -0.9239
vn 0.3827 -0.9239 -0.0000
vn 0.9239 -0.3827 -0.0000
vn 0.3827 0.9239 -0.0000
vn 0.9239 0.3827 -0.0000
vn 0.3827 -0.0000 0.9239
vn 0.9239 -0.0000 0.3827
vn -0.0000 -0.9239 0.3827
vn -0.0000 -0.3827 0.9239
vn -0.0000 0.9239 0.3827
vn -0.0000 0.3827 0.9239
vn 0.3670 -0.5767 0.7299
vn 0.4134 -0.8927 0.1796
vn 0.5235 -0.8226 0.2220
vn -0.7289 0.3463 0.5905
vn -0.5917 -0.1438 0.7933
vn -0.3670 0.5767 0.7299
vn -0.6336 0.7526 0.1796
vn -0.2187 -0.9494 0.2256
vn 0.0050 -0.8070 0.5905
vn 0.3454 -0.9360 0.0686
vn -0.9526 0.2040 0.2256
vn -0.2187 -0.9494 -0.2256
vn -0.9526 0.2040 -0.2256
vn -0.7016 0.7093 -0.0686
vn 0.4134 -0.8927 -0.1796
vn -0.7289 0.3463 -0.5905
vn -0.5917 -0.1438 -0.7933
vn 0.3670 -0.5767 -0.7299
vn 0.0050 -0.8070 -0.5905
vn 0.5235 -0.8226 -0.2220
vn -0.3670 0.5767 -0.7299
vn -0.5235 0.8226 -0.2220
vn 0.7289 -0.3463 -0.5905
vn 0.6336 -0.7526 -0.1796
vn -0.0050 0.8070 -0.5905
vn -0.4134 0.8927 -0.1796
vn 0.2187 0.9494 -0.2256
vn -0.3454 0.9360 -0.0686
vn 0.9526 -0.2040 -0.2256
vn 0.9526 -0.2040 0.2256
vn 0.6813 0.6663 0.3030
vn 0.2187 0.9494 0.2256
vn 0.7289 -0.3463 0.5905
vn 0.7016 -0.7093 0.0686
vn -0.0050 0.8070 0.5905
vn -0.4134 0.8927 0.1796
vn -0.5235 0.8226 0.2220
vn 0.1864 0.6957 -0.6937
vn -0.0000 0.7203 -0.6937
vn 0.0541 0.2019 -0.9779
vn -0.0000 0.2090 -0.9779
vn -0.0000 0.9811 0.1935
vn 0.1864 0.6958 0.6937
vn -0.0000 0.2090 0.9779
vn 0.0541 0.2019 0.9779
vn 0.1045 0.1810 -0.9779
vn 0.3601 0.6238 0.6937
vn 0.5093 0.5093 -0.6937
vn 0.3601 0.6238 -0.6937
vn 0.1478 0.1478 -0.9779
vn 0.5093 0.5093 0.6937
vn 0.1478 0.1478 0.9779
vn 0.1810 0.1045 -0.9779
vn 0.6238 0.3601 0.6937
vn 0.1810 0.1045 0.9779
vn 0.6238 0.3601 -0.6937
vn 0.2019 0.0541 -0.9779
vn 0.6957 0.1864 0.6937
vn 0.2019 0.0541 0.9779
vn 0.6957 0.1864 -0.6937
vn 0.2090 -0.0000 -0.9779
vn 0.7203 -0.0000 0.6937
vn 0.2090 -0.0000 0.9779
vn 0.7203 -0.0000 -0.6937
vn 0.9477 -0.2539 0.1935
vn 0.6957 -0.1864 0.6937
vn 0.2019 -0.0541 0.9779
vn 0.6238 -0.3601 -0.6937
vn 0.6957 -0.1864 -0.6937
vn 0.6238 -0.3601 0.6937
vn 0.1810 -0.1045 0.9779
vn 0.5093 -0.5093 -0.6937
vn 0.1478 -0.1478 -0.9779
vn 0.1810 -0.1045 -0.9779
vn 0.5093 -0.5093 0.6937
vn 0.1478 -0.1478 0.9779
vn 0.1045 -0.1810 -0.9779
vn 0.3601 -0.6238 0.6937
vn 0.3601 -0.6238 -0.6937
vn 0.0541 -0.2019 -0.9779
vn 0.1864 -0.6957 0.6937
vn 0.0541 -0.2019 0.9779
vn 0.1864 -0.6957 -0.6937
vn -0.0000 -0.7203 -0.6937
vn -0.0000 -0.7203 0.6937
vn -0.0000 -0.2090 0.9779
vn -0.1864 -0.6957 -0.6937
vn -0.0000 -0.2090 -0.9779
vn -0.1864 -0.6957 0.6937
vn -0.0541 -0.2019 0.9779
vn -0.3601 -0.6238 -0.6937
vn -0.0541 -0.2019 -0.9779
vn -0.3601 -0.6238 0.6937
vn -0.1045 -0.1810 0.9779
vn -0.1045 -0.1810 -0.9779
vn -0.5093 -0.5093 0.6937
vn -0.1478 -0.1478 0.9779
vn -0.5093 -0.5093 -0.6937
vn -0.1810 -0.1045 -0.9779
vn -0.8497 -0.4906 0.1935
vn -0.6238 -0.3601 0.6937
vn -0.1810 -0.1045 0.9779
vn -0.6238 -0.3601 -0.6937
vn -0.6957 -0.1864 -0.6937
vn -0.6957 -0.1864 0.6937
vn -0.2019 -0.0541 0.9779
vn -0.7203 -0.0000 -0.6937
vn -0.2019 -0.0541 -0.9779
vn -0.7203 -0.0000 0.6937
vn -0.6957 0.1864 -0.6937
vn -0.2090 -0.0000 -0.9779
vn -0.6957 0.1864 0.6937
vn -0.2019 0.0541 0.9779
vn -0.1810 0.1045 -0.9779
vn -0.2019 0.0541 -0.9779
vn -0.6238 0.3601 0.6937
vn -0.1810 0.1045 0.9779
vn -0.5093 0.5093 -0.6937
vn -0.6238 0.3601 -0.6937
vn -0.1478 0.1478 -0.9779
vn -0.5093 0.5093 0.6937
vn -0.1478 0.1478 0.9779
vn -0.3601 0.6238 -0.6937
vn -0.3601 0.6238 0.6937
vn -0.1045 0.1810 0.9779
vn -0.1045 0.1810 -0.9779
vn -0.1864 0.6957 0.6937
vn -0.0541 0.2019 0.9779
vn -0.1864 0.6957 -0.6937
vn -0.0000 0.7203 0.6937
vn -0.4374 -0.8993 -0.0000
vn -0.9452 -0.3266 -0.0000
vn -0.0000 0.9677 0.2521
vn -0.3266 0.9452 -0.0000
vn -0.8993 0.4374 -0.0000
vn -0.0554 -0.9222 -0.3827
vn -0.0229 -0.3820 -0.9239
vn 0.0554 0.9222 -0.3827
vn 0.0229 0.3820 -0.9239
vn 0.7454 0.5963 -0.2981
vn 0.4903 -0.0000 -0.8716
vn 0.3266 -0.9452 -0.0000
vn 0.8993 -0.4374 -0.0000
vn 0.4374 0.8993 -0.0000
vn 0.9452 0.3266 -0.0000
vn 0.4104 -0.0000 0.9119
vn 0.6776 0.6852 0.2672
vn -0.0554 -0.9222 0.3827
vn -0.0229 -0.3820 0.9239
vn 0.0554 0.9222 0.3827
vn 0.0229 0.3820 0.9239
vn -0.3454 -0.9384 -0.0000
vn -0.9078 -0.4193 -0.0000
vn -0.3714 -0.0000 0.9285
vn -0.9487 -0.0000 0.3162
vn -0.4193 0.9078 -0.0000
vn -0.9384 0.3454 -0.0000
vn -0.3714 -0.0000 -0.9285
vn -0.3635 -0.9089 -0.2045
vn 0.0369 -0.9231 -0.3827
vn 0.0153 -0.3824 -0.9239
vn -0.0369 0.9231 -0.3827
vn -0.0153 0.3824 -0.9239
vn 0.8831 -0.0000 -0.4692
vn 0.3708 -0.0000 -0.9287
vn 0.4193 -0.9078 -0.0000
vn 0.9384 -0.3454 -0.0000
vn 0.3454 0.9384 -0.0000
vn 0.9078 0.4193 -0.0000
vn 0.3639 -0.0000 0.9314
vn 0.8831 -0.0000 0.4692
vn 0.0369 -0.9231 0.3827
vn 0.0153 -0.3824 0.9239
vn -0.0369 0.9231 0.3827
vn -0.0153 0.3824 0.9239
vn 0.7516 0.6597 -0.0000
vn 0.8901 0.4557 -0.0000
vn -0.0088 0.3880 -0.9216
vn -0.2818 -0.8865 0.3672
vn -0.3672 -0.2817 0.8865
vn -0.8864 -0.3672 0.2818
vn -0.2818 0.3672 0.8865
vn -0.3672 0.8864 0.2818
vn -0.8865 0.2818 0.3672
vn -0.3672 -0.8864 -0.2818
vn -0.8865 -0.2818 -0.3672
vn -0.2817 -0.3672 -0.8865
vn -0.2818 0.8865 -0.3672
vn -0.3672 0.2817 -0.8865
vn -0.8864 0.3672 -0.2818
vn 0.3672 -0.8865 0.2818
vn 0.8865 -0.2818 0.3672
vn 0.2817 -0.3672 0.8865
vn 0.2818 0.8865 0.3672
vn 0.3672 0.2817 0.8865
vn 0.8865 0.3672 0.2817
vn 0.2817 -0.8865 -0.3672
vn 0.3672 -0.2817 -0.8865
vn 0.8865 -0.3672 -0.2817
vn 0.3672 0.8864 -0.2818
vn 0.8865 0.2817 -0.3672
vn 0.2818 0.3672 -0.8865
vn -0.3344 -0.8680 0.3672
vn -0.3834 -0.2592 0.8865
vn -0.9069 -0.3134 0.2817
vn -0.2592 0.3834 0.8865
vn -0.3134 0.9069 0.2817
vn -0.8680 0.3344 0.3672
vn -0.4197 -0.8628 -0.2818
vn -0.9017 -0.2281 -0.3672
vn -0.3033 -0.3496 -0.8864
vn -0.2281 0.9018 -0.3672
vn -0.3496 0.3033 -0.8865
vn -0.8628 0.4197 -0.2818
vn 0.3134 -0.9069 0.2818
vn 0.8680 -0.3344 0.3672
vn 0.2592 -0.3834 0.8865
vn 0.3344 0.8680 0.3672
vn 0.3834 0.2592 0.8865
vn 0.9069 0.3134 0.2817
vn 0.2281 -0.9018 -0.3672
vn 0.3496 -0.3033 -0.8865
vn 0.8628 -0.4197 -0.2818
vn 0.4197 0.8628 -0.2817
vn 0.9017 0.2281 -0.3672
vn 0.3033 0.3496 -0.8865
vn -0.2461 -0.8970 0.3672
vn -0.3556 -0.2962 0.8864
vn -0.8711 -0.4023 0.2817
vn -0.2962 0.3556 0.8865
vn -0.4023 0.8711 0.2817
vn -0.8970 0.2461 0.3672
vn -0.3314 -0.9004 -0.2818
vn -0.8745 -0.3170 -0.3672
vn -0.2668 -0.3782 -0.8864
vn -0.3170 0.8745 -0.3672
vn -0.3781 0.2668 -0.8865
vn -0.9004 0.3314 -0.2818
vn 0.4023 -0.8711 0.2817
vn 0.8970 -0.2461 0.3672
vn 0.2962 -0.3556 0.8865
vn 0.2461 0.8970 0.3672
vn 0.3556 0.2962 0.8865
vn 0.8711 0.4023 0.2817
vn 0.3170 -0.8745 -0.3672
vn 0.3782 -0.2668 -0.8865
vn 0.9004 -0.3314 -0.2817
vn 0.3314 0.9004 -0.2817
vn 0.8745 0.3170 -0.3672
vn 0.2668 0.3782 -0.8865
vn -0.0000 0.9997 0.0250
vn 0.4095 0.8979 -0.1614
vn 0.3820 -0.0000 -0.9242
vn 0.3542 -0.0000 0.9352
vn 0.9285 -0.0000 0.3714
vn -0.3633 -0.0000 0.9317
vn -0.3597 -0.9093 0.2091
vn -0.3278 -0.1873 -0.9260
vn -0.4936 -0.8484 -0.1913
vn 0.7672 0.4848 0.4200
s 1
usemtl Alloy
f 59//1 2//2 56//3
f 17//4 20//5 14//6
f 20//5 29//7 26//8
f 29//7 32//9 26//8
f 32//9 41//10 38//11
f 41//10 44//12 38//11
f 44//12 53//13 50//14
f 53//13 56//3 50//14
f 8//15 17//4 14//6
f 79//16 103//17 115//18
f 52//19 28//20 16//21
f 2//2 11//22 8//15
f 119//23 62//24 116//25
f 77//26 80//27 74//28
f 83//29 86//30 80//27
f 86//30 95//31 92//32
f 95//31 98//33 92//32
f 101//34 104//35 98//33
f 107//36 110//37 104//35
f 113//38 116//25 110//37
f 68//39 77//26 74//28
s 0
f 163//40 121//40 135//40
s 1
f 112//41 88//42 76//43
f 65//44 68//39 62//24
s 0
f 151//45 128//45 122//45
f 171//46 150//46 165//46
f 142//50 156//50 170//50
f 130//51 136//51 123//51
f 143//52 164//52 137//52
s 1
f 391//97 439//98 487//99
f 491//106 350//107 488//108
f 362//109 371//110 368//111
f 371//110 374//112 368//111
f 377//113 380//114 374//112
f 383//115 386//116 380//114
f 389//117 392//118 386//116
f 392//118 401//119 398//120
f 398//120 407//121 404//122
f 407//121 410//123 404//122
f 413//124 416//125 410//123
f 419//126 422//127 416//125
f 425//128 428//129 422//127
f 431//130 434//131 428//129
f 437//132 440//133 434//131
f 443//134 446//135 440//133
f 446//135 455//136 452//137
f 452//137 461//138 458//139
f 458//139 467//140 464//141
f 464//141 473//142 470//143
f 470//143 479//144 476//145
f 476//145 485//146 482//147
f 482//147 491//106 488//108
f 356//148 365//149 362//109
f 460//151 412//152 364//153
f 350//107 359//154 356//148
s 0
f 121//160 125//160 127//160
f 122//161 125//161 124//161
f 123//162 125//162 126//162
f 128//163 132//163 134//163
f 129//164 132//164 131//164
f 130//165 132//165 133//165
f 135//166 139//166 141//166
f 136//167 139//167 138//167
f 137//168 139//168 140//168
f 142//169 146//169 148//169
f 143//170 146//170 145//170
f 144//171 146//171 147//171
f 149//172 153//172 155//172
f 150//173 153//173 152//173
f 151//174 153//174 154//174
f 156//175 160//175 162//175
f 157//176 160//176 159//176
f 158//177 160//177 161//177
f 163//178 167//178 169//178
f 164//179 167//179 166//179
f 165//180 167//180 168//180
f 170//181 174//181 176//181
f 171//182 174//182 173//182
f 172//183 174//183 175//183
s 1
f 8//15 3//314 2//2
f 9//315 1//316 3//314
f 5//317 12//318 11//22
f 12//318 4//319 10//320
f 14//6 9//315 8//15
f 9//315 13//321 7//322
f 11//22 18//323 17//4
f 12//318 16//21 18//323
f 20//5 15//324 14//6
f 21//325 13//321 15//324
f 17//4 24//326 23//327
f 24//326 16//21 22//328
f 20//5 27//329 21//325
f 27//329 19//330 21//325
f 23//327 30//331 29//7
f 24//326 28//20 30//331
f 26//8 33//332 27//329
f 27//329 31//333 25//334
f 35//335 30//331 36//336
f 36//336 28//20 34//337
f 32//9 39//338 33//332
f 39//338 31//333 33//332
f 41//10 36//336 42//339
f 36//336 40//340 42//339
f 38//11 45//341 39//338
f 45//341 37//342 39//338
f 41//10 48//343 47//344
f 48//343 40//340 46//345
f 50//14 45//341 44//12
f 45//341 49//346 43//347
f 53//13 48//343 54//348
f 48//343 52//19 54//348
f 56//3 51//349 50//14
f 51//349 55//350 49//346
f 59//1 54//348 60//351
f 60//351 52//19 58//352
f 2//2 57//353 56//3
f 3//314 55//350 57//353
f 59//1 6//354 5//317
f 6//354 58//352 4//319
f 68//39 63//355 62//24
f 69//356 61//357 63//355
f 71//358 66//359 72//360
f 72//360 64//361 70//362
f 74//28 69//356 68//39
f 75//363 67//364 69//356
f 77//26 72//360 78//365
f 78//365 70//362 76//43
f 80//27 75//363 74//28
f 75//363 79//16 73//366
f 83//29 78//365 84//367
f 84//367 76//43 82//368
f 80//27 87//369 81//370
f 87//369 79//16 81//370
f 83//29 90//371 89//372
f 90//371 82//368 88//42
f 92//32 87//369 86//30
f 87//369 91//373 85//374
f 95//31 90//371 96//375
f 96//375 88//42 94//376
f 98//33 93//377 92//32
f 93//377 97//378 91//373
f 95//31 102//379 101//34
f 102//379 94//376 100//380
f 98//33 105//381 99//382
f 105//381 97//378 99//382
f 107//36 102//379 108//383
f 102//379 106//384 108//383
f 104//35 111//385 105//381
f 111//385 103//17 105//381
f 107//36 114//386 113//38
f 108//383 112//41 114//386
f 110//37 117//387 111//385
f 117//387 109//388 111//385
f 119//23 114//386 120//389
f 114//386 118//390 120//389
f 116//25 63//355 117//387
f 117//387 61//357 115//18
f 65//44 120//389 66//359
f 66//359 118//390 64//361
s 0
f 121//391 138//391 135//391
f 138//392 123//392 136//392
f 128//393 126//393 122//393
f 134//394 123//394 126//394
f 142//395 133//395 129//395
f 148//396 130//396 133//396
f 137//397 147//397 143//397
f 140//398 144//398 147//398
f 135//399 166//399 163//399
f 141//400 164//400 166//400
f 170//401 145//401 142//401
f 176//402 143//402 145//402
f 165//403 175//403 171//403
f 168//404 172//404 175//404
f 163//405 152//405 149//405
f 169//406 150//406 152//406
f 156//407 173//407 170//407
f 162//408 171//408 173//408
f 151//409 161//409 157//409
f 154//410 158//410 161//410
f 149//411 124//411 121//411
f 124//412 151//412 122//412
f 129//413 159//413 156//413
f 131//414 157//414 159//414
s 1
f 350//107 357//452 351//453
f 351//453 355//454 349//455
f 353//456 360//457 359//154
f 360//457 352//458 358//459
f 362//109 357//452 356//148
f 357//452 361//460 355//454
f 365//149 360//457 366//461
f 360//457 364//153 366//461
f 362//109 369//462 363//463
f 363//463 367//464 361//460
f 365//149 372//465 371//110
f 366//461 370//466 372//465
f 374//112 369//462 368//111
f 369//462 373//467 367//464
f 377//113 372//465 378//468
f 378//468 370//466 376//469
f 380//114 375//470 374//112
f 375//470 379//471 373//467
f 383//115 378//468 384//472
f 384//472 376//469 382//473
f 386//116 381//474 380//114
f 381//474 385//475 379//471
f 389//117 384//472 390//476
f 384//472 388//477 390//476
f 392//118 387//478 386//116
f 387//478 391//97 385//475
f 395//479 390//476 396//480
f 390//476 394//481 396//480
f 392//118 399//482 393//483
f 399//482 391//97 393//483
f 395//479 402//484 401//119
f 402//484 394//481 400//485
f 398//120 405//486 399//482
f 399//482 403//487 397//488
f 401//119 408//489 407//121
f 402//484 406//490 408//489
f 410//123 405//486 404//122
f 405//486 409//491 403//487
f 407//121 414//492 413//124
f 414//492 406//490 412//152
f 416//125 411//493 410//123
f 411//493 415//494 409//491
f 413//124 420//495 419//126
f 420//495 412//152 418//496
f 422//127 417//497 416//125
f 423//498 415//494 417//497
f 425//128 420//495 426//499
f 426//499 418//496 424//500
f 428//129 423//498 422//127
f 429//501 421//502 423//498
f 425//128 432//503 431//130
f 426//499 430//504 432//503
f 434//131 429//501 428//129
f 435//505 427//506 429//501
f 431//130 438//507 437//132
f 432//503 436//508 438//507
f 440//133 435//505 434//131
f 435//505 439//98 433//509
f 437//132 444//510 443//134
f 438//507 442//511 444//510
f 446//135 441//512 440//133
f 441//512 445//513 439//98
f 449//514 444//510 450//515
f 444//510 448//516 450//515
f 452//137 447//517 446//135
f 453//518 445//513 447//517
f 449//514 456//519 455//136
f 456//519 448//516 454//520
f 458//139 453//518 452//137
f 459//521 451//522 453//518
f 461//138 456//519 462//523
f 462//523 454//520 460//151
f 464//141 459//521 458//139
f 465//524 457//525 459//521
f 461//138 468//526 467//140
f 462//523 466//527 468//526
f 470//143 465//524 464//141
f 465//524 469//528 463//529
f 467//140 474//530 473//142
f 468//526 472//531 474//530
f 470//143 477//532 471//533
f 471//533 475//534 469//528
f 473//142 480//535 479//144
f 480//535 472//531 478//536
f 476//145 483//537 477//532
f 483//537 475//534 477//532
f 479//144 486//538 485//146
f 486//538 478//536 484//539
f 488//108 483//537 482//147
f 483//537 487//99 481//540
f 485//146 492//541 491//106
f 492//541 484//539 490//542
f 488//108 351//453 489//543
f 489//543 349//455 487//99
f 491//106 354//544 353//456
f 354//544 490//542 352//458
f 19//330 43//347 55//350
f 59//1 5//317 2//2
f 17//4 23//327 20//5
f 20//5 23//327 29//7
f 29//7 35//335 32//9
f 32//9 35//335 41//10
f 41//10 47//344 44//12
f 44//12 47//344 53//13
f 53//13 59//1 56//3
f 8//15 11//22 17//4
f 115//18 61//357 67//364
f 67//364 73//366 79//16
f 79//16 85//374 91//373
f 91//373 97//378 103//17
f 103//17 109//388 115//18
f 115//18 67//364 79//16
f 79//16 91//373 103//17
f 16//21 10//320 4//319
f 4//319 58//352 52//19
f 52//19 46//345 40//340
f 40//340 34//337 28//20
f 28//20 22//328 16//21
f 16//21 4//319 52//19
f 52//19 40//340 28//20
f 2//2 5//317 11//22
f 119//23 65//44 62//24
f 77//26 83//29 80//27
f 83//29 89//372 86//30
f 86//30 89//372 95//31
f 95//31 101//34 98//33
f 101//34 107//36 104//35
f 107//36 113//38 110//37
f 113//38 119//23 116//25
f 68//39 71//358 77//26
s 0
f 163//40 149//40 121//40
s 1
f 76//43 70//362 64//361
f 64//361 118//390 112//41
f 112//41 106//384 100//380
f 100//380 94//376 88//42
f 88//42 82//368 76//43
f 76//43 64//361 112//41
f 112//41 100//380 88//42
f 65//44 71//358 68//39
s 0
f 151//45 157//45 128//45
f 171//46 158//46 150//46
f 142//50 129//50 156//50
f 130//51 144//51 136//51
f 143//52 172//52 164//52
s 1
f 487//99 349//455 355//454
f 355//454 361//460 367//464
f 367//464 373//467 379//471
f 379//471 385//475 391//97
f 391//97 397//488 403//487
f 403//487 409//491 415//494
f 415//494 421//502 427//506
f 427//506 433//509 439//98
f 439//98 445//513 451//522
f 451//522 457//525 463//529
f 463//529 469//528 475//534
f 475//534 481//540 487//99
f 487//99 355//454 367//464
f 367//464 379//471 391//97
f 391//97 403//487 415//494
f 415//494 427//506 439//98
f 439//98 451//522 463//529
f 463//529 475//534 487//99
f 487//99 367//464 391//97
f 391//97 415//494 439//98
f 439//98 463//529 487//99
f 491//106 353//456 350//107
f 362//109 365//149 371//110
f 371//110 377//113 374//112
f 377//113 383//115 380//114
f 383//115 389//117 386//116
f 389//117 395//479 392//118
f 392//118 395//479 401//119
f 398//120 401//119 407//121
f 407//121 413//124 410//123
f 413//124 419//126 416//125
f 419//126 425//128 422//127
f 425//128 431//130 428//129
f 431//130 437//132 434//131
f 437//132 443//134 440//133
f 443//134 449//514 446//135
f 446//135 449//514 455//136
f 452//137 455//136 461//138
f 458//139 461//138 467//140
f 464//141 467//140 473//142
f 470//143 473//142 479//144
f 476//145 479//144 485//146
f 482//147 485//146 491//106
f 356//148 359//154 365//149
f 364//153 358//459 352//458
f 352//458 490//542 484//539
f 484//539 478//536 472//531
f 472//531 466//527 460//151
f 460//151 454//520 448//516
f 448//516 442//511 436//508
f 436//508 430//504 424//500
f 424//500 418//496 412//152
f 412//152 406//490 400//485
f 400//485 394//481 388//477
f 388//477 382//473 376//469
f 376//469 370//466 364//153
f 364//153 352//458 484//539
f 484//539 472//531 460//151
f 460//151 448//516 436//508
f 436//508 424//500 412//152
f 412//152 400//485 388//477
f 388//477 376//469 364//153
f 364//153 484//539 460//151
f 460//151 436//508 412//152
f 412//152 388//477 364//153
f 350//107 353//456 359//154
s 0
f 121//593 124//593 125//593
f 122//594 126//594 125//594
f 123//595 127//595 125//595
f 128//596 131//596 132//596
f 129//597 133//597 132//597
f 130//598 134//598 132//598
f 135//599 138//599 139//599
f 136//600 140//600 139//600
f 137//601 141//601 139//601
f 142//602 145//602 146//602
f 143//603 147//603 146//603
f 144//604 148//604 146//604
f 149//605 152//605 153//605
f 150//606 154//606 153//606
f 151//607 155//607 153//607
f 156//608 159//608 160//608
f 157//609 161//609 160//609
f 158//610 162//610 160//610
f 163//611 166//611 167//611
f 164//612 168//612 167//612
f 165//613 169//613 167//613
f 170//614 173//614 174//614
f 171//615 175//615 174//615
f 172//616 176//616 174//616
s 1
f 8//15 9//315 3//314
f 9//315 7//322 1//316
f 5//317 6//354 12//318
f 12//318 6//354 4//319
f 14//6 15//324 9//315
f 9//315 15//324 13//321
f 11//22 12//318 18//323
f 12//318 10//320 16//21
f 20//5 21//325 15//324
f 21//325 19//330 13//321
f 17//4 18//323 24//326
f 24//326 18//323 16//21
f 20//5 26//8 27//329
f 27//329 25//334 19//330
f 23//327 24//326 30//331
f 24//326 22//328 28//20
f 26//8 32//9 33//332
f 27//329 33//332 31//333
f 35//335 29//7 30//331
f 36//336 30//331 28//20
f 32//9 38//11 39//338
f 39//338 37//342 31//333
f 41//10 35//335 36//336
f 36//336 34//337 40//340
f 38//11 44//12 45//341
f 45//341 43//347 37//342
f 41//10 42//339 48//343
f 48//343 42//339 40//340
f 50//14 51//349 45//341
f 45//341 51//349 49//346
f 53//13 47//344 48//343
f 48//343 46//345 52//19
f 56//3 57//353 51//349
f 51//349 57//353 55//350
f 59//1 53//13 54//348
f 60//351 54//348 52//19
f 2//2 3//314 57//353
f 3//314 1//316 55//350
f 59//1 60//351 6//354
f 6//354 60//351 58//352
f 68//39 69//356 63//355
f 69//356 67//364 61//357
f 71//358 65//44 66//359
f 72//360 66//359 64//361
f 74//28 75//363 69//356
f 75//363 73//366 67//364
f 77//26 71//358 72//360
f 78//365 72//360 70//362
f 80//27 81//370 75//363
f 75//363 81//370 79//16
f 83//29 77//26 78//365
f 84//367 78//365 76//43
f 80//27 86//30 87//369
f 87//369 85//374 79//16
f 83//29 84//367 90//371
f 90//371 84//367 82//368
f 92//32 93//377 87//369
f 87//369 93//377 91//373
f 95//31 89//372 90//371
f 96//375 90//371 88//42
f 98//33 99//382 93//377
f 93//377 99//382 97//378
f 95//31 96//375 102//379
f 102//379 96//375 94//376
f 98//33 104//35 105//381
f 105//381 103//17 97//378
f 107//36 101//34 102//379
f 102//379 100//380 106//384
f 104//35 110//37 111//385
f 111//385 109//388 103//17
f 107//36 108//383 114//386
f 108//383 106//384 112//41
f 110//37 116//25 117//387
f 117//387 115//18 109//388
f 119//23 113//38 114//386
f 114//386 112//41 118//390
f 116//25 62//24 63//355
f 117//387 63//355 61//357
f 65//44 119//23 120//389
f 66//359 120//389 118//390
s 0
f 121//391 127//391 138//391
f 138//392 127//392 123//392
f 128//393 134//393 126//393
f 134//394 130//394 123//394
f 142//395 148//395 133//395
f 148//396 144//396 130//396
f 137//397 140//397 147//397
f 140//398 136//398 144//398
f 135//399 141//399 166//399
f 141//400 137//400 164//400
f 170//401 176//401 145//401
f 176//402 172//402 143//402
f 165//403 168//403 175//403
f 168//404 164//404 172//404
f 163//405 169//405 152//405
f 169//406 165//406 150//406
f 156//407 162//407 173//407
f 162//408 158//408 171//408
f 151//409 154//409 161//409
f 154//410 150//410 158//410
f 149//411 155//411 124//411
f 124//412 155//412 151//412
f 129//413 131//413 159//413
f 131//414 128//414 157//414
s 1
f 350//107 356//148 357//452
f 351//453 357//452 355//454
f 353//456 354//544 360//457
f 360//457 354//544 352//458
f 362//109 363//463 357//452
f 357//452 363//463 361//460
f 365//149 359//154 360//457
f 360//457 358//459 364//153
f 362//109 368//111 369//462
f 363//463 369//462 367//464
f 365//149 366//461 372//465
f 366//461 364//153 370//466
f 374//112 375//470 369//462
f 369//462 375//470 373//467
f 377//113 371//110 372//465
f 378//468 372//465 370//466
f 380//114 381//474 375//470
f 375//470 381//474 379//471
f 383//115 377//113 378//468
f 384//472 378//468 376//469
f 386//116 387//478 381//474
f 381//474 387//478 385//475
f 389//117 383//115 384//472
f 384//472 382//473 388//477
f 392//118 393//483 387//478
f 387//478 393//483 391//97
f 395//479 389//117 390//476
f 390//476 388//477 394//481
f 392//118 398//120 399//482
f 399//482 397//488 391//97
f 395//479 396//480 402//484
f 402//484 396//480 394//481
f 398//120 404//122 405//486
f 399//482 405//486 403//487
f 401//119 402//484 408//489
f 402//484 400//485 406//490
f 410//123 411//493 405//486
f 405//486 411//493 409//491
f 407//121 408//489 414//492
f 414//492 408//489 406//490
f 416//125 417//497 411//493
f 411//493 417//497 415//494
f 413//124 414//492 420//495
f 420//495 414//492 412//152
f 422//127 423//498 417//497
f 423//498 421//502 415//494
f 425//128 419//126 420//495
f 426//499 420//495 418//496
f 428//129 429//501 423//498
f 429//501 427//506 421//502
f 425//128 426//499 432//503
f 426//499 424//500 430//504
f 434//131 435//505 429//501
f 435//505 433//509 427//506
f 431//130 432//503 438//507
f 432//503 430//504 436//508
f 440//133 441//512 435//505
f 435//505 441//512 439//98
f 437//132 438//507 444//510
f 438//507 436//508 442//511
f 446//135 447//517 441//512
f 441//512 447//517 445//513
f 449//514 443//134 444//510
f 444//510 442//511 448//516
f 452//137 453//518 447//517
f 453//518 451//522 445//513
f 449//514 450//515 456//519
f 456//519 450//515 448//516
f 458//139 459//521 453//518
f 459//521 457//525 451//522
f 461//138 455//136 456//519
f 462//523 456//519 454//520
f 464//141 465//524 459//521
f 465//524 463//529 457//525
f 461//138 462//523 468//526
f 462//523 460//151 466//527
f 470//143 471//533 465//524
f 465//524 471//533 469//528
f 467//140 468//526 474//530
f 468//526 466//527 472//531
f 470//143 476//145 477//532
f 471//533 477//532 475//534
f 473//142 474//530 480//535
f 480//535 474//530 472//531
f 476//145 482//147 483//537
f 483//537 481//540 475//534
f 479//144 480//535 486//538
f 486//538 480//535 478//536
f 488//108 489//543 483//537
f 483//537 489//543 487//99
f 485//146 486//538 492//541
f 492//541 486//538 484//539
f 488//108 350//107 351//453
f 489//543 351//453 349//455
f 491//106 492//541 354//544
f 354//544 492//541 490//542
f 55//350 1//316 7//322
f 7//322 13//321 19//330
f 19//330 25//334 31//333
f 31//333 37//342 43//347
f 43//347 49//346 55//350
f 55//350 7//322 19//330
f 19//330 31//333 43//347
usemtl Shock
f 195//47 219//48 231//49
f 235//53 178//54 232//55
f 193//56 196//57 190//58
f 199//59 202//60 196//57
f 202//60 211//61 208//62
f 211//61 214//63 208//62
f 217//64 220//65 214//63
f 223//66 226//67 220//65
f 226//67 235//53 232//55
f 184//68 193//56 190//58
f 228//72 204//73 192//74
f 181//75 184//68 178//54
f 184//68 179//415 178//54
f 179//415 183//416 177//417
f 181//75 188//418 187//419
f 182//420 186//421 188//418
f 184//68 191//422 185//423
f 185//423 189//424 183//416
f 187//419 194//425 193//56
f 188//418 192//74 194//425
f 196//57 191//422 190//58
f 197//426 189//424 191//422
f 193//56 200//427 199//59
f 200//427 192//74 198//428
f 202//60 197//426 196//57
f 197//426 201//429 195//47
f 199//59 206//430 205//431
f 200//427 204//73 206//430
f 202//60 209//432 203//433
f 203//433 207//434 201//429
f 205//431 212//435 211//61
f 206//430 210//436 212//435
f 208//62 215//437 209//432
f 209//432 213//438 207//434
f 211//61 218//439 217//64
f 218//439 210//436 216//440
f 220//65 215//437 214//63
f 215//437 219//48 213//438
f 217//64 224//441 223//66
f 218//439 222//442 224//441
f 226//67 221//443 220//65
f 227//444 219//48 221//443
f 229//445 224//441 230//446
f 230//446 222//442 228//72
f 226//67 233//447 227//444
f 233//447 225//448 227//444
f 235//53 230//446 236//449
f 236//449 228//72 234//450
f 178//54 233//447 232//55
f 233//447 177//417 231//49
f 235//53 182//420 181//75
f 236//449 180//451 182//420
f 231//49 177//417 183//416
f 183//416 189//424 195//47
f 195//47 201//429 207//434
f 207//434 213//438 219//48
f 219//48 225//448 231//49
f 231//49 183//416 195//47
f 195//47 207//434 219//48
f 235//53 181//75 178//54
f 193//56 199//59 196//57
f 199//59 205//431 202//60
f 202//60 205//431 211//61
f 211//61 217//64 214//63
f 217//64 223//66 220//65
f 223//66 229//445 226//67
f 226//67 229//445 235//53
f 184//68 187//419 193//56
f 192//74 186//421 180//451
f 180//451 234//450 228//72
f 228//72 222//442 216//440
f 216//440 210//436 204//73
f 204//73 198//428 192//74
f 192//74 180//451 228//72
f 228//72 216//440 204//73
f 181//75 187//419 184//68
f 184//68 185//423 179//415
f 179//415 185//423 183//416
f 181//75 182//420 188//418
f 182//420 180//451 186//421
f 184//68 190//58 191//422
f 185//423 191//422 189//424
f 187//419 188//418 194//425
f 188//418 186//421 192//74
f 196//57 197//426 191//422
f 197//426 195//47 189//424
f 193//56 194//425 200//427
f 200//427 194//425 192//74
f 202//60 203//433 197//426
f 197//426 203//433 201//429
f 199//59 200//427 206//430
f 200//427 198//428 204//73
f 202//60 208//62 209//432
f 203//433 209//432 207//434
f 205//431 206//430 212//435
f 206//430 204//73 210//436
f 208//62 214//63 215//437
f 209//432 215//437 213//438
f 211//61 212//435 218//439
f 218//439 212//435 210//436
f 220//65 221//443 215//437
f 215//437 221//443 219//48
f 217//64 218//439 224//441
f 218//439 216//440 222//442
f 226//67 227//444 221//443
f 227//444 225//448 219//48
f 229//445 223//66 224//441
f 230//446 224//441 222//442
f 226//67 232//55 233//447
f 233//447 231//49 225//448
f 235//53 229//445 230//446
f 236//449 230//446 228//72
f 178//54 179//415 233//447
f 233//447 179//415 177//417
f 235//53 236//449 182//420
f 236//449 234//450 180//451
usemtl Chrome
f 279//69 307//70 335//71
f 337//76 246//77 238//78
f 267//79 288//80 280//81
f 281//82 302//83 294//84
f 301//85 308//86 295//87
f 309//88 330//89 322//90
f 329//91 336//92 323//93
f 253//94 274//95 266//96
f 328//100 300//101 272//102
f 245//103 252//104 239//105
f 237//184 241//185 243//186
f 238//78 241//185 240//187
f 239//105 241//185 242//188
f 244//189 248//190 250//191
f 245//103 248//190 247//192
f 246//77 248//190 249//193
f 251//194 255//195 257//196
f 252//104 255//195 254//197
f 253//94 255//195 256//198
f 258//199 262//200 264//201
f 259//202 262//200 261//203
f 260//204 262//200 263//205
f 265//206 269//207 271//208
f 270//209 268//210 266//96
f 271//208 270//209 267//79
f 272//102 276//211 278//212
f 277//213 275//214 273//215
f 278//212 277//213 274//95
f 279//69 283//216 285//217
f 280//81 283//216 282//218
f 281//82 283//216 284//219
f 286//220 290//221 292//222
f 287//223 290//221 289//224
f 288//80 290//221 291//225
f 293//226 297//227 299//228
f 294//84 297//227 296//229
f 295//87 297//227 298//230
f 300//101 304//231 306//232
f 305//233 303//234 301//85
f 306//232 305//233 302//83
f 307//70 311//235 313//236
f 312//237 310//238 308//86
f 313//236 312//237 309//88
f 314//239 318//240 320//241
f 319//242 317//243 315//244
f 320//241 319//242 316//245
f 321//246 325//247 327//248
f 326//249 324//250 322//90
f 327//248 326//249 323//93
f 328//100 332//251 334//252
f 333//253 331//254 329//91
f 334//252 333//253 330//89
f 335//71 339//255 341//256
f 340//257 338//258 336//92
f 341//256 340//257 337//76
f 342//259 346//260 348//261
f 347//262 345//263 343//264
f 348//261 347//262 344//265
f 252//104 243//186 239//105
f 254//197 237//184 243//186
f 260//204 247//192 264//201
f 264//201 244//189 258//199
f 246//77 242//188 238//78
f 249//193 239//105 242//188
f 253//94 263//205 259//202
f 256//198 260//204 263//205
f 266//96 257//196 253//94
f 257//196 265//206 251//194
f 274//95 261//203 278//212
f 261//203 272//102 278//212
f 267//79 277//213 273//215
f 270//209 274//95 277//213
f 267//79 282//218 271//208
f 282//218 265//206 271//208
f 273//215 292//222 288//80
f 292//222 272//102 286//220
f 287//223 284//219 291//225
f 284//219 288//80 291//225
f 294//84 285//217 281//82
f 285//217 293//226 279//69
f 302//83 289//224 306//232
f 289//224 300//101 306//232
f 295//87 305//233 301//85
f 305//233 294//84 302//83
f 308//86 299//228 295//87
f 299//228 307//70 293//226
f 316//245 303//234 320//241
f 303//234 314//239 320//241
f 309//88 319//242 315//244
f 312//237 316//245 319//242
f 309//88 324//250 313//236
f 324//250 307//70 313//236
f 315//244 334//252 330//89
f 317//243 328//100 334//252
f 323//93 333//253 329//91
f 326//249 330//89 333//253
f 323//93 338//258 327//248
f 327//248 335//71 321//246
f 344//265 331//254 348//261
f 348//261 328//100 342//259
f 337//76 347//262 343//264
f 347//262 336//92 344//265
f 337//76 240//187 341//256
f 240//187 335//71 341//256
f 343//264 250//191 246//77
f 250//191 342//259 244//189
f 335//71 237//184 251//194
f 251//194 265//206 279//69
f 279//69 293//226 307//70
f 307//70 321//246 335//71
f 335//71 251//194 279//69
f 337//76 343//264 246//77
f 267//79 273//215 288//80
f 281//82 287//223 302//83
f 301//85 316//245 308//86
f 309//88 315//244 330//89
f 329//91 344//265 336//92
f 253//94 259//202 274//95
f 272//102 258//199 244//189
f 244//189 342//259 328//100
f 328//100 314//239 300//101
f 300//101 286//220 272//102
f 272//102 244//189 328//100
f 245//103 260//204 252//104
f 237//184 240//187 241//185
f 238//78 242//188 241//185
f 239//105 243//186 241//185
f 244//189 247//192 248//190
f 245//103 249//193 248//190
f 246//77 250//191 248//190
f 251//194 254//197 255//195
f 252//104 256//198 255//195
f 253//94 257//196 255//195
f 258//199 261//203 262//200
f 259//202 263//205 262//200
f 260//204 264//201 262//200
f 265//206 268//210 269//207
f 270//209 269//207 268//210
f 271//208 269//207 270//209
f 272//102 275//214 276//211
f 277//213 276//211 275//214
f 278//212 276//211 277//213
f 279//69 282//218 283//216
f 280//81 284//219 283//216
f 281//82 285//217 283//216
f 286//220 289//224 290//221
f 287//223 291//225 290//221
f 288//80 292//222 290//221
f 293//226 296//229 297//227
f 294//84 298//230 297//227
f 295//87 299//228 297//227
f 300//101 303//234 304//231
f 305//233 304//231 303//234
f 306//232 304//231 305//233
f 307//70 310//238 311//235
f 312//237 311//235 310//238
f 313//236 311//235 312//237
f 314//239 317//243 318//240
f 319//242 318//240 317//243
f 320//241 318//240 319//242
f 321//246 324//250 325//247
f 326//249 325//247 324//250
f 327//248 325//247 326//249
f 328//100 331//254 332//251
f 333//253 332//251 331//254
f 334//252 332//251 333//253
f 335//71 338//258 339//255
f 340//257 339//255 338//258
f 341//256 339//255 340//257
f 342//259 345//263 346//260
f 347//262 346//260 345//263
f 348//261 346//260 347//262
f 252//104 254//197 243//186
f 254//197 251//194 237//184
f 260//204 245//103 247//192
f 264//201 247//192 244//189
f 246//77 249//193 242//188
f 249//193 245//103 239//105
f 253//94 256//198 263//205
f 256//198 252//104 260//204
f 266//96 268//210 257//196
f 257//196 268//210 265//206
f 274//95 259//202 261//203
f 261//203 258//199 272//102
f 267//79 270//209 277//213
f 270//209 266//96 274//95
f 267//79 280//81 282//218
f 282//218 279//69 265//206
f 273//215 275//214 292//222
f 292//222 275//214 272//102
f 287//223 281//82 284//219
f 284//219 280//81 288//80
f 294//84 296//229 285//217
f 285//217 296//229 293//226
f 302//83 287//223 289//224
f 289//224 286//220 300//101
f 295//87 298//230 305//233
f 305//233 298//230 294//84
f 308//86 310//238 299//228
f 299//228 310//238 307//70
f 316//245 301//85 303//234
f 303//234 300//101 314//239
f 309//88 312//237 319//242
f 312//237 308//86 316//245
f 309//88 322//90 324//250
f 324//250 321//246 307//70
f 315//244 317//243 334//252
f 317//243 314//239 328//100
f 323//93 326//249 333//253
f 326//249 322//90 330//89
f 323//93 336//92 338//258
f 327//248 338//258 335//71
f 344//265 329//91 331//254
f 348//261 331//254 328//100
f 337//76 340//257 347//262
f 347//262 340//257 336//92
f 337//76 238//78 240//187
f 240//187 237//184 335//71
f 343//264 345//263 250//191
f 250//191 345//263 342//259
s 0
usemtl DarkPlastic
f 535//150 493//150 507//150
f 523//45 500//45 494//45
f 543//155 522//155 537//155
f 591//156 549//156 563//156
f 514//157 528//157 542//157
f 495//50 516//50 508//50
f 509//52 544//52 536//52
f 579//45 556//45 550//45
f 599//46 578//46 593//46
f 570//158 584//158 598//158
f 558//159 564//159 551//159
f 565//52 600//52 592//52
f 493//266 497//266 499//266
f 494//267 497//267 496//267
f 495//268 497//268 498//268
f 500//269 504//269 506//269
f 501//270 504//270 503//270
f 502//271 504//271 505//271
f 507//272 511//272 513//272
f 508//273 511//273 510//273
f 509//274 511//274 512//274
f 514//275 518//275 520//275
f 515//276 518//276 517//276
f 516//277 518//277 519//277
f 521//278 525//278 527//278
f 522//279 525//279 524//279
f 523//280 525//280 526//280
f 528//281 532//281 534//281
f 529//282 532//282 531//282
f 530//283 532//283 533//283
f 535//284 539//284 541//284
f 536//285 539//285 538//285
f 537//286 539//286 540//286
f 542//287 546//287 548//287
f 543//288 546//288 545//288
f 544//289 546//289 547//289
f 549//290 553//290 555//290
f 550//291 553//291 552//291
f 551//292 553//292 554//292
f 556//293 560//293 562//293
f 557//294 560//294 559//294
f 558//295 560//295 561//295
f 563//296 567//296 569//296
f 564//297 567//297 566//297
f 565//298 567//298 568//298
f 570//299 574//299 576//299
f 571//300 574//300 573//300
f 572//301 574//301 575//301
f 577//302 581//302 583//302
f 578//303 581//303 580//303
f 579//304 581//304 582//304
f 584//305 588//305 590//305
f 585//306 588//306 587//306
f 586//307 588//307 589//307
f 591//308 595//308 597//308
f 592//309 595//309 594//309
f 593//310 595//310 596//310
f 598//311 602//311 604//311
f 599//312 602//312 601//312
f 600//313 602//313 603//313
f 507//545 499//545 510//545
f 510//546 495//546 508//546
f 494//547 506//547 498//547
f 498//50 502//50 495//50
f 514//548 505//548 501//548
f 505//549 516//549 502//549
f 515//50 512//50 519//50
f 519//50 508//50 516//50
f 535//550 513//550 538//550
f 538//551 509//551 536//551
f 514//552 548//552 517//552
f 548//553 515//553 517//553
f 537//554 547//554 543//554
f 540//555 544//555 547//555
f 535//556 524//556 521//556
f 541//557 522//557 524//557
f 528//558 545//558 542//558
f 545//559 530//559 543//559
f 523//560 533//560 529//560
f 533//561 522//561 530//561
f 493//562 527//562 496//562
f 496//563 523//563 494//563
f 501//564 531//564 528//564
f 503//565 529//565 531//565
f 549//566 566//566 563//566
f 555//567 564//567 566//567
f 556//568 554//568 550//568
f 562//569 551//569 554//569
f 570//570 561//570 557//570
f 576//571 558//571 561//571
f 565//572 575//572 571//572
f 568//573 572//573 575//573
f 591//574 569//574 594//574
f 569//575 592//575 594//575
f 598//576 573//576 570//576
f 604//577 571//577 573//577
f 593//578 603//578 599//578
f 603//579 592//579 600//579
f 591//580 580//580 577//580
f 597//581 578//581 580//581
f 584//582 601//582 598//582
f 590//583 599//583 601//583
f 585//584 582//584 589//584
f 582//585 586//585 589//585
f 549//586 583//586 552//586
f 552//587 579//587 550//587
f 557//588 587//588 584//588
f 559//589 585//589 587//589
f 535//150 521//150 493//150
f 523//45 529//45 500//45
f 543//590 530//590 522//590
f 591//156 577//156 549//156
f 514//157 501//157 528//157
f 495//50 502//50 516//50
f 509//50 515//50 544//50
f 579//50 585//50 556//50
f 599//591 586//591 578//591
f 570//158 557//158 584//158
f 558//159 572//159 564//159
f 565//592 571//592 600//592
f 493//617 496//617 497//617
f 494//618 498//618 497//618
f 495//619 499//619 497//619
f 500//620 503//620 504//620
f 501//621 505//621 504//621
f 502//622 506//622 504//622
f 507//623 510//623 511//623
f 508//624 512//624 511//624
f 509//625 513//625 511//625
f 514//626 517//626 518//626
f 515//627 519//627 518//627
f 516//628 520//628 518//628
f 521//629 524//629 525//629
f 522//630 526//630 525//630
f 523//631 527//631 525//631
f 528//632 531//632 532//632
f 529//633 533//633 532//633
f 530//634 534//634 532//634
f 535//635 538//635 539//635
f 536//636 540//636 539//636
f 537//637 541//637 539//637
f 542//638 545//638 546//638
f 543//639 547//639 546//639
f 544//640 548//640 546//640
f 549//641 552//641 553//641
f 550//642 554//642 553//642
f 551//643 555//643 553//643
f 556//644 559//644 560//644
f 557//645 561//645 560//645
f 558//646 562//646 560//646
f 563//647 566//647 567//647
f 564//648 568//648 567//648
f 565//649 569//649 567//649
f 570//650 573//650 574//650
f 571//651 575//651 574//651
f 572//652 576//652 574//652
f 577//653 580//653 581//653
f 578//654 582//654 581//654
f 579//655 583//655 581//655
f 584//656 587//656 588//656
f 585//657 589//657 588//657
f 586//658 590//658 588//658
f 591//659 594//659 595//659
f 592//660 596//660 595//660
f 593//661 597//661 595//661
f 598//662 601//662 602//662
f 599//663 603//663 602//663
f 600//664 604//664 602//664
f 507//545 493//545 499//545
f 510//546 499//546 495//546
f 494//568 500//568 506//568
f 498//665 506//665 502//665
f 514//548 520//548 505//548
f 505//549 520//549 516//549
f 515//50 509//50 512//50
f 519//50 512//50 508//50
f 535//550 507//550 513//550
f 538//551 513//551 509//551
f 514//552 542//552 548//552
f 548//553 544//553 515//553
f 537//666 540//666 547//666
f 540//667 536//667 544//667
f 535//556 541//556 524//556
f 541//557 537//557 522//557
f 528//558 534//558 545//558
f 545//559 534//559 530//559
f 523//668 526//668 533//668
f 533//669 526//669 522//669
f 493//562 521//562 527//562
f 496//563 527//563 523//563
f 501//564 503//564 531//564
f 503//565 500//565 529//565
f 549//566 555//566 566//566
f 555//567 551//567 564//567
f 556//670 562//670 554//670
f 562//671 558//671 551//671
f 570//570 576//570 561//570
f 576//571 572//571 558//571
f 565//672 568//672 575//672
f 568//673 564//673 572//673
f 591//574 563//574 569//574
f 569//575 565//575 592//575
f 598//576 604//576 573//576
f 604//577 600//577 571//577
f 593//50 596//50 603//50
f 603//52 596//52 592//52
f 591//580 597//580 580//580
f 597//581 593//581 578//581
f 584//582 590//582 601//582
f 590//583 586//583 599//583
f 585//50 579//50 582//50
f 582//674 578//674 586//674
f 549//586 577//586 583//586
f 552//587 583//587 579//587
f 557//588 559//588 587//588
f 559//589 556//589 585//589
