# Blender 4.0.2
# www.blender.org
mtllib bike_frame.mtl
o Frame
v -0.210760 0.051924 0.030000
v -0.216147 0.096600 0.030000
v -0.210760 0.051924 -0.030000
v -0.216147 0.096600 -0.030000
v 0.216147 0.103400 0.030000
v 0.210760 0.148076 0.030000
v 0.216147 0.103400 -0.030000
v 0.210760 0.148076 -0.030000
v -0.250710 -0.130363 0.025000
v -0.244444 -0.095928 0.025000
v -0.250710 -0.130363 -0.025000
v -0.244444 -0.095928 -0.025000
v 0.044444 -0.184072 0.025000
v 0.050710 -0.149637 0.025000
v 0.044444 -0.184072 -0.025000
v 0.050710 -0.149637 -0.025000
v -0.105000 -0.130000 0.065000
v -0.105000 0.010000 0.065000
v -0.105000 -0.130000 -0.065000
v -0.105000 0.010000 -0.065000
v 0.065000 -0.130000 0.065000
v 0.065000 0.010000 0.065000
v 0.065000 -0.130000 -0.065000
v 0.065000 0.010000 -0.065000
v 0.100000 0.160000 -0.110000
v 0.100000 0.160000 0.110000
v 0.150000 0.146603 -0.110000
v 0.150000 0.146603 0.110000
v 0.186603 0.110000 -0.110000
v 0.186603 0.110000 0.110000
v 0.200000 0.060000 -0.110000
v 0.200000 0.060000 0.110000
v 0.186603 0.010000 -0.110000
v 0.186603 0.010000 0.110000
v 0.150000 -0.026603 -0.110000
v 0.150000 -0.026603 0.110000
v 0.100000 -0.040000 -0.110000
v 0.100000 -0.040000 0.110000
v 0.050000 -0.026603 -0.110000
v 0.050000 -0.026603 0.110000
v 0.013397 0.010000 -0.110000
v 0.013397 0.010000 0.110000
v 0.000000 0.060000 -0.110000
v 0.000000 0.060000 0.110000
v 0.013397 0.110000 -0.110000
v 0.013397 0.110000 0.110000
v 0.050000 0.146603 -0.110000
v 0.050000 0.146603 0.110000
v 0.063178 0.204094 0.065000
v 0.057182 0.303914 0.065000
v 0.063178 0.204094 -0.065000
v 0.057182 0.303914 -0.065000
v 0.262818 0.216086 0.065000
v 0.256822 0.315906 0.065000
v 0.262818 0.216086 -0.065000
v 0.256822 0.315906 -0.065000
v 0.130975 0.156692 -0.134174
v 0.120073 0.265355 -0.121006
v 0.130677 0.159670 -0.158994
v 0.119774 0.268333 -0.145826
v 0.280226 0.171667 -0.134174
v 0.269323 0.280330 -0.121006
v 0.279927 0.174645 -0.158994
v 0.269025 0.283308 -0.145826
v 0.130677 0.159670 0.158994
v 0.119774 0.268333 0.145826
v 0.130975 0.156692 0.134174
v 0.120073 0.265355 0.121006
v 0.279927 0.174645 0.158994
v 0.269025 0.283308 0.145826
v 0.280226 0.171667 0.134174
v 0.269323 0.280330 0.121006
v -0.368713 0.271031 0.040000
v -0.370962 0.315975 0.040000
v -0.368713 0.271031 -0.040000
v -0.370962 0.315975 -0.040000
v -0.109038 0.284025 0.040000
v -0.111287 0.328969 0.040000
v -0.109038 0.284025 -0.040000
v -0.111287 0.328969 -0.040000
v -0.601923 0.274118 0.050000
v -0.605906 0.298798 0.050000
v -0.601923 0.274118 -0.050000
v -0.605906 0.298798 -0.050000
v -0.434094 0.301202 0.050000
v -0.438077 0.325882 0.050000
v -0.434094 0.301202 -0.050000
v -0.438077 0.325882 -0.050000
v -0.455180 0.108962 -0.119517
v -0.464120 0.198065 -0.110532
v -0.455280 0.109955 -0.129468
v -0.464220 0.199058 -0.120483
v -0.335780 0.120942 -0.119517
v -0.344720 0.210045 -0.110532
v -0.335880 0.121935 -0.129468
v -0.344820 0.211038 -0.120483
v -0.455280 0.109955 0.129468
v -0.464220 0.199058 0.120483
v -0.455180 0.108962 0.119517
v -0.464120 0.198065 0.110532
v -0.335880 0.121935 0.129468
v -0.344820 0.211038 0.120483
v -0.335780 0.120942 0.119517
v -0.344720 0.210045 0.110532
v -0.242298 -0.048036 -0.041513
v 0.258295 0.088036 -0.224243
v -0.235225 -0.067969 -0.036979
v 0.265369 0.068103 -0.219710
v -0.226269 -0.080288 -0.021618
v 0.274324 0.055784 -0.204349
v -0.218852 -0.080288 -0.001299
v 0.281741 0.055784 -0.184029
v -0.215806 -0.067969 0.016219
v 0.284787 0.068103 -0.166512
v -0.218295 -0.048036 0.024243
v 0.282298 0.088036 -0.158487
v -0.225369 -0.028103 0.019710
v 0.275225 0.107969 -0.163021
v -0.234324 -0.015784 0.004349
v 0.266269 0.120288 -0.178382
v -0.241741 -0.015784 -0.015971
v 0.258852 0.120288 -0.198701
v -0.244787 -0.028103 -0.033488
v 0.255806 0.107969 -0.216219
v -0.613796 0.123028 -0.167838
v -0.277185 0.156972 -0.201612
v -0.609537 0.090862 -0.157709
v -0.272925 0.124805 -0.191483
v -0.604806 0.070982 -0.130545
v -0.268195 0.104925 -0.164319
v -0.601413 0.070982 -0.096723
v -0.264802 0.104925 -0.130497
v -0.600652 0.090862 -0.069162
v -0.264041 0.124805 -0.102935
v -0.602815 0.123028 -0.058388
v -0.266204 0.156972 -0.092162
v -0.607075 0.155195 -0.068517
v -0.270463 0.189138 -0.102291
v -0.611805 0.175075 -0.095681
v -0.275194 0.209018 -0.129455
v -0.615198 0.175075 -0.129503
v -0.278587 0.209018 -0.163277
v -0.615959 0.155195 -0.157065
v -0.279348 0.189138 -0.190838
v 0.509450 0.160846 0.045000
v 0.511844 0.180702 0.045000
v 0.509450 0.160846 -0.045000
v 0.511844 0.180702 -0.045000
v 0.688156 0.139298 0.045000
v 0.690550 0.159154 0.045000
v 0.688156 0.139298 -0.045000
v 0.690550 0.159154 -0.045000
vn -0.9928 -0.1197 -0.0000
vn -0.0000 -0.0000 -1.0000
vn 0.9928 0.1197 -0.0000
vn -0.0000 -0.0000 1.0000
vn 0.1197 -0.9928 -0.0000
vn -0.1197 0.9928 -0.0000
vn -0.9838 0.1790 -0.0000
vn 0.9838 -0.1790 -0.0000
vn -0.1790 -0.9838 -0.0000
vn 0.1790 0.9838 -0.0000
vn -1.0000 -0.0000 -0.0000
vn 1.0000 -0.0000 -0.0000
vn -0.0000 -1.0000 -0.0000
vn -0.0000 1.0000 -0.0000
vn 0.2588 0.9659 -0.0000
vn 0.7071 0.7071 -0.0000
vn 0.9659 0.2588 -0.0000
vn 0.9659 -0.2588 -0.0000
vn 0.7071 -0.7071 -0.0000
vn 0.2588 -0.9659 -0.0000
vn -0.2588 -0.9659 -0.0000
vn -0.7071 -0.7071 -0.0000
vn -0.9659 -0.2588 -0.0000
vn -0.9659 0.2588 -0.0000
vn -0.7071 0.7071 -0.0000
vn -0.2588 0.9659 -0.0000
vn -0.9982 -0.0600 -0.0000
vn 0.9982 0.0600 -0.0000
vn 0.0600 -0.9982 -0.0000
vn -0.0600 0.9982 -0.0000
vn -0.9950 -0.0998 -0.0000
vn -0.0120 0.1191 -0.9928
vn 0.9950 0.0998 -0.0000
vn 0.0120 -0.1191 0.9928
vn 0.0991 -0.9878 -0.1197
vn -0.0991 0.9878 0.1197
vn 0.0120 -0.1191 -0.9928
vn -0.0120 0.1191 0.9928
vn 0.0991 -0.9878 0.1197
vn -0.0991 0.9878 -0.1197
vn -0.9988 -0.0500 -0.0000
vn 0.9988 0.0500 -0.0000
vn 0.0500 -0.9988 -0.0000
vn -0.0500 0.9988 -0.0000
vn -0.9872 -0.1593 -0.0000
vn 0.9872 0.1593 -0.0000
vn 0.1593 -0.9872 -0.0000
vn -0.1593 0.9872 -0.0000
vn -0.0100 0.0993 -0.9950
vn 0.0100 -0.0993 0.9950
vn 0.0993 -0.9900 -0.0998
vn -0.0993 0.9900 0.0998
vn 0.0100 -0.0993 -0.9950
vn -0.0100 0.0993 0.9950
vn 0.0993 -0.9900 0.0998
vn -0.0993 0.9900 -0.0998
vn -0.2543 -0.2994 -0.9196
vn -0.0135 -0.7839 -0.6208
vn 0.2324 -0.9689 -0.0848
vn 0.3896 -0.7839 0.4835
vn 0.3979 -0.2994 0.8672
vn 0.2543 0.2994 0.9196
vn 0.0135 0.7839 0.6208
vn -0.2324 0.9689 0.0848
vn 0.9102 0.2474 -0.3322
vn -0.3896 0.7839 -0.4835
vn -0.3979 0.2994 -0.8672
vn -0.9102 -0.2474 0.3322
vn -0.0643 -0.3075 -0.9494
vn 0.0217 -0.8050 -0.5929
vn 0.0993 -0.9950 -0.0100
vn 0.1390 -0.8050 0.5768
vn 0.1256 -0.3075 0.9432
vn 0.0643 0.3075 0.9494
vn -0.0217 0.8050 0.5929
vn -0.0993 0.9950 0.0100
vn 0.9900 0.0998 -0.0993
vn -0.1390 0.8050 -0.5768
vn -0.1256 0.3075 -0.9432
vn -0.9900 -0.0998 0.0993
vn -0.9928 0.1197 -0.0000
vn 0.9928 -0.1197 -0.0000
vn -0.1197 -0.9928 -0.0000
vn 0.1197 0.9928 -0.0000
s 0
usemtl Metal
f 2//1 3//1 1//1
f 4//2 7//2 3//2
f 8//3 5//3 7//3
f 5//4 2//4 1//4
f 7//5 1//5 3//5
f 4//6 6//6 8//6
f 10//7 11//7 9//7
f 12//2 15//2 11//2
f 16//8 13//8 15//8
f 14//4 9//4 13//4
f 15//9 9//9 11//9
f 12//10 14//10 16//10
f 25//15 28//15 27//15
f 27//16 30//16 29//16
f 30//17 31//17 29//17
f 32//18 33//18 31//18
f 34//19 35//19 33//19
f 36//20 37//20 35//20
f 38//21 39//21 37//21
f 40//22 41//22 39//22
f 42//23 43//23 41//23
f 44//24 45//24 43//24
f 46//4 38//4 30//4
f 46//25 47//25 45//25
f 48//26 25//26 47//26
f 31//2 39//2 47//2
f 2//1 4//1 3//1
f 4//2 8//2 7//2
f 8//3 6//3 5//3
f 5//4 6//4 2//4
f 7//5 5//5 1//5
f 4//6 2//6 6//6
f 10//7 12//7 11//7
f 12//2 16//2 15//2
f 16//8 14//8 13//8
f 14//4 10//4 9//4
f 15//9 13//9 9//9
f 12//10 10//10 14//10
f 25//15 26//15 28//15
f 27//16 28//16 30//16
f 30//17 32//17 31//17
f 32//18 34//18 33//18
f 34//19 36//19 35//19
f 36//20 38//20 37//20
f 38//21 40//21 39//21
f 40//22 42//22 41//22
f 42//23 44//23 43//23
f 44//24 46//24 45//24
f 30//4 28//4 26//4
f 26//4 48//4 46//4
f 46//4 44//4 42//4
f 42//4 40//4 38//4
f 38//4 36//4 34//4
f 34//4 32//4 30//4
f 30//4 26//4 46//4
f 46//4 42//4 38//4
f 38//4 34//4 30//4
f 46//25 48//25 47//25
f 48//26 26//26 25//26
f 47//2 25//2 27//2
f 27//2 29//2 31//2
f 31//2 33//2 35//2
f 35//2 37//2 39//2
f 39//2 41//2 43//2
f 43//2 45//2 47//2
f 47//2 27//2 31//2
f 31//2 35//2 39//2
f 39//2 43//2 47//2
usemtl DarkPlastic
f 18//11 19//11 17//11
f 20//2 23//2 19//2
f 24//12 21//12 23//12
f 22//4 17//4 21//4
f 23//13 17//13 19//13
f 20//14 22//14 24//14
f 18//11 20//11 19//11
f 20//2 24//2 23//2
f 24//12 22//12 21//12
f 22//4 18//4 17//4
f 23//13 21//13 17//13
f 20//14 18//14 22//14
usemtl Plastic
f 50//27 51//27 49//27
f 52//2 55//2 51//2
f 56//28 53//28 55//28
f 54//4 49//4 53//4
f 55//29 49//29 51//29
f 52//30 54//30 56//30
f 58//31 59//31 57//31
f 59//32 64//32 63//32
f 63//33 62//33 61//33
f 62//34 57//34 61//34
f 63//35 57//35 59//35
f 60//36 62//36 64//36
f 65//31 68//31 67//31
f 68//37 71//37 67//37
f 72//33 69//33 71//33
f 70//38 65//38 69//38
f 71//39 65//39 67//39
f 72//40 66//40 70//40
f 82//45 83//45 81//45
f 84//2 87//2 83//2
f 88//46 85//46 87//46
f 86//4 81//4 85//4
f 87//47 81//47 83//47
f 84//48 86//48 88//48
f 146//81 147//81 145//81
f 148//2 151//2 147//2
f 152//82 149//82 151//82
f 150//4 145//4 149//4
f 151//83 145//83 147//83
f 148//84 150//84 152//84
f 50//27 52//27 51//27
f 52//2 56//2 55//2
f 56//28 54//28 53//28
f 54//4 50//4 49//4
f 55//29 53//29 49//29
f 52//30 50//30 54//30
f 58//31 60//31 59//31
f 59//32 60//32 64//32
f 63//33 64//33 62//33
f 62//34 58//34 57//34
f 63//35 61//35 57//35
f 60//36 58//36 62//36
f 65//31 66//31 68//31
f 68//37 72//37 71//37
f 72//33 70//33 69//33
f 70//38 66//38 65//38
f 71//39 69//39 65//39
f 72//40 68//40 66//40
f 82//45 84//45 83//45
f 84//2 88//2 87//2
f 88//46 86//46 85//46
f 86//4 82//4 81//4
f 87//47 85//47 81//47
f 84//48 82//48 86//48
f 146//81 148//81 147//81
f 148//2 152//2 151//2
f 152//82 150//82 149//82
f 150//4 146//4 145//4
f 151//83 149//83 145//83
f 148//84 146//84 150//84
usemtl Seat
f 74//41 75//41 73//41
f 75//2 80//2 79//2
f 80//42 77//42 79//42
f 78//4 73//4 77//4
f 79//43 73//43 75//43
f 76//44 78//44 80//44
f 74//41 76//41 75//41
f 75//2 76//2 80//2
f 80//42 78//42 77//42
f 78//4 74//4 73//4
f 79//43 77//43 73//43
f 76//44 74//44 78//44
usemtl Plate
f 90//31 91//31 89//31
f 92//49 95//49 91//49
f 96//33 93//33 95//33
f 94//50 89//50 93//50
f 95//51 89//51 91//51
f 96//52 90//52 94//52
f 98//31 99//31 97//31
f 100//53 103//53 99//53
f 103//33 102//33 101//33
f 102//54 97//54 101//54
f 99//55 101//55 97//55
f 100//56 102//56 104//56
f 90//31 92//31 91//31
f 92//49 96//49 95//49
f 96//33 94//33 93//33
f 94//50 90//50 89//50
f 95//51 93//51 89//51
f 96//52 92//52 90//52
f 98//31 100//31 99//31
f 100//53 104//53 103//53
f 103//33 104//33 102//33
f 102//54 98//54 97//54
f 99//55 103//55 101//55
f 100//56 98//56 102//56
usemtl Chrome
f 106//57 107//57 105//57
f 108//58 109//58 107//58
f 110//59 111//59 109//59
f 112//60 113//60 111//60
f 114//61 115//61 113//61
f 116//62 117//62 115//62
f 117//63 120//63 119//63
f 120//64 121//64 119//64
f 122//65 114//65 110//65
f 121//66 124//66 123//66
f 124//67 105//67 123//67
f 111//68 119//68 123//68
f 126//69 127//69 125//69
f 128//70 129//70 127//70
f 130//71 131//71 129//71
f 132//72 133//72 131//72
f 134//73 135//73 133//73
f 136//74 137//74 135//74
f 138//75 139//75 137//75
f 140//76 141//76 139//76
f 142//77 134//77 130//77
f 142//78 143//78 141//78
f 143//79 126//79 125//79
f 131//80 139//80 143//80
f 106//57 108//57 107//57
f 108//58 110//58 109//58
f 110//59 112//59 111//59
f 112//60 114//60 113//60
f 114//61 116//61 115//61
f 116//62 118//62 117//62
f 117//63 118//63 120//63
f 120//64 122//64 121//64
f 110//65 108//65 106//65
f 106//65 124//65 122//65
f 122//65 120//65 118//65
f 118//65 116//65 114//65
f 114//65 112//65 110//65
f 110//65 106//65 122//65
f 122//65 118//65 114//65
f 121//66 122//66 124//66
f 124//67 106//67 105//67
f 123//68 105//68 107//68
f 107//68 109//68 111//68
f 111//68 113//68 115//68
f 115//68 117//68 119//68
f 119//68 121//68 123//68
f 123//68 107//68 111//68
f 111//68 115//68 119//68
f 126//69 128//69 127//69
f 128//70 130//70 129//70
f 130//71 132//71 131//71
f 132//72 134//72 133//72
f 134//73 136//73 135//73
f 136//74 138//74 137//74
f 138//75 140//75 139//75
f 140//76 142//76 141//76
f 130//77 128//77 126//77
f 126//77 144//77 142//77
f 142//77 140//77 138//77
f 138//77 136//77 134//77
f 134//77 132//77 130//77
f 130//77 126//77 142//77
f 142//77 138//77 134//77
f 142//78 144//78 143//78
f 143//79 144//79 126//79
f 143//80 125//80 127//80
f 127//80 129//80 131//80
f 131//80 133//80 135//80
f 135//80 137//80 139//80
f 139//80 141//80 143//80
f 143//80 127//80 131//80
f 131//80 135//80 139//80
