# Blender 4.0.2
# www.blender.org
mtllib prop_gantry.mtl
o Gantry
v 0.000000 0.000000 -4.330000
v 0.000000 5.000000 -4.330000
v 0.076412 0.000000 -4.305172
v 0.076412 5.000000 -4.305172
v 0.123637 0.000000 -4.240172
v 0.123637 5.000000 -4.240172
v 0.123637 0.000000 -4.159828
v 0.123637 5.000000 -4.159828
v 0.076412 0.000000 -4.094828
v 0.076412 5.000000 -4.094828
v 0.000000 0.000000 -4.070000
v 0.000000 5.000000 -4.070000
v -0.076412 0.000000 -4.094828
v -0.076412 5.000000 -4.094828
v -0.123637 0.000000 -4.159828
v -0.123637 5.000000 -4.159828
v -0.123637 0.000000 -4.240172
v -0.123637 5.000000 -4.240172
v -0.076412 0.000000 -4.305172
v -0.076412 5.000000 -4.305172
v 0.000000 0.000000 4.070000
v 0.000000 5.000000 4.070000
v 0.076412 0.000000 4.094828
v 0.076412 5.000000 4.094828
v 0.123637 0.000000 4.159827
v 0.123637 5.000000 4.159827
v 0.123637 0.000000 4.240172
v 0.123637 5.000000 4.240172
v 0.076412 0.000000 4.305172
v 0.076412 5.000000 4.305172
v 0.000000 0.000000 4.330000
v 0.000000 5.000000 4.330000
v -0.076412 0.000000 4.305172
v -0.076412 5.000000 4.305172
v -0.123637 0.000000 4.240172
v -0.123637 5.000000 4.240172
v -0.123637 0.000000 4.159827
v -0.123637 5.000000 4.159827
v -0.076412 0.000000 4.094828
v -0.076412 5.000000 4.094828
v 0.050000 1.600000 -4.200001
v 0.050000 2.500000 -2.600000
v 0.025000 1.562260 -4.178771
v 0.025000 2.462260 -2.578771
v -0.025000 1.562260 -4.178771
v -0.025000 2.462260 -2.578771
v -0.050000 1.600000 -4.200001
v -0.050000 2.500000 -2.600000
v -0.025000 1.637740 -4.221230
v -0.025000 2.537740 -2.621229
v 0.025000 1.637740 -4.221230
v 0.025000 2.537740 -2.621229
v -0.050000 1.600000 4.200000
v -0.050000 2.500000 2.600000
v -0.025000 1.562260 4.178771
v -0.025000 2.462260 2.578771
v 0.025000 1.562260 4.178771
v 0.025000 2.462260 2.578771
v 0.050000 1.600000 4.200000
v 0.050000 2.500000 2.600000
v 0.025000 1.637740 4.221229
v 0.025000 2.537740 2.621229
v -0.025000 1.637740 4.221229
v -0.025000 2.537740 2.621229
v 0.050000 3.200000 -4.200001
v 0.050000 4.100000 -2.600000
v 0.025000 3.162260 -4.178771
v 0.025000 4.062260 -2.578771
v -0.025000 3.162260 -4.178771
v -0.025000 4.062260 -2.578771
v -0.050000 3.200000 -4.200001
v -0.050000 4.100000 -2.600000
v -0.025000 3.237741 -4.221230
v -0.025000 4.137740 -2.621229
v 0.025000 3.237741 -4.221230
v 0.025000 4.137740 -2.621229
v -0.050000 3.200000 4.200000
v -0.050000 4.100000 2.600000
v -0.025000 3.162260 4.178771
v -0.025000 4.062260 2.578771
v 0.025000 3.162260 4.178771
v 0.025000 4.062260 2.578771
v 0.050000 3.200000 4.200000
v 0.050000 4.100000 2.600000
v 0.025000 3.237741 4.221229
v 0.025000 4.137740 2.621229
v -0.025000 3.237741 4.221229
v -0.025000 4.137740 2.621229
v 0.130000 5.000000 -4.400001
v 0.130000 5.000000 4.400001
v 0.105172 4.923588 -4.400001
v 0.105172 4.923588 4.400001
v 0.040172 4.876363 -4.400001
v 0.040172 4.876363 4.400001
v -0.040172 4.876363 -4.400001
v -0.040172 4.876363 4.400001
v -0.105172 4.923588 -4.400001
v -0.105172 4.923588 4.400001
v -0.130000 5.000000 -4.400001
v -0.130000 5.000000 4.400001
v -0.105172 5.076412 -4.400001
v -0.105172 5.076412 4.400001
v -0.040172 5.123637 -4.400001
v -0.040172 5.123637 4.400001
v 0.040172 5.123637 -4.400001
v 0.040172 5.123637 4.400001
v 0.105172 5.076412 -4.400001
v 0.105172 5.076412 4.400001
v -0.015000 4.012500 2.150000
v -0.015000 4.587500 2.150000
v -0.015000 4.012500 -2.150000
v -0.015000 4.587500 -2.150000
v 0.015000 4.012500 2.150000
v 0.015000 4.587500 2.150000
v 0.015000 4.012500 -2.150000
v 0.015000 4.587500 -2.150000
vn -0.0000 0.6437 -0.7653
vn 0.4498 -0.6437 -0.6191
vn -0.0000 -0.6437 -0.7653
vn 0.4498 0.6437 -0.6191
vn 0.7278 -0.6437 -0.2365
vn 0.7278 0.6437 -0.2365
vn 0.7278 -0.6437 0.2365
vn 0.7278 0.6437 0.2365
vn 0.4498 -0.6437 0.6191
vn 0.4498 0.6437 0.6191
vn -0.0000 -0.6437 0.7653
vn -0.0000 0.6437 0.7653
vn -0.4498 -0.6437 0.6191
vn -0.4498 0.6437 0.6191
vn -0.7278 -0.6437 0.2365
vn -0.7278 0.6437 0.2365
vn -0.7278 -0.6437 -0.2365
vn -0.7278 0.6437 -0.2365
vn -0.4498 -0.6437 -0.6191
vn -0.4498 0.6437 -0.6191
vn 0.7924 0.2991 0.5317
vn 0.3962 -0.8972 -0.1952
vn 0.7924 -0.2991 -0.5317
vn 0.3962 -0.2991 0.8681
vn -0.3962 -0.8972 -0.1952
vn -0.3962 -0.2991 0.8681
vn -0.7924 -0.2991 -0.5317
vn -0.3962 0.8972 0.1952
vn -0.3962 0.2991 -0.8681
vn 0.3962 0.2991 -0.8681
vn -0.7924 0.2991 -0.5317
vn -0.3962 -0.8972 0.1952
vn -0.7924 -0.2991 0.5317
vn -0.3962 -0.2991 -0.8681
vn 0.3962 -0.8972 0.1952
vn 0.7924 0.2991 -0.5317
vn 0.7924 -0.2991 0.5317
vn 0.3962 0.2991 0.8681
vn 0.3962 0.8972 -0.1952
vn 0.3962 -0.2991 -0.8681
vn -0.3962 0.2991 0.8681
vn -0.3962 0.8972 -0.1952
vn 0.3962 0.8972 0.1952
vn 0.7653 -0.0000 0.6437
vn 0.6191 -0.4498 -0.6437
vn 0.7653 -0.0000 -0.6437
vn 0.6191 -0.4498 0.6437
vn 0.2365 -0.7278 -0.6437
vn 0.2365 -0.7278 0.6437
vn -0.2365 -0.7278 -0.6437
vn -0.2365 -0.7278 0.6437
vn -0.6191 -0.4498 -0.6437
vn -0.6191 -0.4498 0.6437
vn -0.7653 -0.0000 -0.6437
vn -0.7653 -0.0000 0.6437
vn -0.6191 0.4498 -0.6437
vn -0.6191 0.4498 0.6437
vn -0.2365 0.7278 -0.6437
vn -0.2365 0.7278 0.6437
vn 0.2365 0.7278 -0.6437
vn 0.2365 0.7278 0.6437
vn 0.6191 0.4498 -0.6437
vn 0.6191 0.4498 0.6437
vn -1.0000 -0.0000 -0.0000
vn -0.0000 -0.0000 -1.0000
vn 1.0000 -0.0000 -0.0000
vn -0.0000 -0.0000 1.0000
vn -0.0000 -1.0000 -0.0000
vn -0.0000 1.0000 -0.0000
vn -0.7924 0.2991 0.5317
s 1
usemtl Steel
f 2//1 3//2 1//3
f 4//4 5//5 3//2
f 6//6 7//7 5//5
f 8//8 9//9 7//7
f 10//10 11//11 9//9
f 12//12 13//13 11//11
f 14//14 15//15 13//13
f 16//16 17//17 15//15
f 18//18 10//10 6//6
f 18//18 19//19 17//17
f 20//20 1//3 19//19
f 7//7 15//15 19//19
f 22//1 23//2 21//3
f 24//4 25//5 23//2
f 26//6 27//7 25//5
f 28//8 29//9 27//7
f 30//10 31//11 29//9
f 32//12 33//13 31//11
f 34//14 35//15 33//13
f 36//16 37//17 35//15
f 38//18 30//10 26//6
f 38//18 39//19 37//17
f 40//20 21//3 39//19
f 27//7 35//15 39//19
f 42//21 43//22 41//23
f 44//24 45//25 43//22
f 46//26 47//27 45//25
f 47//27 50//28 49//29
f 42//21 50//28 46//26
f 50//28 51//30 49//29
f 51//30 42//21 41//23
f 43//22 47//27 51//30
f 54//31 55//32 53//33
f 56//34 57//35 55//32
f 57//35 60//36 59//37
f 60//36 61//38 59//37
f 54//31 62//39 58//40
f 62//39 63//41 61//38
f 64//42 53//33 63//41
f 55//32 59//37 63//41
f 65//23 68//24 67//22
f 68//24 69//25 67//22
f 70//26 71//27 69//25
f 71//27 74//28 73//29
f 66//21 74//28 70//26
f 74//28 75//30 73//29
f 76//43 65//23 75//30
f 67//22 71//27 75//30
f 78//31 79//32 77//33
f 80//34 81//35 79//32
f 81//35 84//36 83//37
f 83//37 86//39 85//38
f 78//31 86//39 82//40
f 86//39 87//41 85//38
f 88//42 77//33 87//41
f 79//32 83//37 87//41
f 90//44 91//45 89//46
f 92//47 93//48 91//45
f 94//49 95//50 93//48
f 96//51 97//52 95//50
f 98//53 99//54 97//52
f 100//55 101//56 99//54
f 102//57 103//58 101//56
f 104//59 105//60 103//58
f 106//61 98//53 94//49
f 106//61 107//62 105//60
f 108//63 89//46 107//62
f 95//50 103//58 107//62
f 2//1 4//4 3//2
f 4//4 6//6 5//5
f 6//6 8//8 7//7
f 8//8 10//10 9//9
f 10//10 12//12 11//11
f 12//12 14//14 13//13
f 14//14 16//16 15//15
f 16//16 18//18 17//17
f 6//6 4//4 2//1
f 2//1 20//20 18//18
f 18//18 16//16 14//14
f 14//14 12//12 10//10
f 10//10 8//8 6//6
f 6//6 2//1 18//18
f 18//18 14//14 10//10
f 18//18 20//20 19//19
f 20//20 2//1 1//3
f 19//19 1//3 3//2
f 3//2 5//5 7//7
f 7//7 9//9 11//11
f 11//11 13//13 15//15
f 15//15 17//17 19//19
f 19//19 3//2 7//7
f 7//7 11//11 15//15
f 22//1 24//4 23//2
f 24//4 26//6 25//5
f 26//6 28//8 27//7
f 28//8 30//10 29//9
f 30//10 32//12 31//11
f 32//12 34//14 33//13
f 34//14 36//16 35//15
f 36//16 38//18 37//17
f 26//6 24//4 22//1
f 22//1 40//20 38//18
f 38//18 36//16 34//14
f 34//14 32//12 30//10
f 30//10 28//8 26//6
f 26//6 22//1 38//18
f 38//18 34//14 30//10
f 38//18 40//20 39//19
f 40//20 22//1 21//3
f 39//19 21//3 23//2
f 23//2 25//5 27//7
f 27//7 29//9 31//11
f 31//11 33//13 35//15
f 35//15 37//17 39//19
f 39//19 23//2 27//7
f 27//7 31//11 35//15
f 42//21 44//24 43//22
f 44//24 46//26 45//25
f 46//26 48//70 47//27
f 47//27 48//70 50//28
f 46//26 44//24 42//21
f 42//21 52//43 50//28
f 50//28 48//70 46//26
f 50//28 52//43 51//30
f 51//30 52//43 42//21
f 51//30 41//23 43//22
f 43//22 45//25 47//27
f 47//27 49//29 51//30
f 54//31 56//34 55//32
f 56//34 58//40 57//35
f 57//35 58//40 60//36
f 60//36 62//39 61//38
f 58//40 56//34 54//31
f 54//31 64//42 62//39
f 62//39 60//36 58//40
f 62//39 64//42 63//41
f 64//42 54//31 53//33
f 63//41 53//33 55//32
f 55//32 57//35 59//37
f 59//37 61//38 63//41
f 65//23 66//21 68//24
f 68//24 70//26 69//25
f 70//26 72//70 71//27
f 71//27 72//70 74//28
f 70//26 68//24 66//21
f 66//21 76//43 74//28
f 74//28 72//70 70//26
f 74//28 76//43 75//30
f 76//43 66//21 65//23
f 75//30 65//23 67//22
f 67//22 69//25 71//27
f 71//27 73//29 75//30
f 78//31 80//34 79//32
f 80//34 82//40 81//35
f 81//35 82//40 84//36
f 83//37 84//36 86//39
f 82//40 80//34 78//31
f 78//31 88//42 86//39
f 86//39 84//36 82//40
f 86//39 88//42 87//41
f 88//42 78//31 77//33
f 87//41 77//33 79//32
f 79//32 81//35 83//37
f 83//37 85//38 87//41
f 90//44 92//47 91//45
f 92//47 94//49 93//48
f 94//49 96//51 95//50
f 96//51 98//53 97//52
f 98//53 100//55 99//54
f 100//55 102//57 101//56
f 102//57 104//59 103//58
f 104//59 106//61 105//60
f 94//49 92//47 90//44
f 90//44 108//63 106//61
f 106//61 104//59 102//57
f 102//57 100//55 98//53
f 98//53 96//51 94//49
f 94//49 90//44 106//61
f 106//61 102//57 98//53
f 106//61 108//63 107//62
f 108//63 90//44 89//46
f 107//62 89//46 91//45
f 91//45 93//48 95//50
f 95//50 97//52 99//54
f 99//54 101//56 103//58
f 103//58 105//60 107//62
f 107//62 91//45 95//50
f 95//50 99//54 103//58
s 0
usemtl Cloth
f 110//64 111//64 109//64
f 112//65 115//65 111//65
f 116//66 113//66 115//66
f 114//67 109//67 113//67
f 115//68 109//68 111//68
f 112//69 114//69 116//69
f 110//64 112//64 111//64
f 112//65 116//65 115//65
f 116//66 114//66 113//66
f 114//67 110//67 109//67
f 115//68 113//68 109//68
f 112//69 110//69 114//69
