# Blender 4.0.2
# www.blender.org
mtllib prop_tree.mtl
o Tree
v -0.050000 0.000000 -0.170000
v -0.050000 2.400000 -0.090000
v 0.049923 0.000000 -0.137533
v 0.002901 2.400000 -0.072812
v 0.111680 0.000000 -0.052533
v 0.035595 2.400000 -0.027812
v 0.111680 0.000000 0.052533
v 0.035595 2.400000 0.027812
v 0.049923 0.000000 0.137533
v 0.002901 2.400000 0.072812
v -0.050000 0.000000 0.170000
v -0.050000 2.400000 0.090000
v -0.149924 0.000000 0.137533
v -0.102901 2.400000 0.072812
v -0.211680 0.000000 0.052533
v -0.135595 2.400000 0.027812
v -0.211680 0.000000 -0.052533
v -0.135595 2.400000 -0.027812
v -0.149924 0.000000 -0.137533
v -0.102901 2.400000 -0.072812
v -0.066713 1.700000 -0.041781
v 0.433287 2.300000 -0.241781
v -0.031428 1.673969 -0.031662
v 0.468572 2.273969 -0.231662
v -0.014715 1.673969 0.010119
v 0.485285 2.273969 -0.189881
v -0.033287 1.700000 0.041781
v 0.466713 2.300000 -0.158219
v -0.068572 1.726031 0.031662
v 0.431428 2.326031 -0.168338
v -0.085285 1.726031 -0.010119
v 0.414715 2.326031 -0.210119
v -0.037351 1.900000 0.037947
v -0.487351 2.500000 0.187947
v -0.069456 1.878517 0.027567
v -0.519456 2.478517 0.177567
v -0.082105 1.878517 -0.010380
v -0.532105 2.478517 0.139620
v -0.062649 1.900000 -0.037947
v -0.512649 2.500000 0.112053
v -0.030544 1.921484 -0.027567
v -0.480544 2.521483 0.122433
v -0.017895 1.921484 0.010380
v -0.467895 2.521483 0.160380
v -0.000000 3.131934 -0.363549
v -0.000000 2.761755 -0.877686
v -0.000000 2.500000 -0.950000
v -0.000000 1.868066 -0.363549
v -0.000000 3.184000 0.000000
v 0.157738 3.131934 -0.327547
v 0.291462 2.983661 -0.605227
v 0.380813 2.761755 -0.790767
v 0.412190 2.500000 -0.855920
v 0.380813 2.238245 -0.790767
v 0.291462 2.016339 -0.605227
v 0.157738 1.868066 -0.327547
v 0.284234 3.131934 -0.226669
v 0.525196 2.983661 -0.418830
v 0.686202 2.761755 -0.547228
v 0.742740 2.500000 -0.592315
v 0.686202 2.238245 -0.547228
v 0.525196 2.016339 -0.418830
v 0.284234 1.868066 -0.226669
v 0.354434 3.131934 -0.080897
v 0.654909 2.983661 -0.149479
v 0.855680 2.761755 -0.195303
v 0.926181 2.500000 -0.211395
v 0.855680 2.238245 -0.195303
v 0.654909 2.016339 -0.149479
v 0.354434 1.868066 -0.080897
v 0.354434 3.131934 0.080897
v 0.654909 2.983661 0.149479
v 0.855680 2.761755 0.195303
v 0.926181 2.500000 0.211395
v 0.855680 2.238245 0.195303
v 0.654909 2.016339 0.149479
v 0.354434 1.868066 0.080897
v 0.284234 3.131934 0.226669
v 0.525196 2.983661 0.418830
v 0.686202 2.761755 0.547228
v 0.742740 2.500000 0.592315
v 0.686202 2.238245 0.547228
v 0.525196 2.016339 0.418830
v 0.284234 1.868066 0.226669
v 0.157738 3.131934 0.327547
v 0.291462 2.983661 0.605227
v 0.380813 2.761755 0.790767
v 0.412189 2.500000 0.855920
v 0.380813 2.238245 0.790767
v 0.291462 2.016339 0.605227
v 0.157738 1.868066 0.327547
v -0.000000 3.131934 0.363549
v -0.000000 2.983661 0.671751
v -0.000000 2.761755 0.877686
v -0.000000 2.500000 0.950000
v -0.000000 2.238245 0.877686
v -0.000000 2.016339 0.671751
v -0.000000 1.868066 0.363549
v -0.157738 3.131934 0.327547
v -0.291462 2.983661 0.605227
v -0.380814 2.761755 0.790767
v -0.412190 2.500000 0.855920
v -0.380814 2.238245 0.790767
v -0.291462 2.016339 0.605227
v -0.157738 1.868066 0.327547
v -0.284234 3.131934 0.226669
v -0.525197 2.983661 0.418830
v -0.686202 2.761755 0.547228
v -0.742740 2.500000 0.592315
v -0.686202 2.238245 0.547228
v -0.525197 2.016339 0.418830
v -0.284234 1.868066 0.226669
v -0.354434 3.131934 0.080897
v -0.654909 2.983661 0.149479
v -0.855680 2.761755 0.195303
v -0.926181 2.500000 0.211395
v -0.855680 2.238245 0.195303
v -0.654909 2.016339 0.149479
v -0.354434 1.868066 0.080897
v -0.354434 3.131934 -0.080897
v -0.654909 2.983661 -0.149479
v -0.855680 2.761755 -0.195304
v -0.926181 2.500000 -0.211395
v -0.855680 2.238245 -0.195304
v -0.654909 2.016339 -0.149479
v -0.354434 1.868066 -0.080897
v -0.284234 3.131934 -0.226669
v -0.525196 2.983661 -0.418830
v -0.686202 2.761755 -0.547228
v -0.742740 2.500000 -0.592315
v -0.686202 2.238245 -0.547228
v -0.525196 2.016339 -0.418830
v -0.284234 1.868066 -0.226669
v -0.157738 3.131934 -0.327547
v -0.291462 2.983661 -0.605227
v -0.380813 2.761755 -0.790767
v -0.412189 2.500000 -0.855920
v -0.380813 2.238245 -0.790767
v -0.291462 2.016339 -0.605227
v -0.157738 1.868066 -0.327547
v 0.000000 2.983661 -0.671751
v 0.000000 2.238245 -0.877686
v 0.000000 2.016339 -0.671751
v -0.000000 1.816000 0.000000
v -0.150000 3.618851 -0.378493
v -0.150000 3.314915 -0.800626
v -0.150000 3.100000 -0.860000
v -0.150000 2.581149 -0.378493
v -0.150000 3.661600 -0.080000
v -0.020489 3.618851 -0.348933
v 0.089306 3.497111 -0.576923
v 0.162668 3.314915 -0.729262
v 0.188429 3.100000 -0.782756
v 0.162668 2.885085 -0.729262
v 0.089306 2.702889 -0.576923
v -0.020489 2.581149 -0.348933
v 0.083371 3.618851 -0.266107
v 0.281214 3.497111 -0.423882
v 0.413408 3.314915 -0.529303
v 0.459829 3.100000 -0.566322
v 0.413408 2.885085 -0.529303
v 0.281214 2.702889 -0.423882
v 0.083371 2.581149 -0.266107
v 0.141009 3.618851 -0.146421
v 0.387715 3.497111 -0.202730
v 0.552558 3.314915 -0.240354
v 0.610444 3.100000 -0.253566
v 0.552558 2.885085 -0.240354
v 0.387715 2.702889 -0.202730
v 0.141009 2.581149 -0.146421
v 0.141009 3.618851 -0.013579
v 0.387715 3.497111 0.042730
v 0.552558 3.314915 0.080354
v 0.610444 3.100000 0.093566
v 0.552558 2.885085 0.080354
v 0.387715 2.702889 0.042730
v 0.141009 2.581149 -0.013579
v 0.083371 3.618851 0.106107
v 0.281214 3.497111 0.263882
v 0.413408 3.314915 0.369303
v 0.459828 3.100000 0.406322
v 0.413408 2.885085 0.369303
v 0.281214 2.702889 0.263882
v 0.083371 2.581149 0.106107
v -0.020489 3.618851 0.188933
v 0.089306 3.497111 0.416923
v 0.162668 3.314915 0.569262
v 0.188429 3.100000 0.622756
v 0.162668 2.885085 0.569262
v 0.089306 2.702889 0.416923
v -0.020489 2.581149 0.188933
v -0.150000 3.618851 0.218493
v -0.150000 3.497111 0.471543
v -0.150000 3.314915 0.640626
v -0.150000 3.100000 0.700000
v -0.150000 2.885085 0.640626
v -0.150000 2.702889 0.471543
v -0.150000 2.581149 0.218493
v -0.279511 3.618851 0.188933
v -0.389306 3.497111 0.416923
v -0.462668 3.314915 0.569262
v -0.488430 3.100000 0.622756
v -0.462668 2.885085 0.569262
v -0.389306 2.702889 0.416923
v -0.279511 2.581149 0.188933
v -0.383371 3.618851 0.106107
v -0.581214 3.497111 0.263881
v -0.713408 3.314915 0.369303
v -0.759829 3.100000 0.406322
v -0.713408 2.885085 0.369303
v -0.581214 2.702889 0.263881
v -0.383371 2.581149 0.106107
v -0.441009 3.618851 -0.013579
v -0.687715 3.497111 0.042730
v -0.852558 3.314915 0.080354
v -0.910444 3.100000 0.093566
v -0.852558 2.885085 0.080354
v -0.687715 2.702889 0.042730
v -0.441009 2.581149 -0.013579
v -0.441009 3.618851 -0.146421
v -0.687715 3.497111 -0.202730
v -0.852558 3.314915 -0.240355
v -0.910444 3.100000 -0.253567
v -0.852558 2.885085 -0.240355
v -0.687715 2.702889 -0.202730
v -0.441009 2.581149 -0.146421
v -0.383371 3.618851 -0.266107
v -0.581214 3.497111 -0.423882
v -0.713408 3.314915 -0.529303
v -0.759828 3.100000 -0.566322
v -0.713408 2.885085 -0.529303
v -0.581214 2.702889 -0.423882
v -0.383371 2.581149 -0.266107
v -0.279511 3.618851 -0.348933
v -0.389305 3.497111 -0.576923
v -0.462668 3.314915 -0.729262
v -0.488429 3.100000 -0.782756
v -0.462668 2.885085 -0.729262
v -0.389305 2.702889 -0.576923
v -0.279511 2.581149 -0.348933
v -0.150000 3.497111 -0.631543
v -0.150000 2.885085 -0.800626
v -0.150000 2.702889 -0.631543
v -0.150000 2.538400 -0.080000
v 0.030000 3.945900 -0.148995
v 0.030000 3.743277 -0.430417
v 0.030000 3.600000 -0.470000
v 0.030000 3.456723 -0.430417
v 0.030000 3.254099 -0.148995
v 0.030000 3.974400 0.050000
v 0.116341 3.945900 -0.129289
v 0.189537 3.864741 -0.281282
v 0.238445 3.743277 -0.382841
v 0.255619 3.600000 -0.418504
v 0.238445 3.456723 -0.382841
v 0.189537 3.335259 -0.281282
v 0.116341 3.254099 -0.129289
v 0.185581 3.945900 -0.074072
v 0.317476 3.864741 -0.179254
v 0.405605 3.743277 -0.249535
v 0.436552 3.600000 -0.274215
v 0.405605 3.456723 -0.249535
v 0.317476 3.335259 -0.179254
v 0.185581 3.254099 -0.074072
v 0.224006 3.945900 0.005719
v 0.388477 3.864741 -0.031820
v 0.498372 3.743277 -0.056903
v 0.536962 3.600000 -0.065711
v 0.498372 3.456723 -0.056903
v 0.388477 3.335259 -0.031820
v 0.224006 3.254099 0.005719
v 0.224006 3.945900 0.094281
v 0.388477 3.864741 0.131820
v 0.498372 3.743277 0.156903
v 0.536962 3.600000 0.165711
v 0.498372 3.456723 0.156903
v 0.388477 3.335259 0.131820
v 0.224006 3.254099 0.094281
v 0.185581 3.945900 0.174072
v 0.317476 3.864741 0.279254
v 0.405605 3.743277 0.349535
v 0.436552 3.600000 0.374215
v 0.405605 3.456723 0.349535
v 0.317476 3.335259 0.279254
v 0.185581 3.254099 0.174072
v 0.116341 3.945900 0.229289
v 0.189537 3.864741 0.381282
v 0.238445 3.743277 0.482841
v 0.255619 3.600000 0.518504
v 0.238445 3.456723 0.482841
v 0.189537 3.335259 0.381282
v 0.116341 3.254099 0.229289
v 0.030000 3.945900 0.248995
v 0.030000 3.864741 0.417696
v 0.030000 3.743277 0.530417
v 0.030000 3.600000 0.570000
v 0.030000 3.456723 0.530417
v 0.030000 3.335259 0.417696
v 0.030000 3.254099 0.248995
v -0.056341 3.945900 0.229289
v -0.129537 3.864741 0.381282
v -0.178445 3.743277 0.482841
v -0.195620 3.600000 0.518504
v -0.178445 3.456723 0.482841
v -0.129537 3.335259 0.381282
v -0.056341 3.254099 0.229289
v -0.125581 3.945900 0.174072
v -0.257476 3.864741 0.279254
v -0.345605 3.743277 0.349535
v -0.376552 3.600000 0.374215
v -0.345605 3.456723 0.349535
v -0.257476 3.335259 0.279254
v -0.125581 3.254099 0.174072
v -0.164006 3.945900 0.094281
v -0.328477 3.864741 0.131820
v -0.438372 3.743277 0.156903
v -0.476962 3.600000 0.165711
v -0.438372 3.456723 0.156903
v -0.328477 3.335259 0.131820
v -0.164006 3.254099 0.094281
v -0.164006 3.945900 0.005719
v -0.328477 3.864741 -0.031820
v -0.438372 3.743277 -0.056903
v -0.476962 3.600000 -0.065711
v -0.438372 3.456723 -0.056903
v -0.328477 3.335259 -0.031820
v -0.164006 3.254099 0.005719
v -0.125581 3.945900 -0.074072
v -0.257476 3.864741 -0.179254
v -0.345605 3.743277 -0.249535
v -0.376552 3.600000 -0.274215
v -0.345605 3.456723 -0.249535
v -0.257476 3.335259 -0.179254
v -0.125581 3.254099 -0.074072
v -0.056341 3.945900 -0.129289
v -0.129537 3.864741 -0.281282
v -0.178445 3.743277 -0.382841
v -0.195619 3.600000 -0.418504
v -0.178445 3.456723 -0.382841
v -0.129537 3.335259 -0.281282
v -0.056341 3.254099 -0.129289
v 0.030000 3.864741 -0.317695
v 0.030000 3.335259 -0.317695
v 0.030000 3.225600 0.050000
vn -0.0000 0.6561 -0.7547
vn 0.4559 -0.6312 -0.6275
vn -0.0000 -0.6312 -0.7756
vn 0.4436 0.6561 -0.6105
vn 0.7377 -0.6312 -0.2397
vn 0.7177 0.6561 -0.2332
vn 0.7377 -0.6312 0.2397
vn 0.7177 0.6561 0.2332
vn 0.4559 -0.6312 0.6275
vn 0.4436 0.6561 0.6105
vn -0.0000 -0.6312 0.7756
vn -0.0000 0.6561 0.7547
vn -0.4559 -0.6312 0.6275
vn -0.4436 0.6561 0.6105
vn -0.7377 -0.6312 0.2397
vn -0.7177 0.6561 0.2332
vn -0.7377 -0.6312 -0.2397
vn -0.7177 0.6561 -0.2332
vn -0.4559 -0.6312 -0.6275
vn -0.4436 0.6561 -0.6105
vn 0.0840 0.4540 -0.8871
vn -0.0513 -0.9123 -0.4062
vn -0.6726 -0.4540 -0.5844
vn 0.7053 -0.0044 -0.7089
vn 0.2430 -0.9123 0.3295
vn 0.9996 -0.0044 0.0269
vn -0.0840 -0.4540 0.8871
vn 0.6726 0.4540 0.5844
vn -0.7053 0.0044 0.7089
vn 0.0513 0.9123 0.4062
vn -0.9996 0.0044 -0.0269
vn 0.6095 -0.4785 0.6321
vn -0.7443 0.0529 0.6657
vn -0.0265 -0.9041 0.4265
vn -0.2771 -0.9041 -0.3253
vn -0.9949 0.0529 -0.0860
vn 0.1083 -0.4785 -0.8714
vn -0.6095 0.4785 -0.6321
vn 0.7443 -0.0529 -0.6657
vn -0.1083 0.4785 0.8714
vn 0.0265 0.9041 -0.4265
vn 0.2771 0.9041 0.3253
vn 0.9949 -0.0529 0.0860
vn -0.0000 -0.7922 -0.6103
vn 0.1348 -0.9505 -0.2799
vn -0.0000 -0.9505 -0.3107
vn -0.0000 -0.4734 -0.8809
vn 0.4339 -0.0000 -0.9010
vn 0.3822 -0.4734 -0.7936
vn -0.0000 0.7922 -0.6103
vn 0.3822 0.4734 -0.7936
vn -0.0000 0.4734 -0.8809
vn -0.0000 0.9505 -0.3107
vn -0.0000 1.0000 -0.0000
vn 0.1348 0.9505 -0.2799
vn -0.0000 -1.0000 -0.0000
vn 0.2648 -0.7922 -0.5498
vn -0.0000 -0.0000 -1.0000
vn 0.2648 0.7922 -0.5498
vn 0.6887 0.4734 -0.5492
vn 0.2429 0.9505 -0.1937
vn 0.2429 -0.9505 -0.1937
vn 0.4771 -0.7922 -0.3805
vn 0.7818 -0.0000 -0.6235
vn 0.4771 0.7922 -0.3805
vn 0.6887 -0.4734 -0.5492
vn 0.3029 -0.9505 -0.0691
vn 0.5950 -0.7922 -0.1358
vn 0.9749 -0.0000 -0.2225
vn 0.5950 0.7922 -0.1358
vn 0.8588 -0.4734 -0.1960
vn 0.8588 0.4734 -0.1960
vn 0.3029 0.9505 -0.0691
vn 0.5950 0.7922 0.1358
vn 0.5950 -0.7922 0.1358
vn 0.3029 -0.9505 0.0691
vn 0.8588 -0.4734 0.1960
vn 0.8588 0.4734 0.1960
vn 0.3029 0.9505 0.0691
vn 0.9749 -0.0000 0.2225
vn 0.2429 -0.9505 0.1937
vn 0.6887 -0.4734 0.5492
vn 0.6887 0.4734 0.5492
vn 0.2429 0.9505 0.1937
vn 0.4771 -0.7922 0.3805
vn 0.7818 -0.0000 0.6235
vn 0.4771 0.7922 0.3805
vn 0.1348 0.9505 0.2799
vn 0.1348 -0.9505 0.2799
vn 0.3822 -0.4734 0.7936
vn 0.2648 -0.7922 0.5498
vn 0.4339 -0.0000 0.9010
vn 0.2648 0.7922 0.5498
vn 0.3822 0.4734 0.7936
vn -0.0000 -0.4734 0.8809
vn -0.0000 -0.7922 0.6103
vn -0.0000 -0.0000 1.0000
vn -0.0000 0.7922 0.6103
vn -0.0000 -0.9505 0.3107
vn -0.0000 0.4734 0.8809
vn -0.0000 0.9505 0.3107
vn -0.1348 -0.9505 0.2799
vn -0.3822 -0.4734 0.7936
vn -0.3822 0.4734 0.7936
vn -0.1348 0.9505 0.2799
vn -0.2648 -0.7922 0.5498
vn -0.4339 -0.0000 0.9010
vn -0.2648 0.7922 0.5498
vn -0.6887 -0.4734 0.5492
vn -0.6887 0.4734 0.5492
vn -0.2429 0.9505 0.1937
vn -0.2429 -0.9505 0.1937
vn -0.4771 -0.7922 0.3805
vn -0.7818 -0.0000 0.6235
vn -0.4771 0.7922 0.3805
vn -0.3029 -0.9505 0.0691
vn -0.8588 -0.4734 0.1960
vn -0.5950 -0.7922 0.1358
vn -0.8588 0.4734 0.1960
vn -0.9749 -0.0000 0.2225
vn -0.3029 0.9505 0.0691
vn -0.5950 0.7922 0.1358
vn -0.9749 -0.0000 -0.2225
vn -0.3029 0.9505 -0.0691
vn -0.5950 0.7922 -0.1358
vn -0.3029 -0.9505 -0.0691
vn -0.8588 -0.4734 -0.1960
vn -0.8588 0.4734 -0.1960
vn -0.5950 -0.7922 -0.1358
vn -0.2429 -0.9505 -0.1937
vn -0.6887 -0.4734 -0.5492
vn -0.6887 0.4734 -0.5492
vn -0.2429 0.9505 -0.1937
vn -0.4771 -0.7922 -0.3805
vn -0.7818 -0.0000 -0.6235
vn -0.4771 0.7922 -0.3805
vn -0.3822 0.4734 -0.7936
vn -0.1348 0.9505 -0.2799
vn -0.1348 -0.9505 -0.2799
vn -0.2648 -0.7922 -0.5498
vn -0.4339 -0.0000 -0.9010
vn -0.2648 0.7922 -0.5498
vn -0.3822 -0.4734 -0.7936
vn 0.1348 0.9505 -0.2800
vn 0.1348 -0.9505 -0.2800
vn 0.1348 -0.9505 0.2800
vn -0.1348 0.9505 0.2800
vn -0.1348 -0.9505 0.2800
vn -0.1348 0.9505 -0.2800
vn -0.1348 -0.9505 -0.2800
vn 0.1348 0.9505 0.2800
vn -0.2430 0.9123 -0.3295
s 1
usemtl Bark
f 2//1 3//2 1//3
f 4//4 5//5 3//2
f 6//6 7//7 5//5
f 8//8 9//9 7//7
f 10//10 11//11 9//9
f 12//12 13//13 11//11
f 14//14 15//15 13//13
f 16//16 17//17 15//15
f 18//18 10//10 6//6
f 18//18 19//19 17//17
f 20//20 1//3 19//19
f 7//7 15//15 19//19
f 22//21 23//22 21//23
f 24//24 25//25 23//22
f 26//26 27//27 25//25
f 28//28 29//29 27//27
f 22//21 30//30 26//26
f 30//30 31//31 29//29
f 31//31 22//21 21//23
f 23//22 27//27 31//31
f 33//32 36//33 35//34
f 36//33 37//35 35//34
f 38//36 39//37 37//35
f 40//38 41//39 39//37
f 34//40 42//41 38//36
f 41//39 44//42 43//43
f 43//43 34//40 33//32
f 35//34 39//37 43//43
f 2//1 4//4 3//2
f 4//4 6//6 5//5
f 6//6 8//8 7//7
f 8//8 10//10 9//9
f 10//10 12//12 11//11
f 12//12 14//14 13//13
f 14//14 16//16 15//15
f 16//16 18//18 17//17
f 6//6 4//4 2//1
f 2//1 20//20 18//18
f 18//18 16//16 14//14
f 14//14 12//12 10//10
f 10//10 8//8 6//6
f 6//6 2//1 18//18
f 18//18 14//14 10//10
f 18//18 20//20 19//19
f 20//20 2//1 1//3
f 19//19 1//3 3//2
f 3//2 5//5 7//7
f 7//7 9//9 11//11
f 11//11 13//13 15//15
f 15//15 17//17 19//19
f 19//19 3//2 7//7
f 7//7 11//11 15//15
f 22//21 24//24 23//22
f 24//24 26//26 25//25
f 26//26 28//28 27//27
f 28//28 30//30 29//29
f 26//26 24//24 22//21
f 22//21 32//152 30//30
f 30//30 28//28 26//26
f 30//30 32//152 31//31
f 31//31 32//152 22//21
f 31//31 21//23 23//22
f 23//22 25//25 27//27
f 27//27 29//29 31//31
f 33//32 34//40 36//33
f 36//33 38//36 37//35
f 38//36 40//38 39//37
f 40//38 42//41 41//39
f 38//36 36//33 34//40
f 34//40 44//42 42//41
f 42//41 40//38 38//36
f 41//39 42//41 44//42
f 43//43 44//42 34//40
f 43//43 33//32 35//34
f 35//34 37//35 39//37
f 39//37 41//39 43//43
usemtl Leaf
f 143//44 56//45 48//46
f 142//47 53//48 54//49
f 141//50 52//51 46//52
f 45//53 49//54 50//55
f 144//56 48//46 56//45
f 142//47 55//57 143//44
f 47//58 52//51 53//48
f 141//50 50//55 51//59
f 51//59 59//60 52//51
f 50//55 49//54 57//61
f 144//56 56//45 63//62
f 54//49 62//63 55//57
f 53//48 59//60 60//64
f 50//55 58//65 51//59
f 55//57 63//62 56//45
f 53//48 61//66 54//49
f 144//56 63//62 70//67
f 61//66 69//68 62//63
f 59//60 67//69 60//64
f 57//61 65//70 58//65
f 62//63 70//67 63//62
f 60//64 68//71 61//66
f 58//65 66//72 59//60
f 57//61 49//54 64//73
f 64//73 72//74 65//70
f 70//67 76//75 77//76
f 67//69 75//77 68//71
f 65//70 73//78 66//72
f 64//73 49//54 71//79
f 144//56 70//67 77//76
f 68//71 76//75 69//68
f 66//72 74//80 67//69
f 76//75 84//81 77//76
f 74//80 82//82 75//77
f 72//74 80//83 73//78
f 71//79 49//54 78//84
f 144//56 77//76 84//81
f 75//77 83//85 76//75
f 74//80 80//83 81//86
f 71//79 79//87 72//74
f 78//84 49//54 85//88
f 144//56 84//81 91//89
f 83//85 89//90 90//91
f 80//83 88//92 81//86
f 78//84 86//93 79//87
f 83//85 91//89 84//81
f 81//86 89//90 82//82
f 79//87 87//94 80//83
f 90//91 96//95 97//96
f 87//94 95//97 88//92
f 85//88 93//98 86//93
f 90//91 98//99 91//89
f 88//92 96//95 89//90
f 86//93 94//100 87//94
f 85//88 49//54 92//101
f 144//56 91//89 98//99
f 97//96 105//102 98//99
f 95//97 103//103 96//95
f 93//98 101//104 94//100
f 92//101 49//54 99//105
f 144//56 98//99 105//102
f 97//96 103//103 104//106
f 94//100 102//107 95//97
f 92//101 100//108 93//98
f 102//107 110//109 103//103
f 100//108 108//110 101//104
f 99//105 49//54 106//111
f 144//56 105//102 112//112
f 103//103 111//113 104//106
f 102//107 108//110 109//114
f 100//108 106//111 107//115
f 104//106 112//112 105//102
f 144//56 112//112 119//116
f 111//113 117//117 118//118
f 109//114 115//119 116//120
f 107//115 113//121 114//122
f 111//113 119//116 112//112
f 109//114 117//117 110//109
f 107//115 115//119 108//110
f 106//111 49//54 113//121
f 115//119 123//123 116//120
f 114//122 120//124 121//125
f 118//118 126//126 119//116
f 116//120 124//127 117//117
f 114//122 122//128 115//119
f 113//121 49//54 120//124
f 144//56 119//116 126//126
f 118//118 124//127 125//129
f 125//129 133//130 126//126
f 123//123 131//131 124//127
f 121//125 129//132 122//128
f 120//124 49//54 127//133
f 144//56 126//126 133//130
f 125//129 131//131 132//134
f 122//128 130//135 123//123
f 120//124 128//136 121//125
f 128//136 136//137 129//132
f 127//133 49//54 134//138
f 144//56 133//130 140//139
f 131//131 139//140 132//134
f 129//132 137//141 130//135
f 127//133 135//142 128//136
f 133//130 139//140 140//139
f 130//135 138//143 131//131
f 144//56 140//139 48//46
f 139//140 142//47 143//44
f 136//137 47//58 137//141
f 135//142 45//53 141//50
f 139//140 48//46 140//139
f 138//143 47//58 142//47
f 135//142 46//52 136//137
f 134//138 49//54 45//53
f 241//50 152//51 146//52
f 145//53 149//54 150//144
f 244//56 148//46 156//145
f 242//47 155//57 243//44
f 146//52 153//48 147//58
f 241//50 150//144 151//59
f 243//44 156//145 148//46
f 242//47 153//48 154//49
f 155//57 161//66 162//63
f 152//51 160//64 153//48
f 150//144 158//65 151//59
f 156//145 162//63 163//62
f 153//48 161//66 154//49
f 152//51 158//65 159//60
f 150//144 149//54 157//61
f 244//56 156//145 163//62
f 162//63 170//67 163//62
f 160//64 168//71 161//66
f 158//65 166//72 159//60
f 157//61 149//54 164//73
f 244//56 163//62 170//67
f 161//66 169//68 162//63
f 159//60 167//69 160//64
f 158//65 164//73 165//70
f 167//69 175//77 168//71
f 166//72 172//74 173//78
f 164//73 149//54 171//79
f 244//56 170//67 177//76
f 168//71 176//75 169//68
f 166//72 174//80 167//69
f 164//73 172//74 165//70
f 169//68 177//76 170//67
f 244//56 177//76 184//81
f 175//77 183//85 176//75
f 174//80 180//83 181//86
f 171//79 179//87 172//74
f 176//75 184//81 177//76
f 174//80 182//82 175//77
f 172//74 180//83 173//78
f 171//79 149//54 178//84
f 181//86 187//94 188//92
f 178//84 186//93 179//87
f 183//85 191//146 184//81
f 181//86 189//90 182//82
f 180//83 186//93 187//94
f 178//84 149//54 185//88
f 244//56 184//81 191//146
f 183//85 189//90 190//91
f 190//91 198//99 191//146
f 188//92 196//95 189//90
f 186//93 194//100 187//94
f 185//88 149//54 192//101
f 244//56 191//146 198//99
f 189//90 197//96 190//91
f 187//94 195//97 188//92
f 185//88 193//98 186//93
f 193//98 201//104 194//100
f 192//101 149//54 199//147
f 244//56 198//99 205//148
f 196//95 204//106 197//96
f 194//100 202//107 195//97
f 192//101 200//108 193//98
f 197//96 205//148 198//99
f 195//97 203//103 196//95
f 244//56 205//148 212//112
f 203//103 211//113 204//106
f 202//107 208//110 209//114
f 200//108 206//111 207//115
f 204//106 212//112 205//148
f 202//107 210//109 203//103
f 200//108 208//110 201//104
f 199//147 149//54 206//111
f 206//111 214//122 207//115
f 211//113 219//116 212//112
f 209//114 217//117 210//109
f 207//115 215//119 208//110
f 206//111 149//54 213//121
f 244//56 212//112 219//116
f 210//109 218//118 211//113
f 208//110 216//120 209//114
f 219//116 225//129 226//126
f 216//120 224//127 217//117
f 214//122 222//128 215//119
f 213//121 149//54 220//124
f 244//56 219//116 226//126
f 218//118 224//127 225//129
f 215//119 223//123 216//120
f 213//121 221//125 214//122
f 220//124 149//54 227//133
f 244//56 226//126 233//130
f 224//127 232//134 225//129
f 222//128 230//135 223//123
f 220//124 228//136 221//125
f 225//129 233//130 226//126
f 224//127 230//135 231//131
f 221//125 229//132 222//128
f 232//134 238//143 239//140
f 230//135 236//137 237//141
f 228//136 234//149 235//142
f 232//134 240//150 233//130
f 230//135 238//143 231//131
f 228//136 236//137 229//132
f 227//133 149//54 234//149
f 244//56 233//130 240//150
f 239//140 148//46 240//150
f 238//143 147//58 242//47
f 235//142 146//52 236//137
f 234//149 149//54 145//53
f 244//56 240//150 148//46
f 239//140 242//47 243//44
f 237//141 146//52 147//58
f 235//142 145//53 241//50
f 342//50 253//51 246//52
f 245//53 250//54 251//144
f 344//56 249//46 257//145
f 343//44 255//49 256//57
f 246//52 254//48 247//58
f 342//50 251//144 252//59
f 343//44 257//145 249//46
f 247//58 255//49 248//47
f 255//49 263//63 256//57
f 253//51 261//64 254//48
f 252//59 258//61 259//65
f 256//57 264//62 257//145
f 255//49 261//64 262//66
f 252//59 260//60 253//51
f 251//144 250//54 258//61
f 344//56 257//145 264//62
f 263//63 271//67 264//62
f 262//66 268//69 269//71
f 260//60 266//70 267//72
f 258//61 250//54 265//73
f 344//56 264//62 271//67
f 262//66 270//68 263//63
f 260//60 268//69 261//64
f 258//61 266//70 259//65
f 268//69 276//77 269//71
f 266//70 274//78 267//72
f 265//73 250//54 272//79
f 344//56 271//67 278//76
f 270//68 276//77 277//75
f 267//72 275//80 268//69
f 265//73 273//74 266//70
f 270//68 278//76 271//67
f 344//56 278//76 285//81
f 276//77 284//85 277//75
f 275//80 281//83 282//86
f 272//79 280//87 273//74
f 277//75 285//81 278//76
f 275//80 283//82 276//77
f 273//74 281//83 274//78
f 272//79 250//54 279//84
f 281//83 289//92 282//86
f 279//84 287//93 280//87
f 285//81 291//91 292//146
f 282//86 290//90 283//82
f 280//87 288//94 281//83
f 279//84 250//54 286//151
f 344//56 285//81 292//146
f 283//82 291//91 284//85
f 292//146 298//96 299//99
f 289//92 297//95 290//90
f 287//93 295//100 288//94
f 286//151 250//54 293//101
f 344//56 292//146 299//99
f 291//91 297//95 298//96
f 288//94 296//97 289//92
f 286//151 294//98 287//93
f 294//98 302//104 295//100
f 293//101 250//54 300//105
f 344//56 299//99 306//148
f 298//96 304//103 305//106
f 296//97 302//104 303//107
f 294//98 300//105 301//108
f 298//96 306//148 299//99
f 296//97 304//103 297//95
f 344//56 306//148 313//112
f 304//103 312//113 305//106
f 303//107 309//110 310//114
f 300//105 308//115 301//108
f 305//106 313//112 306//148
f 303//107 311//109 304//103
f 302//104 308//115 309//110
f 300//105 250//54 307//111
f 307//111 315//122 308//115
f 312//113 320//116 313//112
f 310//114 318//117 311//109
f 308//115 316//119 309//110
f 307//111 250//54 314//121
f 344//56 313//112 320//116
f 312//113 318//117 319//118
f 309//110 317//120 310//114
f 319//118 327//126 320//116
f 317//120 325//127 318//117
f 315//122 323//128 316//119
f 314//121 250//54 321//124
f 344//56 320//116 327//126
f 319//118 325//127 326//129
f 316//119 324//123 317//120
f 314//121 322//125 315//122
f 321//124 250//54 328//133
f 344//56 327//126 334//130
f 326//129 332//131 333//134
f 323//128 331//135 324//123
f 321//124 329//136 322//125
f 326//129 334//130 327//126
f 324//123 332//131 325//127
f 322//125 330//132 323//128
f 333//134 339//143 340//140
f 330//132 338//141 331//135
f 328//133 336//142 329//136
f 334//130 340//140 341//150
f 331//135 339//143 332//131
f 329//136 337//137 330//132
f 328//133 250//54 335//149
f 344//56 334//130 341//150
f 340//140 249//46 341//150
f 338//141 248//47 339//143
f 336//142 246//52 337//137
f 335//149 250//54 245//53
f 344//56 341//150 249//46
f 340//140 248//47 343//44
f 338//141 246//52 247//58
f 336//142 245//53 342//50
f 143//44 55//57 56//45
f 142//47 47//58 53//48
f 141//50 51//59 52//51
f 142//47 54//49 55//57
f 47//58 46//52 52//51
f 141//50 45//53 50//55
f 51//59 58//65 59//60
f 54//49 61//66 62//63
f 53//48 52//51 59//60
f 50//55 57//61 58//65
f 55//57 62//63 63//62
f 53//48 60//64 61//66
f 61//66 68//71 69//68
f 59//60 66//72 67//69
f 57//61 64//73 65//70
f 62//63 69//68 70//67
f 60//64 67//69 68//71
f 58//65 65//70 66//72
f 64//73 71//79 72//74
f 70//67 69//68 76//75
f 67//69 74//80 75//77
f 65//70 72//74 73//78
f 68//71 75//77 76//75
f 66//72 73//78 74//80
f 76//75 83//85 84//81
f 74//80 81//86 82//82
f 72//74 79//87 80//83
f 75//77 82//82 83//85
f 74//80 73//78 80//83
f 71//79 78//84 79//87
f 83//85 82//82 89//90
f 80//83 87//94 88//92
f 78//84 85//88 86//93
f 83//85 90//91 91//89
f 81//86 88//92 89//90
f 79//87 86//93 87//94
f 90//91 89//90 96//95
f 87//94 94//100 95//97
f 85//88 92//101 93//98
f 90//91 97//96 98//99
f 88//92 95//97 96//95
f 86//93 93//98 94//100
f 97//96 104//106 105//102
f 95//97 102//107 103//103
f 93//98 100//108 101//104
f 97//96 96//95 103//103
f 94//100 101//104 102//107
f 92//101 99//105 100//108
f 102//107 109//114 110//109
f 100//108 107//115 108//110
f 103//103 110//109 111//113
f 102//107 101//104 108//110
f 100//108 99//105 106//111
f 104//106 111//113 112//112
f 111//113 110//109 117//117
f 109//114 108//110 115//119
f 107//115 106//111 113//121
f 111//113 118//118 119//116
f 109//114 116//120 117//117
f 107//115 114//122 115//119
f 115//119 122//128 123//123
f 114//122 113//121 120//124
f 118//118 125//129 126//126
f 116//120 123//123 124//127
f 114//122 121//125 122//128
f 118//118 117//117 124//127
f 125//129 132//134 133//130
f 123//123 130//135 131//131
f 121//125 128//136 129//132
f 125//129 124//127 131//131
f 122//128 129//132 130//135
f 120//124 127//133 128//136
f 128//136 135//142 136//137
f 131//131 138//143 139//140
f 129//132 136//137 137//141
f 127//133 134//138 135//142
f 133//130 132//134 139//140
f 130//135 137//141 138//143
f 139//140 138//143 142//47
f 136//137 46//52 47//58
f 135//142 134//138 45//53
f 139//140 143//44 48//46
f 138//143 137//141 47//58
f 135//142 141//50 46//52
f 241//50 151//59 152//51
f 242//47 154//49 155//57
f 146//52 152//51 153//48
f 241//50 145//53 150//144
f 243//44 155//57 156//145
f 242//47 147//58 153//48
f 155//57 154//49 161//66
f 152//51 159//60 160//64
f 150//144 157//61 158//65
f 156//145 155//57 162//63
f 153//48 160//64 161//66
f 152//51 151//59 158//65
f 162//63 169//68 170//67
f 160//64 167//69 168//71
f 158//65 165//70 166//72
f 161//66 168//71 169//68
f 159//60 166//72 167//69
f 158//65 157//61 164//73
f 167//69 174//80 175//77
f 166//72 165//70 172//74
f 168//71 175//77 176//75
f 166//72 173//78 174//80
f 164//73 171//79 172//74
f 169//68 176//75 177//76
f 175//77 182//82 183//85
f 174//80 173//78 180//83
f 171//79 178//84 179//87
f 176//75 183//85 184//81
f 174//80 181//86 182//82
f 172//74 179//87 180//83
f 181//86 180//83 187//94
f 178//84 185//88 186//93
f 183//85 190//91 191//146
f 181//86 188//92 189//90
f 180//83 179//87 186//93
f 183//85 182//82 189//90
f 190//91 197//96 198//99
f 188//92 195//97 196//95
f 186//93 193//98 194//100
f 189//90 196//95 197//96
f 187//94 194//100 195//97
f 185//88 192//101 193//98
f 193//98 200//108 201//104
f 196//95 203//103 204//106
f 194//100 201//104 202//107
f 192//101 199//147 200//108
f 197//96 204//106 205//148
f 195//97 202//107 203//103
f 203//103 210//109 211//113
f 202//107 201//104 208//110
f 200//108 199//147 206//111
f 204//106 211//113 212//112
f 202//107 209//114 210//109
f 200//108 207//115 208//110
f 206//111 213//121 214//122
f 211//113 218//118 219//116
f 209//114 216//120 217//117
f 207//115 214//122 215//119
f 210//109 217//117 218//118
f 208//110 215//119 216//120
f 219//116 218//118 225//129
f 216//120 223//123 224//127
f 214//122 221//125 222//128
f 218//118 217//117 224//127
f 215//119 222//128 223//123
f 213//121 220//124 221//125
f 224//127 231//131 232//134
f 222//128 229//132 230//135
f 220//124 227//133 228//136
f 225//129 232//134 233//130
f 224//127 223//123 230//135
f 221//125 228//136 229//132
f 232//134 231//131 238//143
f 230//135 229//132 236//137
f 228//136 227//133 234//149
f 232//134 239//140 240//150
f 230//135 237//141 238//143
f 228//136 235//142 236//137
f 239//140 243//44 148//46
f 238//143 237//141 147//58
f 235//142 241//50 146//52
f 239//140 238//143 242//47
f 237//141 236//137 146//52
f 235//142 234//149 145//53
f 342//50 252//59 253//51
f 343//44 248//47 255//49
f 246//52 253//51 254//48
f 342//50 245//53 251//144
f 343//44 256//57 257//145
f 247//58 254//48 255//49
f 255//49 262//66 263//63
f 253//51 260//60 261//64
f 252//59 251//144 258//61
f 256//57 263//63 264//62
f 255//49 254//48 261//64
f 252//59 259//65 260//60
f 263//63 270//68 271//67
f 262//66 261//64 268//69
f 260//60 259//65 266//70
f 262//66 269//71 270//68
f 260//60 267//72 268//69
f 258//61 265//73 266//70
f 268//69 275//80 276//77
f 266//70 273//74 274//78
f 270//68 269//71 276//77
f 267//72 274//78 275//80
f 265//73 272//79 273//74
f 270//68 277//75 278//76
f 276//77 283//82 284//85
f 275//80 274//78 281//83
f 272//79 279//84 280//87
f 277//75 284//85 285//81
f 275//80 282//86 283//82
f 273//74 280//87 281//83
f 281//83 288//94 289//92
f 279//84 286//151 287//93
f 285//81 284//85 291//91
f 282//86 289//92 290//90
f 280//87 287//93 288//94
f 283//82 290//90 291//91
f 292//146 291//91 298//96
f 289//92 296//97 297//95
f 287//93 294//98 295//100
f 291//91 290//90 297//95
f 288//94 295//100 296//97
f 286//151 293//101 294//98
f 294//98 301//108 302//104
f 298//96 297//95 304//103
f 296//97 295//100 302//104
f 294//98 293//101 300//105
f 298//96 305//106 306//148
f 296//97 303//107 304//103
f 304//103 311//109 312//113
f 303//107 302//104 309//110
f 300//105 307//111 308//115
f 305//106 312//113 313//112
f 303//107 310//114 311//109
f 302//104 301//108 308//115
f 307//111 314//121 315//122
f 312//113 319//118 320//116
f 310//114 317//120 318//117
f 308//115 315//122 316//119
f 312//113 311//109 318//117
f 309//110 316//119 317//120
f 319//118 326//129 327//126
f 317//120 324//123 325//127
f 315//122 322//125 323//128
f 319//118 318//117 325//127
f 316//119 323//128 324//123
f 314//121 321//124 322//125
f 326//129 325//127 332//131
f 323//128 330//132 331//135
f 321//124 328//133 329//136
f 326//129 333//134 334//130
f 324//123 331//135 332//131
f 322//125 329//136 330//132
f 333//134 332//131 339//143
f 330//132 337//137 338//141
f 328//133 335//149 336//142
f 334//130 333//134 340//140
f 331//135 338//141 339//143
f 329//136 336//142 337//137
f 340//140 343//44 249//46
f 338//141 247//58 248//47
f 336//142 342//50 246//52
f 340//140 339//143 248//47
f 338//141 337//137 246//52
f 336//142 335//149 245//53
