# Blender 4.0.2
# www.blender.org
mtllib prop_flag.mtl
o Flag
v -0.189033 0.000000 -0.032000
v -0.189033 1.700000 -0.032000
v -0.166406 0.000000 -0.022627
v -0.166406 1.700000 -0.022627
v -0.157033 0.000000 0.000000
v -0.157033 1.700000 0.000000
v -0.166406 0.000000 0.022627
v -0.166406 1.700000 0.022627
v -0.189033 0.000000 0.032000
v -0.189033 1.700000 0.032000
v -0.211660 0.000000 0.022627
v -0.211660 1.700000 0.022627
v -0.221033 0.000000 0.000000
v -0.221033 1.700000 0.000000
v -0.211660 0.000000 -0.022627
v -0.211660 1.700000 -0.022627
v -0.038499 1.395000 0.012786
v -0.038499 1.565000 0.012786
v -0.039099 1.395000 0.002804
v -0.039099 1.565000 0.002804
v 0.221033 1.395000 -0.002804
v 0.221033 1.565000 -0.002804
v 0.220433 1.395000 -0.012786
v 0.220433 1.565000 -0.012786
vn -0.0000 0.6303 -0.7764
vn 0.5490 -0.6303 -0.5490
vn -0.0000 -0.6303 -0.7764
vn 0.5490 0.6303 -0.5490
vn 0.7764 -0.6303 -0.0000
vn 0.7764 0.6303 -0.0000
vn 0.5490 -0.6303 0.5490
vn 0.5490 0.6303 0.5490
vn -0.0000 -0.6303 0.7764
vn -0.0000 0.6303 0.7764
vn -0.5490 -0.6303 0.5490
vn -0.5490 0.6303 0.5490
vn -0.7764 -0.6303 -0.0000
vn -0.7764 0.6303 -0.0000
vn -0.5490 -0.6303 -0.5490
vn -0.5490 0.6303 -0.5490
vn -0.9982 -0.0000 0.0600
vn -0.0600 -0.0000 -0.9982
vn 0.9982 -0.0000 -0.0600
vn 0.0600 -0.0000 0.9982
vn -0.0000 -1.0000 -0.0000
vn -0.0000 1.0000 -0.0000
s 1
usemtl Pole
f 2//1 3//2 1//3
f 4//4 5//5 3//2
f 6//6 7//7 5//5
f 8//8 9//9 7//7
f 10//10 11//11 9//9
f 12//12 13//13 11//11
f 14//14 10//10 6//6
f 14//14 15//15 13//13
f 16//16 1//3 15//15
f 7//7 11//11 15//15
f 2//1 4//4 3//2
f 4//4 6//6 5//5
f 6//6 8//8 7//7
f 8//8 10//10 9//9
f 10//10 12//12 11//11
f 12//12 14//14 13//13
f 6//6 4//4 2//1
f 2//1 16//16 14//14
f 14//14 12//12 10//10
f 10//10 8//8 6//6
f 6//6 2//1 14//14
f 14//14 16//16 15//15
f 16//16 2//1 1//3
f 15//15 1//3 3//2
f 3//2 5//5 7//7
f 7//7 9//9 11//11
f 11//11 13//13 15//15
f 15//15 3//2 7//7
s 0
usemtl Cloth
f 18//17 19//17 17//17
f 20//18 23//18 19//18
f 24//19 21//19 23//19
f 22//20 17//20 21//20
f 23//21 17//21 19//21
f 24//22 18//22 22//22
f 18//17 20//17 19//17
f 20//18 24//18 23//18
f 24//19 22//19 21//19
f 22//20 18//20 17//20
f 23//21 21//21 17//21
f 24//22 20//22 18//22
