# Blender 4.0.2
# www.blender.org
mtllib prop_bale.mtl
o Bale
v -0.475000 0.443164 -0.429691
v -0.455000 0.443164 -0.450000
v -0.469142 0.443164 -0.444052
v 0.475000 0.443163 -0.429691
v 0.455000 0.443163 -0.450000
v 0.469142 0.443163 -0.444052
v -0.475000 0.296200 -0.403778
v -0.455000 0.289254 -0.422862
v -0.469142 0.291289 -0.417272
v 0.475000 0.296200 -0.403778
v 0.455000 0.289254 -0.422862
v 0.469142 0.291289 -0.417272
v -0.475000 0.166963 -0.329163
v -0.455000 0.153909 -0.344720
v -0.469142 0.157733 -0.340163
v 0.475000 0.166963 -0.329163
v 0.455000 0.153909 -0.344720
v 0.469142 0.157732 -0.340163
v -0.475000 0.071040 -0.214846
v -0.455000 0.053452 -0.225000
v -0.469142 0.058603 -0.222026
v 0.475000 0.071040 -0.214846
v 0.455000 0.053452 -0.225000
v 0.469142 0.058603 -0.222026
v -0.475000 0.020000 -0.074615
v -0.455000 0.000000 -0.078142
v -0.469142 0.005858 -0.077109
v 0.475000 0.020000 -0.074615
v 0.455000 0.000000 -0.078142
v 0.469142 0.005858 -0.077109
v -0.475000 0.020000 0.074615
v -0.455000 0.000000 0.078142
v -0.469142 0.005858 0.077109
v 0.475000 0.020000 0.074615
v 0.455000 0.000000 0.078142
v 0.469142 0.005858 0.077109
v -0.475000 0.071040 0.214846
v -0.455000 0.053452 0.225000
v -0.469142 0.058603 0.222026
v 0.475000 0.071040 0.214846
v 0.455000 0.053452 0.225000
v 0.469142 0.058603 0.222026
v -0.475000 0.166963 0.329163
v -0.455000 0.153909 0.344720
v -0.469142 0.157733 0.340163
v 0.475000 0.166963 0.329163
v 0.455000 0.153909 0.344720
v 0.469142 0.157732 0.340163
v -0.475000 0.296200 0.403778
v -0.455000 0.289254 0.422862
v -0.469142 0.291289 0.417272
v 0.475000 0.296200 0.403778
v 0.455000 0.289254 0.422862
v 0.469142 0.291289 0.417272
v -0.475000 0.443164 0.429691
v -0.455000 0.443164 0.450000
v -0.469142 0.443164 0.444052
v 0.475000 0.443163 0.429691
v 0.455000 0.443163 0.450000
v 0.469142 0.443163 0.444052
v -0.475000 0.590127 0.403778
v -0.455000 0.597073 0.422862
v -0.469142 0.595038 0.417272
v 0.475000 0.590127 0.403778
v 0.455000 0.597072 0.422862
v 0.469142 0.595038 0.417272
v -0.475000 0.719364 0.329163
v -0.455000 0.732418 0.344720
v -0.469142 0.728594 0.340163
v 0.475000 0.719364 0.329163
v 0.455000 0.732418 0.344720
v 0.469142 0.728594 0.340163
v -0.475000 0.815287 0.214846
v -0.455000 0.832875 0.225000
v -0.469142 0.827724 0.222026
v 0.475000 0.815287 0.214846
v 0.455000 0.832875 0.225000
v 0.469142 0.827724 0.222026
v -0.475000 0.866327 0.074615
v -0.455000 0.886327 0.078142
v -0.469142 0.880469 0.077109
v 0.475000 0.866327 0.074615
v 0.455000 0.886327 0.078142
v 0.469142 0.880469 0.077109
v -0.475000 0.866327 -0.074615
v -0.455000 0.886327 -0.078142
v -0.469142 0.880469 -0.077109
v 0.475000 0.866327 -0.074615
v 0.455000 0.886327 -0.078142
v 0.469142 0.880469 -0.077109
v -0.475000 0.815287 -0.214846
v -0.455000 0.832875 -0.225000
v -0.469142 0.827724 -0.222026
v 0.475000 0.815287 -0.214846
v 0.455000 0.832875 -0.225000
v 0.469142 0.827724 -0.222026
v -0.475000 0.719364 -0.329163
v -0.455000 0.732418 -0.344720
v -0.469142 0.728594 -0.340163
v 0.475000 0.719364 -0.329163
v 0.455000 0.732418 -0.344720
v 0.469142 0.728594 -0.340163
v -0.475000 0.590127 -0.403778
v -0.455000 0.597073 -0.422862
v -0.469142 0.595038 -0.417272
v 0.475000 0.590127 -0.403778
v 0.455000 0.597072 -0.422862
v 0.469142 0.595038 -0.417272
vn 0.1936 0.3355 -0.9219
vn -0.1936 -0.0000 -0.9811
vn -0.1936 0.3355 -0.9219
vn 0.1936 -0.6306 -0.7515
vn -0.1936 -0.8496 -0.4905
vn -0.1936 -0.6306 -0.7515
vn 0.1936 -0.8496 -0.4905
vn -0.1936 -0.9662 -0.1704
vn 0.1936 -0.9662 -0.1704
vn -0.1936 -0.9662 0.1704
vn 0.1936 -0.9662 0.1704
vn -0.1936 -0.8496 0.4905
vn 0.1936 -0.8496 0.4905
vn -0.1936 -0.6306 0.7515
vn 0.1936 -0.6306 0.7515
vn -0.1936 -0.3355 0.9219
vn 0.1936 -0.3355 0.9219
vn -0.1936 -0.0000 0.9811
vn 0.1936 -0.0000 0.9811
vn -0.1936 0.3355 0.9219
vn 0.1936 0.3355 0.9219
vn -0.1936 0.6306 0.7515
vn 0.1936 0.6306 0.7515
vn -0.1936 0.8496 0.4905
vn 0.1936 0.8496 0.4905
vn -0.1936 0.9662 0.1704
vn 0.1936 0.9662 0.1704
vn -0.1936 0.9662 -0.1704
vn 0.1936 0.9662 -0.1704
vn -0.1936 0.8496 -0.4905
vn 0.1936 0.8496 -0.4905
vn -0.1936 0.6306 -0.7515
vn 0.1936 0.6306 -0.7515
vn 0.1936 -0.3355 -0.9219
vn -0.1936 -0.3355 -0.9219
vn 0.9771 0.1368 -0.1631
vn 0.9771 -0.0728 0.2000
vn 0.9771 -0.2096 -0.0370
vn 0.1936 -0.0000 -0.9811
vn -0.6903 -0.2474 -0.6799
vn -0.6903 -0.0000 -0.7235
vn -0.9771 -0.0728 -0.2000
vn -0.9771 -0.0000 -0.2129
vn 0.6903 -0.0000 -0.7235
vn 0.6903 -0.2475 -0.6799
vn 0.9771 -0.0728 -0.2000
vn -0.6903 -0.4651 -0.5542
vn 0.6903 -0.4651 -0.5542
vn 0.9771 -0.1368 -0.1631
vn -0.6903 -0.6266 -0.3617
vn -0.9771 -0.1368 -0.1631
vn 0.6903 -0.6266 -0.3617
vn 0.9771 -0.1843 -0.1064
vn -0.6903 -0.7125 -0.1256
vn -0.9771 -0.2096 -0.0370
vn -0.9771 -0.1843 -0.1064
vn 0.6903 -0.7125 -0.1256
vn -0.6903 -0.7125 0.1256
vn 0.6903 -0.7125 0.1256
vn 0.9771 -0.2096 0.0370
vn -0.6903 -0.6266 0.3617
vn -0.9771 -0.2096 0.0370
vn 0.6903 -0.6266 0.3617
vn 0.9771 -0.1843 0.1064
vn -0.6903 -0.4651 0.5542
vn -0.9771 -0.1368 0.1631
vn -0.9771 -0.1843 0.1064
vn 0.6903 -0.4651 0.5542
vn 0.9771 -0.1368 0.1631
vn -0.9771 -0.0728 0.2000
vn 0.6903 -0.2474 0.6799
vn -0.6903 -0.2474 0.6799
vn -0.6903 -0.0000 0.7235
vn 0.6903 -0.0000 0.7235
vn 0.9771 -0.0000 0.2129
vn -0.9771 0.0728 0.2000
vn -0.9771 -0.0000 0.2129
vn 0.6903 0.2475 0.6799
vn 0.9771 0.0728 0.2000
vn -0.6903 0.4651 0.5542
vn -0.6903 0.2475 0.6799
vn -0.9771 0.1368 0.1631
vn 0.6903 0.4651 0.5542
vn 0.9771 0.1368 0.1631
vn -0.6903 0.6266 0.3617
vn 0.6903 0.6266 0.3617
vn 0.9771 0.1843 0.1064
vn -0.6903 0.7125 0.1256
vn -0.9771 0.1843 0.1064
vn 0.6903 0.7125 0.1256
vn 0.9771 0.2096 0.0370
vn -0.6903 0.7125 -0.1256
vn -0.9771 0.2096 0.0370
vn 0.6903 0.7125 -0.1256
vn 0.9771 0.2096 -0.0370
vn -0.6903 0.6266 -0.3617
vn -0.9771 0.1843 -0.1064
vn -0.9771 0.2096 -0.0370
vn 0.6903 0.6266 -0.3617
vn 0.9771 0.1843 -0.1064
vn -0.6903 0.4651 -0.5542
vn 0.6903 0.4651 -0.5542
vn -0.9771 0.0728 -0.2000
vn -0.9771 0.1368 -0.1631
vn 0.6903 0.2475 -0.6799
vn 0.9771 0.0728 -0.2000
vn -0.6903 0.2475 -0.6799
vn 0.9771 -0.0000 -0.2129
s 1
usemtl Hay
f 107//1 2//2 104//3
f 17//4 20//5 14//6
f 23//7 26//8 20//5
f 29//9 32//10 26//8
f 35//11 38//12 32//10
f 41//13 44//14 38//12
f 47//15 50//16 44//14
f 53//17 56//18 50//16
f 59//19 62//20 56//18
f 65//21 68//22 62//20
f 71//23 74//24 68//22
f 77//25 80//26 74//24
f 83//27 86//28 80//26
f 89//29 92//30 86//28
f 95//31 98//32 92//30
f 101//33 104//3 98//32
f 11//34 14//6 8//35
f 100//36 52//37 28//38
f 5//39 8//35 2//2
f 2//2 9//40 3//41
f 3//41 7//42 1//43
f 11//34 6//44 12//45
f 6//44 10//46 12//45
f 8//35 15//47 9//40
f 15//47 7//42 9//40
f 11//34 18//48 17//4
f 18//48 10//46 16//49
f 20//5 15//47 14//6
f 21//50 13//51 15//47
f 23//7 18//48 24//52
f 18//48 22//53 24//52
f 20//5 27//54 21//50
f 21//50 25//55 19//56
f 29//9 24//52 30//57
f 30//57 22//53 28//38
f 32//10 27//54 26//8
f 33//58 25//55 27//54
f 29//9 36//59 35//11
f 30//57 34//60 36//59
f 32//10 39//61 33//58
f 39//61 31//62 33//58
f 41//13 36//59 42//63
f 42//63 34//60 40//64
f 38//12 45//65 39//61
f 39//61 43//66 37//67
f 41//13 48//68 47//15
f 42//63 46//69 48//68
f 50//16 45//65 44//14
f 45//65 49//70 43//66
f 47//15 54//71 53//17
f 48//68 52//37 54//71
f 56//18 51//72 50//16
f 57//73 49//70 51//72
f 59//19 54//71 60//74
f 60//74 52//37 58//75
f 62//20 57//73 56//18
f 57//73 61//76 55//77
f 59//19 66//78 65//21
f 60//74 64//79 66//78
f 62//20 69//80 63//81
f 63//81 67//82 61//76
f 65//21 72//83 71//23
f 66//78 70//84 72//83
f 68//22 75//85 69//80
f 75//85 67//82 69//80
f 77//25 72//83 78//86
f 72//83 76//87 78//86
f 80//26 75//85 74//24
f 81//88 73//89 75//85
f 83//27 78//86 84//90
f 84//90 76//87 82//91
f 86//28 81//88 80//26
f 87//92 79//93 81//88
f 83//27 90//94 89//29
f 90//94 82//91 88//95
f 86//28 93//96 87//92
f 87//92 91//97 85//98
f 89//29 96//99 95//31
f 90//94 94//100 96//99
f 92//30 99//101 93//96
f 99//101 91//97 93//96
f 95//31 102//102 101//33
f 102//102 94//100 100//36
f 104//3 99//101 98//32
f 99//101 103//103 97//104
f 101//33 108//105 107//1
f 108//105 100//36 106//106
f 104//3 3//41 105//107
f 3//41 103//103 105//107
f 107//1 6//44 5//39
f 6//44 106//106 4//108
f 19//56 67//82 91//97
f 107//1 5//39 2//2
f 17//4 23//7 20//5
f 23//7 29//9 26//8
f 29//9 35//11 32//10
f 35//11 41//13 38//12
f 41//13 47//15 44//14
f 47//15 53//17 50//16
f 53//17 59//19 56//18
f 59//19 65//21 62//20
f 65//21 71//23 68//22
f 71//23 77//25 74//24
f 77//25 83//27 80//26
f 83//27 89//29 86//28
f 89//29 95//31 92//30
f 95//31 101//33 98//32
f 101//33 107//1 104//3
f 11//34 17//4 14//6
f 16//49 10//46 4//108
f 4//108 106//106 100//36
f 100//36 94//100 88//95
f 88//95 82//91 76//87
f 76//87 70//84 64//79
f 64//79 58//75 52//37
f 52//37 46//69 40//64
f 40//64 34//60 28//38
f 28//38 22//53 16//49
f 16//49 4//108 100//36
f 100//36 88//95 76//87
f 76//87 64//79 52//37
f 52//37 40//64 28//38
f 28//38 16//49 100//36
f 100//36 76//87 52//37
f 5//39 11//34 8//35
f 2//2 8//35 9//40
f 3//41 9//40 7//42
f 11//34 5//39 6//44
f 6//44 4//108 10//46
f 8//35 14//6 15//47
f 15//47 13//51 7//42
f 11//34 12//45 18//48
f 18//48 12//45 10//46
f 20//5 21//50 15//47
f 21//50 19//56 13//51
f 23//7 17//4 18//48
f 18//48 16//49 22//53
f 20//5 26//8 27//54
f 21//50 27//54 25//55
f 29//9 23//7 24//52
f 30//57 24//52 22//53
f 32//10 33//58 27//54
f 33//58 31//62 25//55
f 29//9 30//57 36//59
f 30//57 28//38 34//60
f 32//10 38//12 39//61
f 39//61 37//67 31//62
f 41//13 35//11 36//59
f 42//63 36//59 34//60
f 38//12 44//14 45//65
f 39//61 45//65 43//66
f 41//13 42//63 48//68
f 42//63 40//64 46//69
f 50//16 51//72 45//65
f 45//65 51//72 49//70
f 47//15 48//68 54//71
f 48//68 46//69 52//37
f 56//18 57//73 51//72
f 57//73 55//77 49//70
f 59//19 53//17 54//71
f 60//74 54//71 52//37
f 62//20 63//81 57//73
f 57//73 63//81 61//76
f 59//19 60//74 66//78
f 60//74 58//75 64//79
f 62//20 68//22 69//80
f 63//81 69//80 67//82
f 65//21 66//78 72//83
f 66//78 64//79 70//84
f 68//22 74//24 75//85
f 75//85 73//89 67//82
f 77//25 71//23 72//83
f 72//83 70//84 76//87
f 80//26 81//88 75//85
f 81//88 79//93 73//89
f 83//27 77//25 78//86
f 84//90 78//86 76//87
f 86//28 87//92 81//88
f 87//92 85//98 79//93
f 83//27 84//90 90//94
f 90//94 84//90 82//91
f 86//28 92//30 93//96
f 87//92 93//96 91//97
f 89//29 90//94 96//99
f 90//94 88//95 94//100
f 92//30 98//32 99//101
f 99//101 97//104 91//97
f 95//31 96//99 102//102
f 102//102 96//99 94//100
f 104//3 105//107 99//101
f 99//101 105//107 103//103
f 101//33 102//102 108//105
f 108//105 102//102 100//36
f 104//3 2//2 3//41
f 3//41 1//43 103//103
f 107//1 108//105 6//44
f 6//44 108//105 106//106
f 103//103 1//43 7//42
f 7//42 13//51 19//56
f 19//56 25//55 31//62
f 31//62 37//67 43//66
f 43//66 49//70 55//77
f 55//77 61//76 67//82
f 67//82 73//89 79//93
f 79//93 85//98 91//97
f 91//97 97//104 103//103
f 103//103 7//42 19//56
f 19//56 31//62 43//66
f 43//66 55//77 67//82
f 67//82 79//93 91//97
f 91//97 103//103 19//56
f 19//56 43//66 67//82
