# Blender 4.0.2
# www.blender.org
mtllib rider.mtl
o RiderBody
v -0.086457 0.587083 0.085000
v -0.014449 0.784351 0.085000
v -0.086457 0.587083 -0.085000
v -0.014449 0.784351 -0.085000
v 0.054449 0.535649 0.085000
v 0.126457 0.732917 0.085000
v 0.054449 0.535649 -0.085000
v 0.126457 0.732917 -0.085000
v -0.205000 0.390000 0.080000
v -0.205000 0.490000 0.080000
v -0.205000 0.390000 -0.080000
v -0.205000 0.490000 -0.080000
v -0.075000 0.390000 0.080000
v -0.075000 0.490000 0.080000
v -0.075000 0.390000 -0.080000
v -0.075000 0.490000 -0.080000
v -0.216136 0.230437 -0.225000
v 0.096136 0.409563 -0.225000
v -0.189748 0.184435 -0.203033
v 0.122524 0.363561 -0.203033
v -0.178818 0.165380 -0.150000
v 0.133454 0.344506 -0.150000
v -0.189748 0.184435 -0.096967
v 0.122524 0.363561 -0.096967
v -0.216136 0.230437 -0.075000
v 0.096136 0.409563 -0.075000
v -0.242524 0.276439 -0.096967
v 0.069748 0.455565 -0.096967
v -0.253454 0.295494 -0.150000
v 0.058818 0.474620 -0.150000
v -0.242524 0.276439 -0.203033
v 0.069748 0.455565 -0.203033
v -0.077941 -0.104715 -0.210000
v -0.162059 0.224715 -0.210000
v -0.036834 -0.094219 -0.192426
v -0.120951 0.235212 -0.192426
v -0.019807 -0.089871 -0.150000
v -0.103924 0.239559 -0.150000
v -0.036834 -0.094219 -0.107574
v -0.120951 0.235212 -0.107574
v -0.077941 -0.104715 -0.090000
v -0.162059 0.224715 -0.090000
v -0.119049 -0.115212 -0.107574
v -0.203166 0.214219 -0.107574
v -0.136076 -0.119559 -0.150000
v -0.220193 0.209871 -0.150000
v -0.119049 -0.115212 -0.192426
v -0.203166 0.214219 -0.192426
v -0.115000 -0.107500 -0.122500
v -0.115000 -0.052500 -0.122500
v -0.115000 -0.107500 -0.177500
v -0.115000 -0.052500 -0.177500
v -0.005000 -0.107500 -0.122500
v -0.005000 -0.052500 -0.122500
v -0.005000 -0.107500 -0.177500
v -0.005000 -0.052500 -0.177500
v 0.048162 0.729548 -0.212500
v 0.351838 0.830452 -0.212500
v 0.060426 0.692642 -0.196391
v 0.364101 0.793545 -0.196391
v 0.065505 0.677354 -0.157500
v 0.369180 0.778257 -0.157500
v 0.060426 0.692642 -0.118609
v 0.364101 0.793545 -0.118609
v 0.048162 0.729548 -0.102500
v 0.351838 0.830452 -0.102500
v 0.035899 0.766455 -0.118609
v 0.339574 0.867358 -0.118609
v 0.030820 0.781743 -0.157500
v 0.334495 0.882646 -0.157500
v 0.035899 0.766455 -0.196391
v 0.339574 0.867358 -0.196391
v 0.270376 0.729389 -0.217500
v 0.569624 0.750611 -0.217500
v 0.272627 0.697649 -0.204320
v 0.571875 0.718871 -0.204320
v 0.273559 0.684502 -0.172500
v 0.572807 0.705723 -0.172500
v 0.272627 0.697649 -0.140680
v 0.571875 0.718871 -0.140680
v 0.270376 0.729389 -0.127500
v 0.569624 0.750611 -0.127500
v 0.268125 0.761129 -0.140680
v 0.567373 0.782351 -0.140680
v 0.267193 0.774277 -0.172500
v 0.566441 0.795498 -0.172500
v 0.268125 0.761129 -0.204320
v 0.567373 0.782351 -0.204320
v 0.576164 0.747631 -0.202248
v 0.587997 0.727500 -0.218535
v 0.592328 0.700000 -0.224496
v 0.587997 0.672500 -0.218535
v 0.576164 0.652369 -0.202248
v 0.586154 0.747631 -0.188498
v 0.605300 0.727500 -0.194719
v 0.612308 0.700000 -0.196996
v 0.605300 0.672500 -0.194719
v 0.586154 0.652369 -0.188498
v 0.586154 0.747631 -0.171502
v 0.605300 0.727500 -0.165281
v 0.612308 0.700000 -0.163004
v 0.605300 0.672500 -0.165281
v 0.586154 0.652369 -0.171502
v 0.576164 0.747631 -0.157752
v 0.587997 0.727500 -0.141465
v 0.592328 0.700000 -0.135504
v 0.587997 0.672500 -0.141465
v 0.576164 0.652369 -0.157752
v 0.560000 0.747631 -0.152500
v 0.560000 0.727500 -0.132369
v 0.560000 0.700000 -0.125000
v 0.560000 0.672500 -0.132369
v 0.560000 0.652369 -0.152500
v 0.543836 0.747631 -0.157752
v 0.532003 0.727500 -0.141465
v 0.527672 0.700000 -0.135504
v 0.532003 0.672500 -0.141465
v 0.543836 0.652369 -0.157752
v 0.560000 0.755000 -0.180000
v 0.533846 0.747631 -0.171502
v 0.514700 0.727500 -0.165281
v 0.507692 0.700000 -0.163004
v 0.514700 0.672500 -0.165281
v 0.533846 0.652369 -0.171502
v 0.560000 0.645000 -0.180000
v 0.533846 0.747631 -0.188498
v 0.514700 0.727500 -0.194719
v 0.507692 0.700000 -0.196996
v 0.514700 0.672500 -0.194719
v 0.533846 0.652369 -0.188498
v 0.543836 0.747631 -0.202248
v 0.532003 0.727500 -0.218535
v 0.527672 0.700000 -0.224496
v 0.532003 0.672500 -0.218535
v 0.543836 0.652369 -0.202248
v 0.560000 0.747631 -0.207500
v 0.560000 0.727500 -0.227631
v 0.560000 0.700000 -0.235000
v 0.560000 0.672500 -0.227631
v 0.560000 0.652369 -0.207500
v -0.216136 0.230437 0.075000
v 0.096136 0.409563 0.075000
v -0.189748 0.184435 0.096967
v 0.122524 0.363561 0.096967
v -0.178818 0.165380 0.150000
v 0.133454 0.344506 0.150000
v -0.189748 0.184435 0.203033
v 0.122524 0.363561 0.203033
v -0.216136 0.230437 0.225000
v 0.096136 0.409563 0.225000
v -0.242524 0.276439 0.203033
v 0.069748 0.455565 0.203033
v -0.253454 0.295494 0.150000
v 0.058818 0.474620 0.150000
v -0.242524 0.276439 0.096967
v 0.069748 0.455565 0.096967
v -0.077941 -0.104715 0.090000
v -0.162059 0.224715 0.090000
v -0.036834 -0.094219 0.107574
v -0.120951 0.235212 0.107574
v -0.019807 -0.089871 0.150000
v -0.103924 0.239559 0.150000
v -0.036834 -0.094219 0.192426
v -0.120951 0.235212 0.192426
v -0.077941 -0.104715 0.210000
v -0.162059 0.224715 0.210000
v -0.119049 -0.115212 0.192426
v -0.203166 0.214219 0.192426
v -0.136076 -0.119559 0.150000
v -0.220193 0.209871 0.150000
v -0.119049 -0.115212 0.107574
v -0.203166 0.214219 0.107574
v -0.115000 -0.107500 0.177500
v -0.115000 -0.052500 0.177500
v -0.115000 -0.107500 0.122500
v -0.115000 -0.052500 0.122500
v -0.005000 -0.107500 0.177500
v -0.005000 -0.052500 0.177500
v -0.005000 -0.107500 0.122500
v -0.005000 -0.052500 0.122500
v 0.048162 0.729548 0.102500
v 0.351838 0.830452 0.102500
v 0.060426 0.692642 0.118609
v 0.364101 0.793545 0.118609
v 0.065505 0.677354 0.157500
v 0.369180 0.778257 0.157500
v 0.060426 0.692642 0.196391
v 0.364101 0.793545 0.196391
v 0.048162 0.729548 0.212500
v 0.351838 0.830452 0.212500
v 0.035899 0.766455 0.196391
v 0.339574 0.867358 0.196391
v 0.030820 0.781743 0.157500
v 0.334495 0.882646 0.157500
v 0.035899 0.766455 0.118609
v 0.339574 0.867358 0.118609
v 0.270376 0.729389 0.127500
v 0.569624 0.750611 0.127500
v 0.272627 0.697649 0.140680
v 0.571875 0.718871 0.140680
v 0.273559 0.684502 0.172500
v 0.572807 0.705723 0.172500
v 0.272627 0.697649 0.204320
v 0.571875 0.718871 0.204320
v 0.270376 0.729389 0.217500
v 0.569624 0.750611 0.217500
v 0.268125 0.761129 0.204320
v 0.567373 0.782351 0.204320
v 0.267193 0.774277 0.172500
v 0.566441 0.795498 0.172500
v 0.268125 0.761129 0.140680
v 0.567373 0.782351 0.140680
v 0.576164 0.747631 0.157752
v 0.587997 0.727500 0.141465
v 0.592328 0.700000 0.135504
v 0.587997 0.672500 0.141465
v 0.576164 0.652369 0.157752
v 0.586154 0.747631 0.171502
v 0.605300 0.727500 0.165281
v 0.612308 0.700000 0.163004
v 0.605300 0.672500 0.165281
v 0.586154 0.652369 0.171502
v 0.586154 0.747631 0.188498
v 0.605300 0.727500 0.194719
v 0.612308 0.700000 0.196996
v 0.605300 0.672500 0.194719
v 0.586154 0.652369 0.188498
v 0.576164 0.747631 0.202248
v 0.587997 0.727500 0.218535
v 0.592328 0.700000 0.224496
v 0.587997 0.672500 0.218535
v 0.576164 0.652369 0.202248
v 0.560000 0.747631 0.207500
v 0.560000 0.727500 0.227631
v 0.560000 0.700000 0.235000
v 0.560000 0.672500 0.227631
v 0.560000 0.652369 0.207500
v 0.543836 0.747631 0.202248
v 0.532003 0.727500 0.218535
v 0.527672 0.700000 0.224496
v 0.532003 0.672500 0.218535
v 0.543836 0.652369 0.202248
v 0.560000 0.755000 0.180000
v 0.533846 0.747631 0.188498
v 0.514700 0.727500 0.194719
v 0.507692 0.700000 0.196996
v 0.514700 0.672500 0.194719
v 0.533846 0.652369 0.188498
v 0.560000 0.645000 0.180000
v 0.533846 0.747631 0.171502
v 0.514700 0.727500 0.165281
v 0.507692 0.700000 0.163004
v 0.514700 0.672500 0.165281
v 0.533846 0.652369 0.171502
v 0.543836 0.747631 0.157752
v 0.532003 0.727500 0.141465
v 0.527672 0.700000 0.135504
v 0.532003 0.672500 0.141465
v 0.543836 0.652369 0.157752
v 0.560000 0.747631 0.152500
v 0.560000 0.727500 0.132369
v 0.560000 0.700000 0.125000
v 0.560000 0.672500 0.132369
v 0.560000 0.652369 0.152500
v 0.140000 0.850000 -0.060000
v 0.140000 0.950000 -0.060000
v 0.182426 0.850000 -0.042426
v 0.182426 0.950000 -0.042426
v 0.200000 0.850000 0.000000
v 0.200000 0.950000 0.000000
v 0.182426 0.850000 0.042426
v 0.182426 0.950000 0.042426
v 0.140000 0.850000 0.060000
v 0.140000 0.950000 0.060000
v 0.097574 0.850000 0.042426
v 0.097574 0.950000 0.042426
v 0.080000 0.850000 0.000000
v 0.080000 0.950000 0.000000
v 0.097574 0.850000 -0.042426
v 0.097574 0.950000 -0.042426
v 0.204268 1.128393 -0.039201
v 0.217140 1.109217 -0.074566
v 0.227355 1.079351 -0.102631
v 0.233913 1.041717 -0.120650
v 0.236173 1.000000 -0.126859
v 0.233913 0.958283 -0.120650
v 0.227355 0.920649 -0.102631
v 0.217140 0.890783 -0.074566
v 0.204268 0.871607 -0.039201
v 0.216815 1.128393 -0.031957
v 0.241006 1.109217 -0.060786
v 0.260204 1.079351 -0.083665
v 0.272529 1.041717 -0.098354
v 0.276776 1.000000 -0.103416
v 0.272529 0.958283 -0.098354
v 0.260204 0.920649 -0.083665
v 0.241006 0.890783 -0.060786
v 0.216815 0.871607 -0.031957
v 0.226128 1.128393 -0.020859
v 0.258720 1.109217 -0.039676
v 0.284585 1.079351 -0.054609
v 0.301191 1.041717 -0.064196
v 0.306913 1.000000 -0.067500
v 0.301191 0.958283 -0.064196
v 0.284585 0.920649 -0.054609
v 0.258720 0.890783 -0.039676
v 0.226128 0.871607 -0.020859
v 0.231084 1.128393 -0.007244
v 0.268145 1.109217 -0.013779
v 0.297558 1.079351 -0.018965
v 0.316442 1.041717 -0.022295
v 0.322949 1.000000 -0.023443
v 0.316442 0.958283 -0.022295
v 0.297558 0.920649 -0.018965
v 0.268145 0.890783 -0.013779
v 0.231084 0.871607 -0.007244
v 0.231084 1.128393 0.007244
v 0.268145 1.109217 0.013779
v 0.297558 1.079351 0.018965
v 0.316442 1.041717 0.022295
v 0.322949 1.000000 0.023442
v 0.316442 0.958283 0.022295
v 0.297558 0.920649 0.018965
v 0.268145 0.890783 0.013779
v 0.231084 0.871607 0.007244
v 0.226128 1.128393 0.020859
v 0.258720 1.109217 0.039675
v 0.284585 1.079351 0.054609
v 0.301191 1.041717 0.064196
v 0.306913 1.000000 0.067500
v 0.301191 0.958283 0.064196
v 0.284585 0.920649 0.054609
v 0.258720 0.890783 0.039675
v 0.226128 0.871607 0.020859
v 0.216815 1.128393 0.031957
v 0.241006 1.109217 0.060786
v 0.260204 1.079351 0.083665
v 0.272529 1.041717 0.098354
v 0.276776 1.000000 0.103416
v 0.272529 0.958283 0.098354
v 0.260204 0.920649 0.083665
v 0.241006 0.890783 0.060786
v 0.216815 0.871607 0.031957
v 0.204268 1.128393 0.039201
v 0.217140 1.109217 0.074566
v 0.227355 1.079351 0.102631
v 0.233913 1.041717 0.120650
v 0.236173 1.000000 0.126858
v 0.233913 0.958283 0.120650
v 0.227355 0.920649 0.102631
v 0.217140 0.890783 0.074566
v 0.204268 0.871607 0.039201
v 0.190000 1.128393 0.041717
v 0.190000 1.109217 0.079351
v 0.190000 1.079351 0.109217
v 0.190000 1.041717 0.128393
v 0.190000 1.000000 0.135000
v 0.190000 0.958283 0.128393
v 0.190000 0.920649 0.109217
v 0.190000 0.890783 0.079351
v 0.190000 0.871607 0.041717
v 0.175732 1.128393 0.039201
v 0.162860 1.109217 0.074566
v 0.152645 1.079351 0.102631
v 0.146087 1.041717 0.120650
v 0.143827 1.000000 0.126859
v 0.146087 0.958283 0.120650
v 0.152645 0.920649 0.102631
v 0.162860 0.890783 0.074566
v 0.175732 0.871607 0.039201
v 0.190000 0.865000 0.000000
v 0.163185 1.128393 0.031957
v 0.138994 1.109217 0.060786
v 0.119796 1.079351 0.083665
v 0.107471 1.041717 0.098354
v 0.103224 1.000000 0.103416
v 0.107471 0.958283 0.098354
v 0.119796 0.920649 0.083665
v 0.138994 0.890783 0.060786
v 0.163185 0.871607 0.031957
v 0.153872 1.128393 0.020859
v 0.121280 1.109217 0.039676
v 0.095415 1.079351 0.054609
v 0.078809 1.041717 0.064196
v 0.073087 1.000000 0.067500
v 0.078809 0.958283 0.064196
v 0.095415 0.920649 0.054609
v 0.121280 0.890783 0.039676
v 0.153872 0.871607 0.020859
v 0.190000 1.135000 0.000000
v 0.148916 1.128393 0.007244
v 0.111855 1.109217 0.013779
v 0.082442 1.079351 0.018965
v 0.063558 1.041717 0.022295
v 0.057051 1.000000 0.023443
v 0.063558 0.958283 0.022295
v 0.082442 0.920649 0.018965
v 0.111855 0.890783 0.013779
v 0.148916 0.871607 0.007244
v 0.148916 1.128393 -0.007244
v 0.111855 1.109217 -0.013779
v 0.082442 1.079351 -0.018965
v 0.063558 1.041717 -0.022295
v 0.057051 1.000000 -0.023442
v 0.063558 0.958283 -0.022295
v 0.082442 0.920649 -0.018965
v 0.111855 0.890783 -0.013779
v 0.148916 0.871607 -0.007244
v 0.153872 1.128393 -0.020859
v 0.121280 1.109217 -0.039675
v 0.095415 1.079351 -0.054609
v 0.078809 1.041717 -0.064196
v 0.073087 1.000000 -0.067500
v 0.078809 0.958283 -0.064196
v 0.095415 0.920649 -0.054609
v 0.121280 0.890783 -0.039675
v 0.153872 0.871607 -0.020859
v 0.163185 1.128393 -0.031957
v 0.138994 1.109217 -0.060786
v 0.119796 1.079351 -0.083665
v 0.107471 1.041717 -0.098354
v 0.103224 1.000000 -0.103416
v 0.107471 0.958283 -0.098354
v 0.119796 0.920649 -0.083665
v 0.138994 0.890783 -0.060786
v 0.163185 0.871607 -0.031957
v 0.175732 1.128393 -0.039201
v 0.162860 1.109217 -0.074566
v 0.152645 1.079351 -0.102631
v 0.146087 1.041717 -0.120650
v 0.143827 1.000000 -0.126858
v 0.146087 0.958283 -0.120650
v 0.152645 0.920649 -0.102631
v 0.162860 0.890783 -0.074566
v 0.175732 0.871607 -0.039201
v 0.190000 1.128393 -0.041717
v 0.190000 1.109217 -0.079351
v 0.190000 1.079351 -0.109217
v 0.190000 1.041717 -0.128393
v 0.190000 1.000000 -0.135000
v 0.190000 0.958283 -0.128393
v 0.190000 0.920649 -0.109217
v 0.190000 0.890783 -0.079351
v 0.190000 0.871607 -0.041717
v 0.288565 1.039126 0.050000
v 0.284854 1.053660 0.050000
v 0.288565 1.039126 -0.050000
v 0.284854 1.053660 -0.050000
v 0.395146 1.066340 0.050000
v 0.391435 1.080874 0.050000
v 0.395146 1.066340 -0.050000
v 0.391435 1.080874 -0.050000
v 0.265616 0.982346 0.060000
v 0.269609 1.022146 0.060000
v 0.265616 0.982346 -0.060000
v 0.269609 1.022146 -0.060000
v 0.310391 0.977854 0.060000
v 0.314384 1.017654 0.060000
v 0.310391 0.977854 -0.060000
v 0.314384 1.017654 -0.060000
v 0.245831 0.903445 0.040000
v 0.255764 0.952448 0.040000
v 0.245831 0.903445 -0.040000
v 0.255764 0.952448 -0.040000
v 0.324236 0.887552 0.040000
v 0.334169 0.936555 0.040000
v 0.324236 0.887552 -0.040000
v 0.334169 0.936555 -0.040000
vn -0.9394 0.3429 -0.0000
vn -0.0000 -0.0000 -1.0000
vn 0.9394 -0.3429 -0.0000
vn -0.0000 -0.0000 1.0000
vn -0.3429 -0.9394 -0.0000
vn 0.3429 0.9394 -0.0000
vn -1.0000 -0.0000 -0.0000
vn 1.0000 -0.0000 -0.0000
vn -0.0000 -1.0000 -0.0000
vn -0.0000 1.0000 -0.0000
vn 0.1904 -0.3319 -0.9239
vn 0.4597 -0.8014 -0.3827
vn 0.4597 -0.8014 0.3827
vn 0.1904 -0.3319 0.9239
vn -0.1904 0.3319 0.9239
vn -0.4597 0.8014 0.3827
vn 0.8674 0.4976 -0.0000
vn -0.4597 0.8014 -0.3827
vn -0.1904 0.3319 -0.9239
vn -0.8674 -0.4976 -0.0000
vn 0.3708 0.0947 -0.9239
vn 0.8952 0.2286 -0.3827
vn 0.8952 0.2286 0.3827
vn 0.3708 0.0947 0.9239
vn -0.3708 -0.0947 0.9239
vn -0.8952 -0.2286 0.3827
vn -0.2474 0.9689 -0.0000
vn -0.8952 -0.2286 -0.3827
vn -0.3708 -0.0947 -0.9239
vn 0.2474 -0.9689 -0.0000
vn 0.1207 -0.3632 -0.9239
vn 0.2913 -0.8767 -0.3827
vn 0.2913 -0.8767 0.3827
vn 0.1207 -0.3632 0.9239
vn -0.1207 0.3632 0.9239
vn -0.2913 0.8767 0.3827
vn 0.9490 0.3153 -0.0000
vn -0.2913 0.8767 -0.3827
vn -0.1207 0.3632 -0.9239
vn -0.9490 -0.3153 -0.0000
vn 0.0271 -0.3817 -0.9239
vn 0.0654 -0.9216 -0.3827
vn 0.0654 -0.9216 0.3827
vn 0.0271 -0.3817 0.9239
vn -0.0271 0.3817 0.9239
vn -0.0654 0.9216 0.3827
vn 0.9975 0.0707 -0.0000
vn -0.0654 0.9216 -0.3827
vn -0.0271 0.3817 -0.9239
vn -0.9975 -0.0707 -0.0000
vn 0.2239 -0.6891 -0.6892
vn 0.2994 0.2469 -0.9216
vn 0.0838 0.9625 -0.2579
vn 0.0838 -0.9625 -0.2579
vn 0.2994 -0.2469 -0.9216
vn 0.2239 0.6892 -0.6892
vn 0.2194 0.9625 -0.1594
vn 0.2194 -0.9625 -0.1594
vn 0.7840 -0.2469 -0.5696
vn 0.5862 0.6892 -0.4259
vn 0.5862 -0.6892 -0.4259
vn 0.7840 0.2469 -0.5696
vn 0.2712 -0.9625 -0.0000
vn 0.9690 -0.2469 -0.0000
vn 0.7246 0.6892 -0.0000
vn 0.7246 -0.6891 -0.0000
vn 0.9690 0.2469 -0.0000
vn 0.2712 0.9625 -0.0000
vn 0.2194 -0.9625 0.1594
vn 0.7840 -0.2469 0.5696
vn 0.5862 0.6892 0.4259
vn 0.5862 -0.6891 0.4259
vn 0.7840 0.2469 0.5696
vn 0.2194 0.9625 0.1594
vn 0.0838 -0.9625 0.2579
vn 0.2994 -0.2469 0.9216
vn 0.2239 0.6892 0.6892
vn 0.2239 -0.6891 0.6892
vn 0.2994 0.2469 0.9216
vn 0.0838 0.9625 0.2579
vn -0.2994 -0.2469 0.9216
vn -0.2239 0.6892 0.6892
vn -0.2239 -0.6891 0.6892
vn -0.2994 0.2469 0.9216
vn -0.0838 0.9625 0.2579
vn -0.0838 -0.9625 0.2579
vn -0.5862 0.6892 0.4259
vn -0.5862 -0.6892 0.4259
vn -0.7840 0.2469 0.5696
vn -0.2194 0.9625 0.1594
vn -0.2194 -0.9625 0.1594
vn -0.7840 -0.2469 0.5696
vn -0.7246 -0.6891 -0.0000
vn -0.9690 0.2469 -0.0000
vn -0.2712 0.9625 -0.0000
vn -0.2712 -0.9625 -0.0000
vn -0.9690 -0.2469 -0.0000
vn -0.7246 0.6892 -0.0000
vn -0.5862 -0.6892 -0.4259
vn -0.7840 0.2469 -0.5696
vn -0.2194 0.9625 -0.1594
vn -0.2194 -0.9625 -0.1594
vn -0.7840 -0.2469 -0.5696
vn -0.5862 0.6892 -0.4259
vn -0.2239 -0.6891 -0.6892
vn -0.2994 0.2469 -0.9216
vn -0.0838 0.9625 -0.2579
vn -0.0838 -0.9625 -0.2579
vn -0.2994 -0.2469 -0.9216
vn -0.2239 0.6892 -0.6892
vn 0.5862 -0.6891 -0.4259
vn -0.5862 -0.6891 -0.4259
vn 0.3827 -0.0000 -0.9239
vn 0.9239 -0.0000 -0.3827
vn 0.9239 -0.0000 0.3827
vn 0.3827 -0.0000 0.9239
vn -0.3827 -0.0000 0.9239
vn -0.9239 -0.0000 0.3827
vn -0.9239 -0.0000 -0.3827
vn -0.3827 -0.0000 -0.9239
vn 0.1552 -0.4485 -0.8802
vn 0.1552 0.4485 -0.8802
vn 0.0276 0.9873 -0.1564
vn 0.1237 -0.7017 -0.7017
vn 0.1716 0.1541 -0.9730
vn 0.0798 0.8882 -0.4525
vn 0.0798 -0.8882 -0.4525
vn 0.1716 -0.1541 -0.9730
vn 0.1237 0.7017 -0.7017
vn 0.0276 -0.9873 -0.1564
vn 0.4469 -0.4485 -0.7740
vn 0.4469 0.4485 -0.7740
vn 0.0794 0.9873 -0.1375
vn 0.3562 -0.7017 -0.6170
vn 0.4940 0.1541 -0.8557
vn 0.2298 0.8882 -0.3980
vn 0.2298 -0.8882 -0.3980
vn 0.4940 -0.1541 -0.8557
vn 0.3562 0.7017 -0.6170
vn 0.0794 -0.9873 -0.1375
vn 0.5458 0.7017 -0.4580
vn 0.1216 -0.9873 -0.1021
vn 0.6847 -0.4485 -0.5745
vn 0.6847 0.4485 -0.5745
vn 0.1216 0.9873 -0.1021
vn 0.5458 -0.7017 -0.4580
vn 0.7569 0.1541 -0.6351
vn 0.3520 0.8882 -0.2954
vn 0.3520 -0.8882 -0.2954
vn 0.7569 -0.1541 -0.6351
vn 0.9285 -0.1541 -0.3379
vn 0.6695 0.7017 -0.2437
vn 0.1492 -0.9873 -0.0543
vn 0.8399 -0.4485 -0.3057
vn 0.8399 0.4485 -0.3057
vn 0.1492 0.9873 -0.0543
vn 0.6695 -0.7017 -0.2437
vn 0.9285 0.1541 -0.3379
vn 0.4318 0.8882 -0.1572
vn 0.4318 -0.8882 -0.1572
vn 0.4595 0.8882 -0.0000
vn 0.4595 -0.8882 -0.0000
vn 0.9881 -0.1541 -0.0000
vn 0.7125 0.7017 -0.0000
vn 0.1588 -0.9873 -0.0000
vn 0.8938 -0.4485 -0.0000
vn 0.8938 0.4485 -0.0000
vn 0.1588 0.9873 -0.0000
vn 0.7125 -0.7017 -0.0000
vn 0.9881 0.1541 -0.0000
vn 0.6695 -0.7017 0.2437
vn 0.9285 0.1541 0.3379
vn 0.4318 0.8882 0.1572
vn 0.4318 -0.8882 0.1572
vn 0.9285 -0.1541 0.3379
vn 0.6695 0.7017 0.2437
vn 0.1492 -0.9873 0.0543
vn 0.8399 -0.4485 0.3057
vn 0.8399 0.4485 0.3057
vn 0.1492 0.9873 0.0543
vn 0.6847 0.4485 0.5745
vn 0.1216 0.9873 0.1021
vn 0.5458 -0.7017 0.4580
vn 0.7569 0.1541 0.6351
vn 0.3520 0.8882 0.2954
vn 0.3520 -0.8882 0.2954
vn 0.7569 -0.1541 0.6351
vn 0.5458 0.7017 0.4580
vn 0.1216 -0.9873 0.1021
vn 0.6847 -0.4485 0.5745
vn 0.4469 -0.4485 0.7740
vn 0.4469 0.4485 0.7740
vn 0.0794 0.9873 0.1375
vn 0.3562 -0.7017 0.6170
vn 0.4940 0.1541 0.8557
vn 0.2298 0.8882 0.3980
vn 0.2298 -0.8882 0.3980
vn 0.4940 -0.1541 0.8557
vn 0.3562 0.7017 0.6170
vn 0.0794 -0.9873 0.1375
vn 0.1237 0.7017 0.7017
vn 0.0276 -0.9873 0.1564
vn 0.1552 -0.4485 0.8802
vn 0.1552 0.4485 0.8802
vn 0.0276 0.9873 0.1564
vn 0.1237 -0.7017 0.7017
vn 0.1716 0.1541 0.9730
vn 0.0798 0.8882 0.4525
vn 0.0798 -0.8882 0.4525
vn 0.1716 -0.1541 0.9730
vn -0.0798 -0.8882 0.4525
vn -0.1716 -0.1541 0.9730
vn -0.1237 0.7017 0.7017
vn -0.0276 -0.9873 0.1564
vn -0.1552 -0.4485 0.8802
vn -0.1552 0.4485 0.8802
vn -0.0276 0.9873 0.1564
vn -0.1237 -0.7017 0.7017
vn -0.1716 0.1541 0.9730
vn -0.0798 0.8882 0.4525
vn -0.4940 0.1541 0.8557
vn -0.2298 0.8882 0.3980
vn -0.2298 -0.8882 0.3980
vn -0.4940 -0.1541 0.8557
vn -0.3562 0.7017 0.6170
vn -0.0794 -0.9873 0.1375
vn -0.4469 -0.4485 0.7740
vn -0.4469 0.4485 0.7740
vn -0.0794 0.9873 0.1375
vn -0.3562 -0.7017 0.6170
vn -0.1216 0.9873 0.1021
vn -0.5458 -0.7017 0.4580
vn -0.7569 0.1541 0.6351
vn -0.3520 0.8882 0.2954
vn -0.3520 -0.8882 0.2954
vn -0.7569 -0.1541 0.6351
vn -0.5458 0.7017 0.4580
vn -0.1216 -0.9873 0.1021
vn -0.6847 -0.4485 0.5745
vn -0.6847 0.4485 0.5745
vn -0.8399 0.4485 0.3057
vn -0.1492 0.9873 0.0543
vn -0.6695 -0.7017 0.2437
vn -0.9285 0.1541 0.3379
vn -0.4318 0.8882 0.1572
vn -0.4318 -0.8882 0.1572
vn -0.9285 -0.1541 0.3379
vn -0.6695 0.7017 0.2437
vn -0.1492 -0.9873 0.0543
vn -0.8399 -0.4485 0.3057
vn -0.1588 -0.9873 -0.0000
vn -0.8938 -0.4485 -0.0000
vn -0.8938 0.4485 -0.0000
vn -0.1588 0.9873 -0.0000
vn -0.7125 -0.7017 -0.0000
vn -0.9881 0.1541 -0.0000
vn -0.4595 0.8882 -0.0000
vn -0.4595 -0.8882 -0.0000
vn -0.9881 -0.1541 -0.0000
vn -0.7125 0.7017 -0.0000
vn -0.9285 -0.1541 -0.3379
vn -0.6695 0.7017 -0.2437
vn -0.1492 -0.9873 -0.0543
vn -0.8399 -0.4485 -0.3057
vn -0.8399 0.4485 -0.3057
vn -0.1492 0.9873 -0.0543
vn -0.6695 -0.7017 -0.2437
vn -0.9285 0.1541 -0.3379
vn -0.4318 0.8882 -0.1572
vn -0.4318 -0.8882 -0.1572
vn -0.3520 0.8882 -0.2954
vn -0.3520 -0.8882 -0.2954
vn -0.7569 -0.1541 -0.6351
vn -0.5458 0.7017 -0.4580
vn -0.1216 -0.9873 -0.1021
vn -0.6847 -0.4485 -0.5745
vn -0.6847 0.4485 -0.5745
vn -0.1216 0.9873 -0.1021
vn -0.5458 -0.7017 -0.4580
vn -0.7569 0.1541 -0.6351
vn -0.4940 0.1541 -0.8557
vn -0.2298 0.8882 -0.3980
vn -0.2298 -0.8882 -0.3980
vn -0.4940 -0.1541 -0.8557
vn -0.3562 0.7017 -0.6170
vn -0.0794 -0.9873 -0.1375
vn -0.4469 -0.4485 -0.7740
vn -0.4469 0.4485 -0.7740
vn -0.0794 0.9873 -0.1375
vn -0.3562 -0.7017 -0.6170
vn -0.0276 0.9873 -0.1564
vn -0.1237 -0.7017 -0.7017
vn -0.1716 0.1541 -0.9730
vn -0.0798 0.8882 -0.4525
vn -0.0798 -0.8882 -0.4525
vn -0.1716 -0.1541 -0.9730
vn -0.1237 0.7017 -0.7017
vn -0.0276 -0.9873 -0.1564
vn -0.1552 -0.4485 -0.8802
vn -0.1552 0.4485 -0.8802
vn -0.9689 -0.2474 -0.0000
vn 0.9689 0.2474 -0.0000
vn -0.9950 0.0998 -0.0000
vn 0.9950 -0.0998 -0.0000
vn -0.0998 -0.9950 -0.0000
vn 0.0998 0.9950 -0.0000
vn -0.9801 0.1987 -0.0000
vn 0.9801 -0.1987 -0.0000
vn -0.1987 -0.9801 -0.0000
vn 0.1987 0.9801 -0.0000
vn 0.2239 -0.6892 -0.6892
vn 0.2239 0.6891 -0.6892
vn 0.5862 0.6891 -0.4259
vn 0.7246 0.6891 -0.0000
vn 0.7246 -0.6892 -0.0000
vn 0.5862 0.6891 0.4259
vn 0.5862 -0.6892 0.4259
vn 0.2239 0.6891 0.6892
vn 0.2239 -0.6892 0.6892
vn -0.2239 0.6891 0.6892
vn -0.2239 -0.6892 0.6892
vn -0.5862 0.6891 0.4259
vn -0.7246 -0.6892 -0.0000
vn -0.7246 0.6891 -0.0000
vn -0.2239 -0.6892 -0.6892
vn -0.2239 0.6891 -0.6892
vn -0.5862 0.6891 -0.4259
vn 0.3563 0.7017 0.6170
vn -0.3563 0.7017 0.6170
vn -0.3563 -0.7017 0.6170
vn -0.3563 0.7017 -0.6170
vn -0.3563 -0.7017 -0.6170
s 0
usemtl Jersey
f 2//1 3//1 1//1
f 4//2 7//2 3//2
f 8//3 5//3 7//3
f 5//4 2//4 1//4
f 7//5 1//5 3//5
f 4//6 6//6 8//6
f 58//31 59//31 57//31
f 59//32 62//32 61//32
f 61//33 64//33 63//33
f 63//34 66//34 65//34
f 66//35 67//35 65//35
f 68//36 69//36 67//36
f 70//37 66//37 62//37
f 70//38 71//38 69//38
f 72//39 57//39 71//39
f 63//40 67//40 71//40
f 74//41 75//41 73//41
f 76//42 77//42 75//42
f 78//43 79//43 77//43
f 79//44 82//44 81//44
f 81//45 84//45 83//45
f 84//46 85//46 83//46
f 86//47 82//47 78//47
f 85//48 88//48 87//48
f 88//49 73//49 87//49
f 79//50 83//50 87//50
f 182//31 183//31 181//31
f 183//32 186//32 185//32
f 186//33 187//33 185//33
f 187//34 190//34 189//34
f 190//35 191//35 189//35
f 192//36 193//36 191//36
f 194//37 190//37 186//37
f 193//38 196//38 195//38
f 196//39 181//39 195//39
f 187//40 191//40 195//40
f 198//41 199//41 197//41
f 200//42 201//42 199//42
f 202//43 203//43 201//43
f 203//44 206//44 205//44
f 205//45 208//45 207//45
f 208//46 209//46 207//46
f 210//47 206//47 202//47
f 210//48 211//48 209//48
f 212//49 197//49 211//49
f 203//50 207//50 211//50
f 266//113 267//113 265//113
f 268//114 269//114 267//114
f 270//115 271//115 269//115
f 272//116 273//116 271//116
f 274//117 275//117 273//117
f 276//118 277//118 275//118
f 278//10 274//10 270//10
f 278//119 279//119 277//119
f 280//120 265//120 279//120
f 271//9 275//9 279//9
f 2//1 4//1 3//1
f 4//2 8//2 7//2
f 8//3 6//3 5//3
f 5//4 6//4 2//4
f 7//5 5//5 1//5
f 4//6 2//6 6//6
f 58//31 60//31 59//31
f 59//32 60//32 62//32
f 61//33 62//33 64//33
f 63//34 64//34 66//34
f 66//35 68//35 67//35
f 68//36 70//36 69//36
f 62//37 60//37 58//37
f 58//37 72//37 70//37
f 70//37 68//37 66//37
f 66//37 64//37 62//37
f 62//37 58//37 70//37
f 70//38 72//38 71//38
f 72//39 58//39 57//39
f 71//40 57//40 59//40
f 59//40 61//40 63//40
f 63//40 65//40 67//40
f 67//40 69//40 71//40
f 71//40 59//40 63//40
f 74//41 76//41 75//41
f 76//42 78//42 77//42
f 78//43 80//43 79//43
f 79//44 80//44 82//44
f 81//45 82//45 84//45
f 84//46 86//46 85//46
f 78//47 76//47 74//47
f 74//47 88//47 86//47
f 86//47 84//47 82//47
f 82//47 80//47 78//47
f 78//47 74//47 86//47
f 85//48 86//48 88//48
f 88//49 74//49 73//49
f 87//50 73//50 75//50
f 75//50 77//50 79//50
f 79//50 81//50 83//50
f 83//50 85//50 87//50
f 87//50 75//50 79//50
f 182//31 184//31 183//31
f 183//32 184//32 186//32
f 186//33 188//33 187//33
f 187//34 188//34 190//34
f 190//35 192//35 191//35
f 192//36 194//36 193//36
f 186//37 184//37 182//37
f 182//37 196//37 194//37
f 194//37 192//37 190//37
f 190//37 188//37 186//37
f 186//37 182//37 194//37
f 193//38 194//38 196//38
f 196//39 182//39 181//39
f 195//40 181//40 183//40
f 183//40 185//40 187//40
f 187//40 189//40 191//40
f 191//40 193//40 195//40
f 195//40 183//40 187//40
f 198//41 200//41 199//41
f 200//42 202//42 201//42
f 202//43 204//43 203//43
f 203//44 204//44 206//44
f 205//45 206//45 208//45
f 208//46 210//46 209//46
f 202//47 200//47 198//47
f 198//47 212//47 210//47
f 210//47 208//47 206//47
f 206//47 204//47 202//47
f 202//47 198//47 210//47
f 210//48 212//48 211//48
f 212//49 198//49 197//49
f 211//50 197//50 199//50
f 199//50 201//50 203//50
f 203//50 205//50 207//50
f 207//50 209//50 211//50
f 211//50 199//50 203//50
f 266//113 268//113 267//113
f 268//114 270//114 269//114
f 270//115 272//115 271//115
f 272//116 274//116 273//116
f 274//117 276//117 275//117
f 276//118 278//118 277//118
f 270//10 268//10 266//10
f 266//10 280//10 278//10
f 278//10 276//10 274//10
f 274//10 272//10 270//10
f 270//10 266//10 278//10
f 278//119 280//119 279//119
f 280//120 266//120 265//120
f 279//9 265//9 267//9
f 267//9 269//9 271//9
f 271//9 273//9 275//9
f 275//9 277//9 279//9
f 279//9 267//9 271//9
usemtl Pants
f 10//7 11//7 9//7
f 12//2 15//2 11//2
f 16//8 13//8 15//8
f 14//4 9//4 13//4
f 15//9 9//9 11//9
f 12//10 14//10 16//10
f 18//11 19//11 17//11
f 20//12 21//12 19//12
f 22//13 23//13 21//13
f 24//14 25//14 23//14
f 26//15 27//15 25//15
f 28//16 29//16 27//16
f 30//17 26//17 22//17
f 30//18 31//18 29//18
f 32//19 17//19 31//19
f 23//20 27//20 31//20
f 33//21 36//21 35//21
f 35//22 38//22 37//22
f 38//23 39//23 37//23
f 40//24 41//24 39//24
f 41//25 44//25 43//25
f 44//26 45//26 43//26
f 46//27 42//27 38//27
f 46//28 47//28 45//28
f 48//29 33//29 47//29
f 39//30 43//30 47//30
f 141//11 144//11 143//11
f 144//12 145//12 143//12
f 146//13 147//13 145//13
f 147//14 150//14 149//14
f 149//15 152//15 151//15
f 152//16 153//16 151//16
f 154//17 150//17 146//17
f 153//18 156//18 155//18
f 156//19 141//19 155//19
f 147//20 151//20 155//20
f 158//21 159//21 157//21
f 160//22 161//22 159//22
f 161//23 164//23 163//23
f 164//24 165//24 163//24
f 166//25 167//25 165//25
f 167//26 170//26 169//26
f 170//27 166//27 162//27
f 169//28 172//28 171//28
f 172//29 157//29 171//29
f 163//30 167//30 171//30
f 10//7 12//7 11//7
f 12//2 16//2 15//2
f 16//8 14//8 13//8
f 14//4 10//4 9//4
f 15//9 13//9 9//9
f 12//10 10//10 14//10
f 18//11 20//11 19//11
f 20//12 22//12 21//12
f 22//13 24//13 23//13
f 24//14 26//14 25//14
f 26//15 28//15 27//15
f 28//16 30//16 29//16
f 22//17 20//17 18//17
f 18//17 32//17 30//17
f 30//17 28//17 26//17
f 26//17 24//17 22//17
f 22//17 18//17 30//17
f 30//18 32//18 31//18
f 32//19 18//19 17//19
f 31//20 17//20 19//20
f 19//20 21//20 23//20
f 23//20 25//20 27//20
f 27//20 29//20 31//20
f 31//20 19//20 23//20
f 33//21 34//21 36//21
f 35//22 36//22 38//22
f 38//23 40//23 39//23
f 40//24 42//24 41//24
f 41//25 42//25 44//25
f 44//26 46//26 45//26
f 38//27 36//27 34//27
f 34//27 48//27 46//27
f 46//27 44//27 42//27
f 42//27 40//27 38//27
f 38//27 34//27 46//27
f 46//28 48//28 47//28
f 48//29 34//29 33//29
f 47//30 33//30 35//30
f 35//30 37//30 39//30
f 39//30 41//30 43//30
f 43//30 45//30 47//30
f 47//30 35//30 39//30
f 141//11 142//11 144//11
f 144//12 146//12 145//12
f 146//13 148//13 147//13
f 147//14 148//14 150//14
f 149//15 150//15 152//15
f 152//16 154//16 153//16
f 146//17 144//17 142//17
f 142//17 156//17 154//17
f 154//17 152//17 150//17
f 150//17 148//17 146//17
f 146//17 142//17 154//17
f 153//18 154//18 156//18
f 156//19 142//19 141//19
f 155//20 141//20 143//20
f 143//20 145//20 147//20
f 147//20 149//20 151//20
f 151//20 153//20 155//20
f 155//20 143//20 147//20
f 158//21 160//21 159//21
f 160//22 162//22 161//22
f 161//23 162//23 164//23
f 164//24 166//24 165//24
f 166//25 168//25 167//25
f 167//26 168//26 170//26
f 162//27 160//27 158//27
f 158//27 172//27 170//27
f 170//27 168//27 166//27
f 166//27 164//27 162//27
f 162//27 158//27 170//27
f 169//28 170//28 172//28
f 172//29 158//29 157//29
f 171//30 157//30 159//30
f 159//30 161//30 163//30
f 163//30 165//30 167//30
f 167//30 169//30 171//30
f 171//30 159//30 163//30
usemtl Boot
f 50//7 51//7 49//7
f 52//2 55//2 51//2
f 56//8 53//8 55//8
f 54//4 49//4 53//4
f 55//9 49//9 51//9
f 52//10 54//10 56//10
f 174//7 175//7 173//7
f 176//2 179//2 175//2
f 180//8 177//8 179//8
f 178//4 173//4 177//4
f 179//9 173//9 175//9
f 176//10 178//10 180//10
f 50//7 52//7 51//7
f 52//2 56//2 55//2
f 56//8 54//8 53//8
f 54//4 50//4 49//4
f 55//9 53//9 49//9
f 52//10 50//10 54//10
f 174//7 176//7 175//7
f 176//2 180//2 179//2
f 180//8 178//8 177//8
f 178//4 174//4 173//4
f 179//9 177//9 173//9
f 176//10 174//10 178//10
usemtl Glove
f 140//51 92//51 93//51
f 138//52 90//52 91//52
f 136//53 119//53 89//53
f 125//54 140//54 93//54
f 138//55 92//55 139//55
f 136//56 90//56 137//56
f 89//57 119//57 94//57
f 125//58 93//58 98//58
f 91//59 97//59 92//59
f 89//60 95//60 90//60
f 93//61 97//61 98//61
f 91//62 95//62 96//62
f 125//63 98//63 103//63
f 96//64 102//64 97//64
f 94//65 100//65 95//65
f 98//66 102//66 103//66
f 96//67 100//67 101//67
f 94//68 119//68 99//68
f 125//69 103//69 108//69
f 102//70 106//70 107//70
f 100//71 104//71 105//71
f 102//72 108//72 103//72
f 100//73 106//73 101//73
f 99//74 119//74 104//74
f 125//75 108//75 113//75
f 107//76 111//76 112//76
f 105//77 109//77 110//77
f 107//78 113//78 108//78
f 105//79 111//79 106//79
f 104//80 119//80 109//80
f 112//81 116//81 117//81
f 109//82 115//82 110//82
f 113//83 117//83 118//83
f 110//84 116//84 111//84
f 109//85 119//85 114//85
f 125//86 113//86 118//86
f 114//87 121//87 115//87
f 118//88 123//88 124//88
f 116//89 121//89 122//89
f 114//90 119//90 120//90
f 125//91 118//91 124//91
f 116//92 123//92 117//92
f 124//93 129//93 130//93
f 121//94 128//94 122//94
f 120//95 119//95 126//95
f 125//96 124//96 130//96
f 122//97 129//97 123//97
f 120//98 127//98 121//98
f 129//99 135//99 130//99
f 127//100 133//100 128//100
f 126//101 119//101 131//101
f 125//102 130//102 135//102
f 129//103 133//103 134//103
f 127//104 131//104 132//104
f 134//105 140//105 135//105
f 132//106 138//106 133//106
f 131//107 119//107 136//107
f 125//108 135//108 140//108
f 133//109 139//109 134//109
f 132//110 136//110 137//110
f 262//55 216//55 263//55
f 261//56 213//56 214//56
f 264//51 216//51 217//51
f 262//52 214//52 215//52
f 260//53 243//53 213//53
f 249//54 264//54 217//54
f 217//111 221//111 222//111
f 215//62 219//62 220//62
f 213//57 243//57 218//57
f 249//58 217//58 222//58
f 215//59 221//59 216//59
f 213//60 219//60 214//60
f 222//66 226//66 227//66
f 220//67 224//67 225//67
f 218//68 243//68 223//68
f 249//63 222//63 227//63
f 220//64 226//64 221//64
f 218//65 224//65 219//65
f 226//72 232//72 227//72
f 224//73 230//73 225//73
f 223//74 243//74 228//74
f 249//69 227//69 232//69
f 226//70 230//70 231//70
f 224//71 228//71 229//71
f 229//79 235//79 230//79
f 228//80 243//80 233//80
f 249//75 232//75 237//75
f 231//76 235//76 236//76
f 228//77 234//77 229//77
f 231//78 237//78 232//78
f 233//85 243//85 238//85
f 249//86 237//86 242//86
f 235//81 241//81 236//81
f 233//82 239//82 234//82
f 237//83 241//83 242//83
f 234//84 240//84 235//84
f 249//91 242//91 248//91
f 240//92 247//92 241//92
f 238//87 245//87 239//87
f 242//88 247//88 248//88
f 240//89 245//89 246//89
f 238//90 243//90 244//90
f 249//96 248//96 254//96
f 246//97 253//97 247//97
f 244//98 251//98 245//98
f 248//93 253//93 254//93
f 245//94 252//94 246//94
f 244//95 243//95 250//95
f 249//102 254//102 259//102
f 253//103 257//103 258//103
f 251//104 255//104 256//104
f 253//112 259//112 254//112
f 251//100 257//100 252//100
f 250//101 243//101 255//101
f 257//109 263//109 258//109
f 256//110 260//110 261//110
f 258//105 264//105 259//105
f 257//106 261//106 262//106
f 255//107 243//107 260//107
f 249//108 259//108 264//108
f 140//311 139//311 92//311
f 138//52 137//52 90//52
f 138//55 91//55 92//55
f 136//312 89//312 90//312
f 91//59 96//59 97//59
f 89//313 94//313 95//313
f 93//61 92//61 97//61
f 91//62 90//62 95//62
f 96//64 101//64 102//64
f 94//314 99//314 100//314
f 98//315 97//315 102//315
f 96//67 95//67 100//67
f 102//70 101//70 106//70
f 100//316 99//316 104//316
f 102//317 107//317 108//317
f 100//73 105//73 106//73
f 107//76 106//76 111//76
f 105//318 104//318 109//318
f 107//319 112//319 113//319
f 105//79 110//79 111//79
f 112//81 111//81 116//81
f 109//320 114//320 115//320
f 113//321 112//321 117//321
f 110//84 115//84 116//84
f 114//322 120//322 121//322
f 118//88 117//88 123//88
f 116//89 115//89 121//89
f 116//92 122//92 123//92
f 124//323 123//323 129//323
f 121//94 127//94 128//94
f 122//97 128//97 129//97
f 120//324 126//324 127//324
f 129//99 134//99 135//99
f 127//100 132//100 133//100
f 129//103 128//103 133//103
f 127//104 126//104 131//104
f 134//325 139//325 140//325
f 132//106 137//106 138//106
f 133//109 138//109 139//109
f 132//326 131//326 136//326
f 262//55 215//55 216//55
f 261//312 260//312 213//312
f 264//311 263//311 216//311
f 262//52 261//52 214//52
f 217//61 216//61 221//61
f 215//62 214//62 219//62
f 215//59 220//59 221//59
f 213//313 218//313 219//313
f 222//315 221//315 226//315
f 220//67 219//67 224//67
f 220//64 225//64 226//64
f 218//314 223//314 224//314
f 226//317 231//317 232//317
f 224//73 229//73 230//73
f 226//70 225//70 230//70
f 224//316 223//316 228//316
f 229//79 234//79 235//79
f 231//76 230//76 235//76
f 228//318 233//318 234//318
f 231//319 236//319 237//319
f 235//81 240//81 241//81
f 233//320 238//320 239//320
f 237//321 236//321 241//321
f 234//84 239//84 240//84
f 240//92 246//92 247//92
f 238//87 244//87 245//87
f 242//88 241//88 247//88
f 240//89 239//89 245//89
f 246//97 252//97 253//97
f 244//324 250//324 251//324
f 248//323 247//323 253//323
f 245//94 251//94 252//94
f 253//103 252//103 257//103
f 251//327 250//327 255//327
f 253//99 258//99 259//99
f 251//100 256//100 257//100
f 257//109 262//109 263//109
f 256//326 255//326 260//326
f 258//325 263//325 264//325
f 257//106 256//106 261//106
usemtl Helmet
f 441//121 287//121 442//121
f 438//122 284//122 439//122
f 436//123 390//123 281//123
f 443//124 287//124 288//124
f 440//125 284//125 285//125
f 437//126 281//126 282//126
f 443//127 289//127 444//127
f 440//128 286//128 441//128
f 437//129 283//129 438//129
f 371//130 444//130 289//130
f 286//131 296//131 287//131
f 283//132 293//132 284//132
f 281//133 390//133 290//133
f 287//134 297//134 288//134
f 284//135 294//135 285//135
f 281//136 291//136 282//136
f 288//137 298//137 289//137
f 286//138 294//138 295//138
f 282//139 292//139 283//139
f 371//140 289//140 298//140
f 291//141 301//141 292//141
f 371//142 298//142 307//142
f 295//143 305//143 296//143
f 293//144 301//144 302//144
f 290//145 390//145 299//145
f 296//146 306//146 297//146
f 293//147 303//147 294//147
f 290//148 300//148 291//148
f 297//149 307//149 298//149
f 294//150 304//150 295//150
f 303//151 313//151 304//151
f 300//152 310//152 301//152
f 371//153 307//153 316//153
f 304//154 314//154 305//154
f 302//155 310//155 311//155
f 299//156 390//156 308//156
f 305//157 315//157 306//157
f 303//158 311//158 312//158
f 299//159 309//159 300//159
f 306//160 316//160 307//160
f 308//161 318//161 309//161
f 315//162 325//162 316//162
f 312//163 322//163 313//163
f 309//164 319//164 310//164
f 371//165 316//165 325//165
f 313//166 323//166 314//166
f 310//167 320//167 311//167
f 308//168 390//168 317//168
f 314//169 324//169 315//169
f 311//170 321//170 312//170
f 323//171 333//171 324//171
f 321//172 329//172 330//172
f 317//173 327//173 318//173
f 324//174 334//174 325//174
f 321//175 331//175 322//175
f 319//176 327//176 328//176
f 371//177 325//177 334//177
f 322//178 332//178 323//178
f 319//179 329//179 320//179
f 317//180 390//180 326//180
f 328//181 338//181 329//181
f 326//182 390//182 335//182
f 332//183 342//183 333//183
f 330//184 338//184 339//184
f 326//185 336//185 327//185
f 333//186 343//186 334//186
f 330//187 340//187 331//187
f 327//188 337//188 328//188
f 371//189 334//189 343//189
f 332//190 340//190 341//190
f 340//191 350//191 341//191
f 337//192 347//192 338//192
f 335//193 390//193 344//193
f 341//194 351//194 342//194
f 338//195 348//195 339//195
f 335//196 345//196 336//196
f 342//197 352//197 343//197
f 339//198 349//198 340//198
f 337//199 345//199 346//199
f 371//200 343//200 352//200
f 345//201 355//201 346//201
f 371//202 352//202 361//202
f 349//203 359//203 350//203
f 346//204 356//204 347//204
f 344//205 390//205 353//205
f 351//206 359//206 360//206
f 347//207 357//207 348//207
f 344//208 354//208 345//208
f 351//209 361//209 352//209
f 349//210 357//210 358//210
f 360//211 370//211 361//211
f 358//212 366//212 367//212
f 354//213 364//213 355//213
f 371//214 361//214 370//214
f 358//215 368//215 359//215
f 355//216 365//216 356//216
f 353//217 390//217 362//217
f 359//218 369//218 360//218
f 356//219 366//219 357//219
f 353//220 363//220 354//220
f 366//221 375//221 376//221
f 362//222 373//222 363//222
f 369//223 380//223 370//223
f 366//224 377//224 367//224
f 364//225 373//225 374//225
f 371//226 370//226 380//226
f 368//227 377//227 378//227
f 364//228 375//228 365//228
f 362//229 390//229 372//229
f 368//230 379//230 369//230
f 372//231 390//231 381//231
f 379//232 387//232 388//232
f 375//233 385//233 376//233
f 373//234 381//234 382//234
f 379//235 389//235 380//235
f 376//236 386//236 377//236
f 373//237 383//237 374//237
f 371//238 380//238 389//238
f 377//239 387//239 378//239
f 374//240 384//240 375//240
f 383//241 394//241 384//241
f 381//242 390//242 391//242
f 387//243 398//243 388//243
f 384//244 395//244 385//244
f 381//245 392//245 382//245
f 388//246 399//246 389//246
f 386//247 395//247 396//247
f 382//248 393//248 383//248
f 371//249 389//249 399//249
f 387//250 396//250 397//250
f 371//251 399//251 408//251
f 396//252 406//252 397//252
f 394//253 402//253 403//253
f 391//254 390//254 400//254
f 397//255 407//255 398//255
f 394//256 404//256 395//256
f 391//257 401//257 392//257
f 398//258 408//258 399//258
f 395//259 405//259 396//259
f 392//260 402//260 393//260
f 405//261 413//261 414//261
f 401//262 411//262 402//262
f 371//263 408//263 417//263
f 405//264 415//264 406//264
f 402//265 412//265 403//265
f 400//266 390//266 409//266
f 407//267 415//267 416//267
f 403//268 413//268 404//268
f 400//269 410//269 401//269
f 407//270 417//270 408//270
f 409//271 419//271 410//271
f 416//272 426//272 417//272
f 414//273 422//273 423//273
f 410//274 420//274 411//274
f 371//275 417//275 426//275
f 414//276 424//276 415//276
f 412//277 420//277 421//277
f 409//278 390//278 418//278
f 415//279 425//279 416//279
f 412//280 422//280 413//280
f 421//281 431//281 422//281
f 419//282 427//282 428//282
f 425//283 435//283 426//283
f 422//284 432//284 423//284
f 419//285 429//285 420//285
f 371//286 426//286 435//286
f 423//287 433//287 424//287
f 420//288 430//288 421//288
f 418//289 390//289 427//289
f 424//290 434//290 425//290
f 427//291 390//291 436//291
f 434//292 442//292 443//292
f 431//293 439//293 440//293
f 427//294 437//294 428//294
f 434//295 444//295 435//295
f 431//296 441//296 432//296
f 429//297 437//297 438//297
f 371//298 435//298 444//298
f 432//299 442//299 433//299
f 429//300 439//300 430//300
f 446//301 447//301 445//301
f 448//2 451//2 447//2
f 452//302 449//302 451//302
f 450//4 445//4 449//4
f 451//30 445//30 447//30
f 448//27 450//27 452//27
f 462//307 463//307 461//307
f 464//2 467//2 463//2
f 468//308 465//308 467//308
f 465//4 462//4 461//4
f 467//309 461//309 463//309
f 464//310 466//310 468//310
f 441//121 286//121 287//121
f 438//122 283//122 284//122
f 443//124 442//124 287//124
f 440//125 439//125 284//125
f 437//126 436//126 281//126
f 443//127 288//127 289//127
f 440//128 285//128 286//128
f 437//129 282//129 283//129
f 286//131 295//131 296//131
f 283//132 292//132 293//132
f 287//134 296//134 297//134
f 284//135 293//135 294//135
f 281//136 290//136 291//136
f 288//137 297//137 298//137
f 286//138 285//138 294//138
f 282//139 291//139 292//139
f 291//141 300//141 301//141
f 295//143 304//143 305//143
f 293//144 292//144 301//144
f 296//146 305//146 306//146
f 293//147 302//147 303//147
f 290//148 299//148 300//148
f 297//149 306//149 307//149
f 294//150 303//150 304//150
f 303//151 312//151 313//151
f 300//152 309//152 310//152
f 304//154 313//154 314//154
f 302//155 301//155 310//155
f 305//157 314//157 315//157
f 303//158 302//158 311//158
f 299//159 308//159 309//159
f 306//160 315//160 316//160
f 308//161 317//161 318//161
f 315//162 324//162 325//162
f 312//163 321//163 322//163
f 309//164 318//164 319//164
f 313//166 322//166 323//166
f 310//167 319//167 320//167
f 314//169 323//169 324//169
f 311//170 320//170 321//170
f 323//171 332//171 333//171
f 321//172 320//172 329//172
f 317//173 326//173 327//173
f 324//174 333//174 334//174
f 321//175 330//175 331//175
f 319//176 318//176 327//176
f 322//178 331//178 332//178
f 319//179 328//179 329//179
f 328//181 337//181 338//181
f 332//183 341//183 342//183
f 330//184 329//184 338//184
f 326//185 335//185 336//185
f 333//186 342//186 343//186
f 330//187 339//187 340//187
f 327//188 336//188 337//188
f 332//190 331//190 340//190
f 340//191 349//191 350//191
f 337//192 346//192 347//192
f 341//194 350//194 351//194
f 338//195 347//195 348//195
f 335//196 344//196 345//196
f 342//197 351//197 352//197
f 339//198 348//198 349//198
f 337//328 336//328 345//328
f 345//201 354//201 355//201
f 349//203 358//203 359//203
f 346//204 355//204 356//204
f 351//206 350//206 359//206
f 347//207 356//207 357//207
f 344//208 353//208 354//208
f 351//209 360//209 361//209
f 349//210 348//210 357//210
f 360//211 369//211 370//211
f 358//212 357//212 366//212
f 354//213 363//213 364//213
f 358//215 367//215 368//215
f 355//216 364//216 365//216
f 359//218 368//218 369//218
f 356//219 365//219 366//219
f 353//220 362//220 363//220
f 366//221 365//221 375//221
f 362//222 372//222 373//222
f 369//223 379//223 380//223
f 366//224 376//224 377//224
f 364//329 363//329 373//329
f 368//227 367//227 377//227
f 364//228 374//228 375//228
f 368//330 378//330 379//330
f 379//232 378//232 387//232
f 375//233 384//233 385//233
f 373//234 372//234 381//234
f 379//235 388//235 389//235
f 376//236 385//236 386//236
f 373//237 382//237 383//237
f 377//239 386//239 387//239
f 374//240 383//240 384//240
f 383//241 393//241 394//241
f 387//243 397//243 398//243
f 384//244 394//244 395//244
f 381//245 391//245 392//245
f 388//246 398//246 399//246
f 386//247 385//247 395//247
f 382//248 392//248 393//248
f 387//250 386//250 396//250
f 396//252 405//252 406//252
f 394//253 393//253 402//253
f 397//255 406//255 407//255
f 394//256 403//256 404//256
f 391//257 400//257 401//257
f 398//258 407//258 408//258
f 395//259 404//259 405//259
f 392//260 401//260 402//260
f 405//261 404//261 413//261
f 401//262 410//262 411//262
f 405//264 414//264 415//264
f 402//265 411//265 412//265
f 407//267 406//267 415//267
f 403//268 412//268 413//268
f 400//269 409//269 410//269
f 407//270 416//270 417//270
f 409//271 418//271 419//271
f 416//272 425//272 426//272
f 414//273 413//273 422//273
f 410//274 419//274 420//274
f 414//276 423//276 424//276
f 412//277 411//277 420//277
f 415//279 424//279 425//279
f 412//280 421//280 422//280
f 421//281 430//281 431//281
f 419//282 418//282 427//282
f 425//283 434//283 435//283
f 422//284 431//284 432//284
f 419//331 428//331 429//331
f 423//287 432//287 433//287
f 420//288 429//288 430//288
f 424//332 433//332 434//332
f 434//292 433//292 442//292
f 431//293 430//293 439//293
f 427//294 436//294 437//294
f 434//295 443//295 444//295
f 431//296 440//296 441//296
f 429//297 428//297 437//297
f 432//299 441//299 442//299
f 429//300 438//300 439//300
f 446//301 448//301 447//301
f 448//2 452//2 451//2
f 452//302 450//302 449//302
f 450//4 446//4 445//4
f 451//30 449//30 445//30
f 448//27 446//27 450//27
f 462//307 464//307 463//307
f 464//2 468//2 467//2
f 468//308 466//308 465//308
f 465//4 466//4 462//4
f 467//309 465//309 461//309
f 464//310 462//310 466//310
usemtl Visor
f 454//303 455//303 453//303
f 455//2 460//2 459//2
f 460//304 457//304 459//304
f 458//4 453//4 457//4
f 459//305 453//305 455//305
f 456//306 458//306 460//306
f 454//303 456//303 455//303
f 455//2 456//2 460//2
f 460//304 458//304 457//304
f 458//4 454//4 453//4
f 459//305 457//305 453//305
f 456//306 454//306 458//306
